<svg width="140" height="54" viewBox="0 0 140 54" fill="none" xmlns="http://www.w3.org/2000/svg">
<g clip-path="url(#clip0_1_323)">
<path d="M16.4161 16.806C18.0877 13.2908 21.105 11.1314 26.6967 10.2275C26.0281 8.31235 24.9917 6.54669 23.6459 5.03007C10.9164 4.82083 2.70862 7.74179 0.510416 13.8766C-3.45973 24.9076 16.2907 42.2492 45.2101 53.6317C24.5319 40.8097 12.237 25.7948 16.4161 16.806ZM15.8812 0C24.5152 0.259454 42.1092 1.81618 50.6764 5.74148L50.9689 5.86702C43.9397 5.10539 34.4615 6.33571 29.3546 16.6051C29.0871 11.801 27.1313 1.88314 15.8812 0ZM64.8268 13.3326C57.7847 10.6839 50.5357 8.62357 43.154 7.17266C40.9712 7.73117 38.9109 8.69037 37.0776 10.0016C49.1218 10.3447 63.8991 14.3035 80.5403 22.0536C90.5701 26.7154 97.591 30.7077 104.854 36.2064C96.2203 27.5273 83.0394 19.8859 64.8268 13.3326Z" fill="#00C658"/>
<path d="M138.704 51.8155H137.869C137.534 51.8155 137.334 51.7151 137.334 51.4221C137.334 51.1292 137.442 51.0204 137.777 51.0204H138.663V51.8071L138.704 51.8155ZM138.704 53.9497H139.883V50.2085H137.626C136.582 50.2085 136.205 50.5852 136.205 51.3886C136.176 51.6396 136.24 51.8925 136.385 52.0993C136.53 52.3061 136.746 52.4523 136.991 52.5102L136.03 53.9497H137.376L138.153 52.6357H138.704V53.9497ZM132.11 50.2085H131.015V53.9497H132.62L133.94 51.4891V53.9497H135.06V50.2085H133.522L132.143 52.6692V50.2085H132.11ZM127.036 50.2085H125.858V53.9497H127.036V52.4851H128.574V53.9497H129.753V50.2085H128.574V51.6146H127.036V50.2085ZM123.309 52.5771H122.222L122.757 50.9534L123.309 52.5771ZM123.551 53.2969L123.777 53.9413H124.98L123.643 50.2002H121.821L120.5 53.9413H121.721L121.938 53.2969H123.518H123.551ZM115.753 50.2002V53.9497H116.931V51.079H118.478V53.9497H119.656V50.2085H115.761L115.753 50.2002ZM109.066 50.2002V53.9497H110.245L110.119 51.0873H110.17L111.281 53.9665H112.301L113.404 51.0873H113.463L113.346 53.9497H114.524V50.2085H112.627L111.791 52.5269L110.955 50.1834H109.091L109.066 50.2002ZM105.907 53.1211C105.297 53.1211 105.071 53.0458 105.071 52.4934V51.6899C105.071 51.1292 105.288 51.079 105.907 51.079C106.525 51.079 106.743 51.1376 106.743 51.6899V52.5269C106.718 53.0542 106.5 53.1295 105.89 53.1295L105.907 53.1211ZM105.907 53.9581C107.102 53.9581 107.946 53.7154 107.946 52.5687V51.5477C107.946 50.401 107.11 50.1751 105.907 50.1751C104.703 50.1751 103.867 50.401 103.867 51.5477V52.6106C103.851 53.7572 104.695 53.9999 105.89 53.9999L105.907 53.9581ZM100.056 50.1667H98.8776V53.9497H100.09V52.4851H100.441L101.669 53.9497H103.132L101.46 52.0415L103.015 50.2085H101.594L100.457 51.6146H100.09V50.2085L100.056 50.1667ZM91.6478 51.8155H90.8955C90.5612 51.8155 90.3606 51.7151 90.3606 51.4221C90.3606 51.1292 90.4693 51.0204 90.812 51.0204H91.6979V51.8071L91.6478 51.8155ZM91.6478 53.9497H92.8263V50.2085H90.5696C89.5248 50.2085 89.1487 50.5852 89.1487 51.3886C89.1194 51.6396 89.1833 51.8925 89.3282 52.0993C89.473 52.3061 89.6888 52.4523 89.9344 52.5102L88.9732 53.9497H90.3188L91.0961 52.6357H91.6478V53.9497ZM86.7164 52.5855H85.6299L86.1648 50.9618L86.7164 52.5855ZM86.9588 53.3053L87.1845 53.9497H88.3881L87.0424 50.2085H85.2538L83.9332 53.9497H85.1618L85.3791 53.3053H86.9588ZM80.3391 50.2085H79.1439V53.9497H80.3224V52.4851H81.8603V53.9497H83.0388V50.2085H81.8603V51.6146H80.3224V50.2085H80.3391ZM72.4657 50.2085V53.9497H73.6442L73.5105 51.0873H73.5606L74.6723 53.9665H75.692L76.7952 51.0873H76.8538L76.7284 53.9497H77.9069V50.2085H75.9929L75.157 52.552L74.3212 50.2085H72.449H72.4657ZM69.9081 52.5771H68.8215L69.3564 50.9534L69.9081 52.5771ZM70.1505 53.2969L70.3761 53.9413H71.5797L70.2341 50.2002H68.4287L67.1081 53.9497H68.3284L68.5457 53.3053H70.1254L70.1505 53.2969ZM62.6281 50.2002V52.6524C62.6281 53.0207 62.5194 53.163 62.1935 53.163C62.0743 53.1805 61.9532 53.1805 61.8341 53.163V53.9999C62.033 54.0317 62.2344 54.0457 62.4358 54.0418C62.615 54.0608 62.7962 54.0391 62.9658 53.9782C63.1354 53.9172 63.2891 53.8187 63.4153 53.6899C63.5415 53.5611 63.637 53.4054 63.6946 53.2344C63.7522 53.0635 63.7705 52.8817 63.7481 52.7027V51.079H65.0269V53.9497H66.2054V50.2085H62.6532L62.6281 50.2002ZM58.2567 50.2002H57.1033V53.9497H58.2985V52.4851H58.6329L59.8615 53.9497H61.3242L59.6526 52.0415L61.2072 50.2085H59.7863L58.6329 51.6146H58.2985V50.2085L58.2567 50.2002ZM53.7851 51.0371H55.7911V50.2002H52.6317V53.9497H55.8579V53.1128H53.8102V52.4014H55.6908V51.6899H53.8102V51.0288L53.7851 51.0371ZM48.9373 51.0371H49.7732C50.2329 51.0371 50.2997 51.171 50.2997 51.5477C50.2997 51.9243 50.2161 52.1001 49.7732 52.1001H48.9373V51.0288V51.0371ZM48.9373 52.9203H49.9821C51.2108 52.9203 51.4866 52.5939 51.4866 51.5393C51.4866 50.4847 51.077 50.2169 49.9821 50.2169H47.7923V53.9497H48.9708V52.9119L48.9373 52.9203ZM64.5839 43.0945V33.3273C64.564 33.1974 64.575 33.0647 64.6158 32.9398C64.6567 32.815 64.7263 32.7015 64.8191 32.6086C64.9118 32.5157 65.0251 32.446 65.1498 32.4051C65.2745 32.3642 65.4071 32.3532 65.5367 32.3731H66.1636C66.2933 32.3532 66.4258 32.3642 66.5505 32.4051C66.6752 32.446 66.7885 32.5157 66.8813 32.6086C66.9741 32.7015 67.0437 32.815 67.0846 32.9398C67.1254 33.0647 67.1363 33.1974 67.1164 33.3273V40.7426L78.2747 32.5656C78.4353 32.442 78.632 32.3743 78.8347 32.3731H79.6036C80.3224 32.3731 80.6818 32.6521 80.6818 33.2101V43.0024C80.7017 43.1323 80.6908 43.265 80.6499 43.3898C80.6091 43.5147 80.5394 43.6282 80.4467 43.7211C80.3539 43.814 80.2406 43.8837 80.1159 43.9246C79.9912 43.9655 79.8587 43.9764 79.729 43.9565H79.1021C78.9724 43.9764 78.8399 43.9655 78.7152 43.9246C78.5905 43.8837 78.4772 43.814 78.3844 43.7211C78.2917 43.6282 78.222 43.5147 78.1812 43.3898C78.1403 43.265 78.1294 43.1323 78.1493 43.0024V35.5619L66.9827 43.7724C66.8236 43.8919 66.63 43.9565 66.4311 43.9565H65.637C65.5108 43.9907 65.3783 43.9946 65.2502 43.9682C65.1222 43.9417 65.0021 43.8855 64.8996 43.8041C64.7972 43.7227 64.7153 43.6183 64.6604 43.4994C64.6056 43.3806 64.5794 43.2505 64.5839 43.1196V43.0945ZM97.5403 40.3074V35.7879C97.5403 35.1741 97.0667 34.778 96.1194 34.5994C95.4245 34.5029 94.7228 34.4637 94.0215 34.4823H90.0597C87.8309 34.4823 86.7164 34.937 86.7164 35.8465V41.7051H94.6651C96.6154 41.7051 97.5905 41.2281 97.5905 40.274L97.5403 40.3074ZM100.156 40.274C100.156 42.6676 98.3232 43.8645 94.6567 43.8645H86.7164V46.2163C86.7331 46.3441 86.7201 46.474 86.6784 46.5959C86.6367 46.7179 86.5675 46.8285 86.4761 46.9192C86.3846 47.01 86.2736 47.0783 86.1514 47.119C86.0293 47.1596 85.8994 47.1715 85.772 47.1537H85.0448C84.918 47.1701 84.7891 47.1572 84.668 47.1159C84.547 47.0746 84.437 47.006 84.3466 46.9155C84.2562 46.8249 84.1877 46.7148 84.1464 46.5936C84.1052 46.4724 84.0923 46.3433 84.1087 46.2163V35.7879C84.0758 35.1524 84.2516 34.5236 84.6094 33.9976C84.9671 33.4716 85.487 33.0774 86.0896 32.8753C87.3231 32.4685 88.6202 32.2899 89.9176 32.348H93.9714C98.0502 32.3648 100.09 33.5114 100.09 35.7879V40.274H100.156ZM132.252 36.7085L137.451 32.5656C137.608 32.4352 137.807 32.3667 138.011 32.3731H138.78C139.499 32.3731 139.858 32.6521 139.858 33.2101C139.841 33.3799 139.785 33.5435 139.695 33.6886C139.606 33.8336 139.484 33.9562 139.34 34.047L134.208 38.0979L139.465 42.1989C139.616 42.2953 139.742 42.4258 139.834 42.5798C139.925 42.7339 139.979 42.9073 139.992 43.0861C139.992 43.6441 139.629 43.9231 138.905 43.9231H138.145C137.942 43.9268 137.745 43.8619 137.585 43.7389L132.244 39.5542V42.9522C132.263 43.0821 132.253 43.2148 132.212 43.3396C132.171 43.4645 132.101 43.5779 132.008 43.6708C131.916 43.7637 131.802 43.8335 131.678 43.8744C131.553 43.9153 131.42 43.9262 131.291 43.9063H130.664C130.534 43.9262 130.402 43.9153 130.277 43.8744C130.152 43.8335 130.039 43.7637 129.946 43.6708C129.853 43.5779 129.784 43.4645 129.743 43.3396C129.702 43.2148 129.691 43.0821 129.711 42.9522V39.596L124.303 43.7808C124.146 43.9031 123.951 43.9681 123.752 43.9649H122.958C122.233 43.9649 121.871 43.6859 121.871 43.128C121.884 42.9484 121.94 42.7745 122.033 42.6204C122.126 42.4663 122.254 42.3362 122.406 42.2408L127.73 38.1816L122.49 34.114C122.339 34.0176 122.212 33.8872 122.121 33.7331C122.03 33.579 121.975 33.4056 121.963 33.2268C121.963 32.6689 122.325 32.3899 123.05 32.3899H123.885C124.088 32.3848 124.286 32.4498 124.445 32.574L129.753 36.7588V33.277C129.736 33.1485 129.749 33.0177 129.791 32.895C129.833 32.7724 129.903 32.6612 129.996 32.5703C130.088 32.4794 130.2 32.4112 130.324 32.3712C130.447 32.3312 130.578 32.3204 130.706 32.3397H131.333C131.458 32.326 131.585 32.341 131.704 32.3836C131.823 32.4261 131.931 32.4951 132.019 32.5853C132.108 32.6755 132.174 32.7846 132.215 32.9044C132.255 33.0242 132.268 33.1516 132.252 33.277V36.7085ZM117.642 40.6087V37.8803H108.573C108.039 37.8878 107.51 37.9752 107.002 38.1397C106.222 38.3797 105.832 38.7089 105.832 39.1273V40.5836C105.832 41.0635 106.286 41.401 107.194 41.5963C107.506 41.6633 107.991 41.7358 108.648 41.8139H114.959C116.725 41.8139 117.608 41.4122 117.608 40.6087H117.642ZM120.116 40.4832C120.116 42.7987 118.377 43.9593 114.9 43.9649H108.682C108.017 43.9581 107.355 43.8738 106.709 43.7138C104.402 43.1558 103.249 42.1236 103.249 40.6171V39.1357C103.249 38.5458 103.428 37.9699 103.763 37.4841C104.097 36.9984 104.571 36.6258 105.121 36.4156C106.203 35.9213 107.384 35.6808 108.573 35.7126H117.642C117.514 34.9314 116.516 34.5436 114.65 34.5492H108.799C108.67 34.5662 108.54 34.5531 108.417 34.5109C108.295 34.4687 108.184 34.3986 108.093 34.306C108.002 34.2135 107.934 34.1011 107.894 33.9777C107.854 33.8544 107.843 33.7234 107.863 33.5951V33.3356C107.842 33.2067 107.852 33.0748 107.891 32.9503C107.93 32.8258 107.998 32.7123 108.089 32.6188C108.18 32.5252 108.292 32.4543 108.415 32.4117C108.538 32.369 108.67 32.3558 108.799 32.3731H114.131C118.166 32.3731 120.183 33.5588 120.183 35.9302V40.4748L120.116 40.4832ZM39.4842 41.4708H54.9553C55.7415 41.4686 56.4949 41.1548 57.0509 40.5981C57.6069 40.0414 57.9202 39.2869 57.9224 38.4996C57.918 37.7137 57.6037 36.9614 57.048 36.4065C56.4922 35.8516 55.7401 35.539 54.9553 35.5368H39.4842V41.4708ZM39.4842 32.5238H54.9553C55.7415 32.5216 56.4949 32.2078 57.0509 31.6511C57.6069 31.0944 57.9202 30.3399 57.9224 29.5526C57.9202 28.7653 57.6069 28.0109 57.0509 27.4541C56.4949 26.8974 55.7415 26.5837 54.9553 26.5815H39.4842V32.5238ZM36.9182 24.1543H56.2341C57.4719 24.1587 58.6577 24.653 59.533 25.5295C60.4082 26.4059 60.9019 27.5934 60.9063 28.8328C60.9063 30.9001 60.3797 32.8753 58.5159 33.4947C58.2484 33.5867 58.3069 33.7123 58.5159 33.796C60.4048 34.4823 60.8896 36.3068 60.8896 38.441V38.7172C60.8874 40.0972 60.3389 41.4201 59.3644 42.3959C58.39 43.3717 57.0689 43.9208 55.6908 43.9231H36.9182C36.7551 43.9214 36.5985 43.8587 36.4794 43.7471C36.3602 43.6355 36.2872 43.4833 36.2747 43.3204V24.8406C36.2768 24.6704 36.3453 24.5077 36.4656 24.3873C36.5858 24.2669 36.7482 24.1983 36.9182 24.1961V24.1543Z" fill="#23475F"/>
</g>
<defs>
<clipPath id="clip0_1_323">
<rect width="140" height="54" fill="white"/>
</clipPath>
</defs>
</svg>
