<svg width="155" height="60" viewBox="0 0 155 60" fill="none" xmlns="http://www.w3.org/2000/svg">
<g clip-path="url(#clip0_1_295)">
<path d="M18.1744 18.6733C20.0251 14.7675 23.3657 12.3683 29.5565 11.3639C28.8162 9.23594 27.6688 7.2741 26.1788 5.58897C12.0854 5.35648 2.99825 8.60198 0.564519 15.4185C-3.831 27.6751 18.0356 46.9436 50.0535 59.5908C27.1597 45.3441 13.5475 28.6609 18.1744 18.6733ZM17.5821 0C27.1412 0.288283 46.6203 2.01798 56.1054 6.37942L56.4293 6.51891C48.6469 5.67266 38.1532 7.03968 32.4991 18.4501C32.203 13.1122 30.0377 2.09237 17.5821 0ZM71.772 14.814C63.9753 11.871 55.9496 9.58174 47.7771 7.96962C45.3604 8.59019 43.0793 9.65596 41.0496 11.1128C54.3842 11.4941 70.7448 15.8927 89.169 24.504C100.273 29.6838 108.047 34.1197 116.088 40.2294C106.529 30.5859 91.9359 22.0955 71.772 14.814Z" fill="#00C658"/>
<path d="M153.566 57.5728H152.64C152.27 57.5728 152.048 57.4612 152.048 57.1357C152.048 56.8102 152.168 56.6893 152.538 56.6893H153.519V57.5635L153.566 57.5728ZM153.566 59.9442H154.87V55.7873H152.372C151.215 55.7873 150.799 56.2058 150.799 57.0985C150.766 57.3773 150.837 57.6583 150.997 57.8881C151.158 58.1179 151.397 58.2804 151.669 58.3447L150.604 59.9442H152.094L152.955 58.4841H153.566V59.9442ZM146.264 55.7873H145.052V59.9442H146.829L148.291 57.2101V59.9442H149.531V55.7873H147.828L146.301 58.5213V55.7873H146.264ZM140.647 55.7873H139.343V59.9442H140.647V58.3168H142.35V59.9442H143.655V55.7873H142.35V57.3496H140.647V55.7873ZM136.52 58.419H135.317L135.909 56.615L136.52 58.419ZM136.789 59.2188L137.038 59.9349H138.371L136.89 55.778H134.873L133.411 59.9349H134.762L135.003 59.2188H136.752H136.789ZM128.155 55.778V59.9442H129.46V56.7544H131.172V59.9442H132.476V55.7873H128.164L128.155 55.778ZM120.752 55.778V59.9442H122.057L121.918 56.7637H121.973L123.204 59.9628H124.333L125.555 56.7637H125.619L125.49 59.9442H126.795V55.7873H124.694L123.769 58.3632L122.843 55.7594H120.78L120.752 55.778ZM117.254 59.0235C116.578 59.0235 116.329 58.9398 116.329 58.3261V57.4333C116.329 56.8102 116.569 56.7544 117.254 56.7544C117.939 56.7544 118.179 56.8195 118.179 57.4333V58.3632C118.152 58.9491 117.911 59.0328 117.235 59.0328L117.254 59.0235ZM117.254 59.9535C118.577 59.9535 119.512 59.6838 119.512 58.4097V57.2752C119.512 56.0012 118.586 55.7501 117.254 55.7501C115.921 55.7501 114.996 56.0012 114.996 57.2752V58.4562C114.978 59.7303 115.912 59.9999 117.235 59.9999L117.254 59.9535ZM110.776 55.7408H109.472V59.9442H110.813V58.3168H111.202L112.562 59.9442H114.182L112.331 57.8239L114.052 55.7873H112.479L111.221 57.3496H110.813V55.7873L110.776 55.7408ZM101.467 57.5728H100.634C100.264 57.5728 100.042 57.4612 100.042 57.1357C100.042 56.8102 100.162 56.6893 100.542 56.6893H101.523V57.5635L101.467 57.5728ZM101.467 59.9442H102.772V55.7873H100.273C99.1166 55.7873 98.7002 56.2058 98.7002 57.0985C98.6678 57.3773 98.7386 57.6583 98.899 57.8881C99.0593 58.1179 99.2982 58.2804 99.5701 58.3447L98.5059 59.9442H99.9957L100.856 58.4841H101.467V59.9442ZM96.0074 58.4283H94.8044L95.3966 56.6243L96.0074 58.4283ZM96.2758 59.2281L96.5256 59.9442H97.8581L96.3683 55.7873H94.388L92.9259 59.9442H94.2862L94.5268 59.2281H96.2758ZM88.9468 55.7873H87.6235V59.9442H88.9283V58.3168H90.631V59.9442H91.9357V55.7873H90.631V57.3496H88.9283V55.7873H88.9468ZM80.2298 55.7873V59.9442H81.5346L81.3865 56.7637H81.442L82.6728 59.9628H83.8017L85.0232 56.7637H85.088L84.9492 59.9442H86.254V55.7873H84.1349L83.2095 58.3911L82.2841 55.7873H80.2113H80.2298ZM77.3981 58.419H76.1952L76.7874 56.615L77.3981 58.419ZM77.6665 59.2188L77.9163 59.9349H79.2489L77.759 55.778H75.7602L74.2981 59.9442H75.6492L75.8898 59.2281H77.6387L77.6665 59.2188ZM69.3381 55.778V58.5027C69.3381 58.9119 69.2178 59.07 68.857 59.07C68.725 59.0895 68.591 59.0895 68.459 59.07V59.9999C68.6793 60.0352 68.9023 60.0508 69.1253 60.0464C69.3237 60.0676 69.5243 60.0435 69.712 59.9758C69.8998 59.9081 70.0699 59.7986 70.2097 59.6555C70.3494 59.5124 70.4551 59.3394 70.5189 59.1494C70.5827 58.9595 70.603 58.7575 70.5781 58.5585V56.7544H71.994V59.9442H73.2987V55.7873H69.3659L69.3381 55.778ZM64.4984 55.778H63.2214V59.9442H64.5447V58.3168H64.9149L66.2752 59.9442H67.8946L66.0438 57.8239L67.765 55.7873H66.1919L64.9149 57.3496H64.5447V55.7873L64.4984 55.778ZM59.5477 56.7079H61.7686V55.778H58.2707V59.9442H61.8426V59.0142H59.5755V58.2238H61.6575V57.4333H59.5755V56.6987L59.5477 56.7079ZM54.1805 56.7079H55.1059C55.6149 56.7079 55.6889 56.8567 55.6889 57.2752C55.6889 57.6937 55.5964 57.889 55.1059 57.889H54.1805V56.6987V56.7079ZM54.1805 58.8003H55.3372C56.6975 58.8003 57.0029 58.4376 57.0029 57.2659C57.0029 56.0942 56.5495 55.7966 55.3372 55.7966H52.9128V59.9442H54.2175V58.791L54.1805 58.8003ZM71.5035 47.8828V37.0303C71.4815 36.886 71.4936 36.7386 71.5388 36.5998C71.5841 36.4611 71.6611 36.335 71.7639 36.2318C71.8666 36.1286 71.992 36.0511 72.1301 36.0057C72.2681 35.9602 72.4149 35.9481 72.5584 35.9702H73.2525C73.3961 35.9481 73.5428 35.9602 73.6808 36.0057C73.8189 36.0511 73.9443 36.1286 74.047 36.2318C74.1498 36.335 74.2269 36.4611 74.2721 36.5998C74.3173 36.7386 74.3294 36.886 74.3074 37.0303V45.2696L86.6611 36.1841C86.839 36.0466 87.0568 35.9715 87.2811 35.9702H88.1325C88.9283 35.9702 89.3262 36.2802 89.3262 36.9001V47.7805C89.3482 47.9248 89.3361 48.0722 89.2909 48.211C89.2457 48.3497 89.1686 48.4758 89.0659 48.579C88.9631 48.6822 88.8377 48.7597 88.6996 48.8051C88.5616 48.8506 88.4149 48.8627 88.2713 48.8406H87.5772C87.4337 48.8627 87.2869 48.8506 87.1489 48.8051C87.0108 48.7597 86.8854 48.6822 86.7827 48.579C86.68 48.4758 86.6029 48.3497 86.5576 48.211C86.5124 48.0722 86.5003 47.9248 86.5223 47.7805V39.5133L74.1593 48.636C73.9831 48.7688 73.7688 48.8406 73.5486 48.8406H72.6695C72.5297 48.8785 72.383 48.883 72.2412 48.8535C72.0994 48.8241 71.9665 48.7617 71.8531 48.6712C71.7397 48.5808 71.649 48.4648 71.5882 48.3327C71.5275 48.2007 71.4985 48.0561 71.5035 47.9107V47.8828ZM107.991 44.7861V39.7644C107.991 39.0824 107.467 38.6422 106.418 38.4438C105.648 38.3365 104.872 38.293 104.095 38.3136H99.7089C97.2412 38.3136 96.0074 38.8189 96.0074 39.8295V46.3391H104.808C106.967 46.3391 108.047 45.809 108.047 44.7489L107.991 44.7861ZM110.887 44.7489C110.887 47.4085 108.858 48.7383 104.798 48.7383H96.0074V51.3515C96.0259 51.4935 96.0115 51.6378 95.9653 51.7733C95.9191 51.9088 95.8425 52.0317 95.7412 52.1325C95.64 52.2333 95.517 52.3093 95.3818 52.3544C95.2466 52.3996 95.1028 52.4128 94.9617 52.393H94.1566C94.0162 52.4113 93.8735 52.3969 93.7395 52.351C93.6055 52.3051 93.4837 52.2289 93.3836 52.1283C93.2835 52.0277 93.2077 51.9053 93.162 51.7707C93.1164 51.636 93.1021 51.4926 93.1202 51.3515V39.7644C93.0838 39.0582 93.2785 38.3596 93.6745 37.7751C94.0706 37.1907 94.6462 36.7527 95.3134 36.5282C96.6791 36.0762 98.1152 35.8777 99.5516 35.9423H104.04C108.555 35.9609 110.813 37.2349 110.813 39.7644V44.7489H110.887ZM146.422 40.7873L152.178 36.1841C152.351 36.0391 152.572 35.9631 152.798 35.9702H153.649C154.445 35.9702 154.843 36.2802 154.843 36.9001C154.824 37.0888 154.762 37.2706 154.663 37.4318C154.563 37.5929 154.429 37.7292 154.269 37.8301L148.587 42.331L154.408 46.8877C154.575 46.9948 154.715 47.1398 154.816 47.311C154.917 47.4822 154.977 47.6748 154.991 47.8735C154.991 48.4934 154.59 48.8034 153.788 48.8034H152.946C152.722 48.8076 152.503 48.7355 152.326 48.5988L146.412 43.9491V47.7247C146.434 47.869 146.422 48.0165 146.377 48.1552C146.332 48.2939 146.255 48.42 146.152 48.5232C146.049 48.6264 145.924 48.7039 145.786 48.7493C145.648 48.7948 145.501 48.8069 145.358 48.7848H144.664C144.52 48.8069 144.373 48.7948 144.235 48.7493C144.097 48.7039 143.972 48.6264 143.869 48.5232C143.766 48.42 143.689 48.2939 143.644 48.1552C143.599 48.0165 143.587 47.869 143.609 47.7247V43.9956L137.621 48.6453C137.447 48.7813 137.231 48.8534 137.011 48.8499H136.132C135.33 48.8499 134.929 48.5399 134.929 47.92C134.943 47.7205 135.005 47.5273 135.108 47.356C135.21 47.1848 135.352 47.0403 135.521 46.9342L141.415 42.424L135.613 37.9045C135.446 37.7974 135.307 37.6524 135.205 37.4812C135.104 37.3101 135.044 37.1174 135.03 36.9187C135.03 36.2988 135.431 35.9888 136.233 35.9888H137.159C137.383 35.9831 137.602 36.0554 137.779 36.1934L143.655 40.8431V36.9745C143.636 36.8316 143.651 36.6863 143.697 36.55C143.744 36.4138 143.821 36.2902 143.924 36.1892C144.026 36.0882 144.15 36.0125 144.287 35.968C144.423 35.9236 144.568 35.9116 144.71 35.933H145.404C145.543 35.9178 145.683 35.9345 145.815 35.9818C145.947 36.029 146.066 36.1057 146.164 36.2059C146.262 36.3061 146.336 36.4273 146.381 36.5605C146.425 36.6936 146.439 36.8352 146.422 36.9745V40.7873ZM130.246 45.1208V42.0892H120.206C119.615 42.0975 119.029 42.1947 118.466 42.3775C117.603 42.6441 117.171 43.0099 117.171 43.4748V45.0929C117.171 45.6261 117.673 46.0012 118.679 46.2182C119.025 46.2926 119.561 46.3732 120.289 46.46H127.276C129.231 46.46 130.209 46.0136 130.209 45.1208H130.246ZM132.985 44.9813C132.985 47.5542 131.061 48.8437 127.211 48.8499H120.326C119.59 48.8423 118.857 48.7487 118.142 48.5709C115.588 47.951 114.311 46.804 114.311 45.1301V43.4841C114.312 42.8287 114.51 42.1888 114.88 41.6491C115.25 41.1094 115.775 40.6954 116.384 40.4618C117.582 39.9125 118.889 39.6454 120.206 39.6807H130.246C130.104 38.8127 129 38.3818 126.933 38.388H120.456C120.314 38.4069 120.169 38.3924 120.033 38.3455C119.898 38.2986 119.775 38.2207 119.674 38.1179C119.574 38.015 119.498 37.8902 119.454 37.7531C119.41 37.616 119.398 37.4704 119.419 37.3279V37.0396C119.396 36.8964 119.407 36.7498 119.451 36.6115C119.494 36.4732 119.569 36.347 119.67 36.2431C119.771 36.1392 119.894 36.0604 120.031 36.013C120.167 35.9656 120.313 35.9509 120.456 35.9702H126.36C130.826 35.9702 133.059 37.2876 133.059 39.9225V44.972L132.985 44.9813ZM43.7146 46.0787H60.8432C61.7137 46.0762 62.5479 45.7276 63.1634 45.109C63.779 44.4905 64.1259 43.6522 64.1283 42.7774C64.1234 41.9042 63.7754 41.0683 63.1602 40.4517C62.5449 39.8351 61.7121 39.4878 60.8432 39.4854H43.7146V46.0787ZM43.7146 36.1376H60.8432C61.7137 36.1351 62.5479 35.7865 63.1634 35.1679C63.779 34.5494 64.1259 33.7111 64.1283 32.8363C64.1259 31.9615 63.779 31.1232 63.1634 30.5046C62.5479 29.886 61.7137 29.5374 60.8432 29.535H43.7146V36.1376ZM40.8737 26.8381H62.259C63.6295 26.843 64.9424 27.3923 65.9114 28.3661C66.8804 29.3399 67.427 30.6593 67.4319 32.0365C67.4319 34.3335 66.8489 36.5282 64.7853 37.2163C64.4892 37.3186 64.554 37.4581 64.7853 37.5511C66.8767 38.3136 67.4134 40.3409 67.4134 42.7123V43.0192C67.4109 44.5525 66.8037 46.0223 65.7248 47.1065C64.6459 48.1908 63.1833 48.801 61.6575 48.8034H40.8737C40.6931 48.8016 40.5197 48.7319 40.3878 48.6079C40.2559 48.484 40.175 48.3148 40.1611 48.1339V27.6007C40.1635 27.4115 40.2394 27.2308 40.3725 27.097C40.5056 26.9633 40.6854 26.887 40.8737 26.8846V26.8381Z" fill="white"/>
</g>
<defs>
<clipPath id="clip0_1_295">
<rect width="155" height="60" fill="white"/>
</clipPath>
</defs>
</svg>
