<svg width="60" height="60" viewBox="0 0 60 60" fill="none" xmlns="http://www.w3.org/2000/svg">
<path d="M6.94505 13.9618C6.94505 25.4901 0.973389 33.4068 0.973389 38.9618C0.973389 44.5168 4.16672 56.1834 29.7217 56.1834C55.2767 56.1834 59.0267 40.4884 59.0267 34.3784C59.0284 5.76677 6.94505 -6.4549 6.94505 13.9618Z" fill="#EFF1F3"/>
<path d="M33.75 11.25H22.9683H14.5833C12.7417 11.25 11.25 12.7417 11.25 14.5833V29.5183V38.75C11.25 40.5917 12.7417 42.0833 14.5833 42.0833H25.365H33.75C35.5917 42.0833 37.0833 40.5917 37.0833 38.75V23.815V14.5833C37.0833 12.7417 35.5917 11.25 33.75 11.25Z" fill="#F3F3F1"/>
<path d="M45.0001 34.5831C45.0001 31.5231 42.2501 29.1047 39.0868 29.6647C37.0834 30.0197 35.4434 31.6614 35.0834 33.6631C34.7768 35.3714 35.3434 36.9414 36.4051 38.0347C37.0584 38.7064 37.5001 39.5531 37.5001 40.4914V42.9181H42.5001V40.3481C42.5001 39.4914 42.9084 38.7147 43.5184 38.1131C44.4318 37.2097 45.0001 35.9681 45.0001 34.5831Z" fill="#00C658"/>
<path d="M48.75 48.7504H31.25V45.6387C31.25 44.7987 31.8767 44.0887 32.71 43.9854L37.9167 43.3337H42.0833L47.29 43.9854C48.1233 44.0904 48.75 44.7987 48.75 45.6387V48.7504Z" fill="#00C658"/>
<path d="M15 38.75V29.5183V14.5833C15 12.7417 16.4917 11.25 18.3333 11.25H14.5833C12.7417 11.25 11.25 12.7417 11.25 14.5833V29.5183V38.75C11.25 40.5917 12.7417 42.0833 14.5833 42.0833H18.3333C16.4917 42.0833 15 40.5917 15 38.75Z" fill="#DFE0E1"/>
<path d="M40.1551 38.0333C39.0934 36.9399 38.5268 35.3699 38.8334 33.6616C39.1318 32.0033 40.3151 30.6033 41.8484 29.9666C41.0118 29.6299 40.0768 29.4883 39.0868 29.6633C37.0834 30.0183 35.4434 31.6599 35.0834 33.6616C34.7768 35.3699 35.3434 36.9399 36.4051 38.0333C37.0584 38.7049 37.5001 39.5516 37.5001 40.4899V42.9166H41.2501V40.4899C41.2501 39.5533 40.8068 38.7066 40.1551 38.0333Z" fill="#19D86E"/>
<path d="M36.46 43.9854L41.6667 43.3337H37.9167L32.71 43.9854C31.8767 44.0904 31.25 44.7987 31.25 45.6387V48.7504H35V45.6387C35 44.797 35.6267 44.0887 36.46 43.9854Z" fill="#19D86E"/>
<path d="M42.5001 44.1667H37.5001C36.8101 44.1667 36.2501 43.6067 36.2501 42.9167V40.49C36.2501 39.8117 35.8468 39.2534 35.5084 38.905C34.0951 37.4467 33.4918 35.4567 33.8534 33.4417C34.3034 30.9367 36.3668 28.8784 38.8701 28.4351C40.7168 28.1034 42.5951 28.6034 44.0151 29.7951C45.4368 30.9867 46.2501 32.7317 46.2501 34.585C46.2501 36.255 45.5918 37.8234 44.3968 39.0017C44.1018 39.2934 43.7501 39.7634 43.7501 40.3484V42.9184C43.7501 43.6067 43.1901 44.1667 42.5001 44.1667ZM38.7501 41.6667H41.2501V40.3467C41.2501 39.2167 41.7434 38.1067 42.6401 37.2217C43.3551 36.5167 43.7501 35.5784 43.7501 34.5834C43.7501 33.4717 43.2618 32.4234 42.4084 31.7084C41.5434 30.9834 40.4451 30.6884 39.3051 30.8951C37.8134 31.1584 36.5834 32.3884 36.3151 33.8834C36.0968 35.0967 36.4568 36.2917 37.3034 37.1634C38.2501 38.1384 38.7518 39.29 38.7518 40.49V41.6667H38.7501Z" fill="#3C4658"/>
<path d="M48.75 49.9998H31.25C30.56 49.9998 30 49.4398 30 48.7498V45.6381C30 44.1698 31.0983 42.9265 32.555 42.7448L37.7617 42.0931L42.0833 42.0831L47.445 42.7431C48.9017 42.9248 50 44.1698 50 45.6381V48.7498C50 49.4398 49.44 49.9998 48.75 49.9998ZM32.5 47.4998H47.5V45.6381C47.5 45.4281 47.3433 45.2515 47.135 45.2248L41.9267 44.5731L37.9167 44.5831L32.865 45.2248C32.6567 45.2515 32.5 45.4281 32.5 45.6381V47.4998Z" fill="#3C4658"/>
<path d="M25.365 43.3336H14.5833C12.055 43.3336 10 41.2786 10 38.7503V14.5836C10 12.0553 12.055 10.0003 14.5833 10.0003H33.75C36.2783 10.0003 38.3333 12.0553 38.3333 14.5836V23.8169H35.8333V14.5836C35.8333 13.4353 34.8983 12.5003 33.75 12.5003H14.5833C13.435 12.5003 12.5 13.4353 12.5 14.5836V38.7503C12.5 39.8986 13.435 40.8336 14.5833 40.8336H25.365V43.3336Z" fill="#3C4658"/>
<path d="M17.9167 29.1669H30.4168V31.6669H17.9167V29.1669Z" fill="#3C4658"/>
<path d="M17.9167 35.8337H28.7501V38.3337H17.9167V35.8337Z" fill="#3C4658"/>
<path d="M17.9167 22.5H30.4168V25H17.9167V22.5Z" fill="#3C4658"/>
<path d="M17.9167 15.8331H30.4168V18.3331H17.9167V15.8331Z" fill="#3C4658"/>
<path d="M53.2998 42.9166C51.9215 42.9166 50.7998 41.7949 50.7998 40.4166C50.7998 39.0382 51.9215 37.9166 53.2998 37.9166C54.6781 37.9166 55.7998 39.0382 55.7998 40.4166C55.7998 41.7949 54.6781 42.9166 53.2998 42.9166ZM53.2998 39.5832C52.8398 39.5832 52.4665 39.9566 52.4665 40.4166C52.4665 40.8766 52.8398 41.2499 53.2998 41.2499C53.7598 41.2499 54.1331 40.8766 54.1331 40.4166C54.1331 39.9566 53.7598 39.5832 53.2998 39.5832Z" fill="#ACB1BA"/>
<path d="M11.5635 7.20157L13.9205 4.84455L15.099 6.02306L12.742 8.38008L11.5635 7.20157Z" fill="#ACB1BA"/>
<path d="M4.78687 13.9776L7.14389 11.6206L8.3224 12.7991L5.96538 15.1561L4.78687 13.9776Z" fill="#ACB1BA"/>
<path d="M5.08276 6.02084L6.26127 4.84233L8.6183 7.19936L7.43979 8.37787L5.08276 6.02084Z" fill="#ACB1BA"/>
</svg>
