<svg width="20" height="12" viewBox="0 0 20 12" fill="none" xmlns="http://www.w3.org/2000/svg">
<path d="M0.132183 5.67986L4.67753 1.13448C4.84081 0.943815 5.12776 0.921589 5.31842 1.08491C5.50908 1.24818 5.53131 1.53513 5.36799 1.72579C5.35276 1.74357 5.33619 1.76017 5.31842 1.77536L1.55032 5.54803H19.5455C19.7965 5.54803 20 5.75154 20 6.00259C20 6.25364 19.7965 6.45712 19.5455 6.45712H1.55032L5.31842 10.2252C5.50908 10.3885 5.53131 10.6754 5.36799 10.8661C5.20467 11.0568 4.91776 11.079 4.7271 10.9157C4.70933 10.9004 4.69273 10.8839 4.67753 10.8661L0.132143 6.32071C-0.0440655 6.14349 -0.0440636 5.85717 0.132183 5.67986Z" fill="white"/>
</svg>
