<svg width="20" height="12" viewBox="0 0 20 12" fill="none" xmlns="http://www.w3.org/2000/svg">
<path d="M19.8678 5.67986L15.3225 1.13448C15.1592 0.943815 14.8722 0.921589 14.6816 1.08491C14.4909 1.24818 14.4687 1.53513 14.632 1.72579C14.6472 1.74357 14.6638 1.76017 14.6816 1.77536L18.4497 5.54803H0.454523C0.203512 5.54803 0 5.75154 0 6.00259C0 6.25364 0.203512 6.45712 0.454523 6.45712H18.4497L14.6816 10.2252C14.4909 10.3885 14.4687 10.6754 14.632 10.8661C14.7953 11.0568 15.0822 11.079 15.2729 10.9157C15.2907 10.9004 15.3073 10.8839 15.3225 10.8661L19.8679 6.32071C20.0441 6.14349 20.0441 5.85717 19.8678 5.67986Z" fill="white"/>
</svg>
