<svg width="80" height="80" viewBox="0 0 80 80" fill="none" xmlns="http://www.w3.org/2000/svg">
<path d="M9.26007 61.3836C9.26007 46.0125 1.29785 35.4569 1.29785 28.0502C1.29785 20.6436 5.55563 5.08801 39.629 5.08801C73.7023 5.08801 78.7023 26.0147 78.7023 34.1613C78.7045 72.3102 9.26007 88.6058 9.26007 61.3836Z" fill="white"/>
<path d="M9.72241 7.22144H11.9446V11.6659H9.72241V7.22144Z" fill="#ACB1BA"/>
<path d="M2.5 13.8893H6.94445V16.1115H2.5V13.8893Z" fill="#ACB1BA"/>
<path d="M33.8887 55H59.4442C62.5131 55 64.9998 57.2378 64.9998 60C64.9998 62.7622 62.5131 65 59.4442 65H33.8887V55Z" fill="#F3F3F1"/>
<path d="M33.8889 65.0004H19.2622C16.9089 65.0004 15 63.0915 15 60.7382V28.1515C15 25.7982 16.9089 23.8893 19.2622 23.8893H33.8889V65.0004Z" fill="#F3F3F1"/>
<path d="M24.4443 36.111C25.9784 36.111 27.2221 34.8673 27.2221 33.3332C27.2221 31.7991 25.9784 30.5554 24.4443 30.5554C22.9102 30.5554 21.6665 31.7991 21.6665 33.3332C21.6665 34.8673 22.9102 36.111 24.4443 36.111Z" fill="#2FDF84"/>
<path d="M35 43.8894H45V53.8894H35V43.8894Z" fill="#00C658"/>
<path d="M50.5552 43.8894H60.5552V53.8894H50.5552V43.8894Z" fill="#00C658"/>
<path d="M33.8887 55H38.8887V65H33.8887V55Z" fill="#DFE0E1"/>
<path d="M20 60.7382V28.1515C20 25.7982 21.9089 23.8893 24.2622 23.8893H19.2622C16.9089 23.8893 15 25.7982 15 28.1515V60.7382C15 63.0915 16.9089 65.0004 19.2622 65.0004H24.2622C21.9089 65.0004 20 63.0915 20 60.7382Z" fill="#DFE0E1"/>
<path d="M26.6665 33.3332C26.6665 32.911 26.7754 32.5221 26.9443 32.1643C26.4999 31.2199 25.5554 30.5554 24.4443 30.5554C22.911 30.5554 21.6665 31.7999 21.6665 33.3332C21.6665 34.8665 22.911 36.111 24.4443 36.111C25.5554 36.111 26.4999 35.4465 26.9443 34.5021C26.7754 34.1443 26.6665 33.7554 26.6665 33.3332Z" fill="#19D86E"/>
<path d="M35 43.8893H40V53.8893H35V43.8893Z" fill="#19D86E"/>
<path d="M50.5554 43.8893H55.5554V53.8893H50.5554V43.8893Z" fill="#19D86E"/>
<path d="M59.4443 66.6673H33.8887V63.334H59.4443C61.5887 63.334 63.3331 61.8384 63.3331 60.0006C63.3331 58.1629 61.5887 56.6673 59.4443 56.6673H34.9998V53.334H59.4443C63.4265 53.334 66.6665 56.3251 66.6665 60.0006C66.6665 63.6762 63.4265 66.6673 59.4443 66.6673Z" fill="#3C4658"/>
<path d="M33.889 66.6659H19.2624C15.9935 66.6659 13.3335 64.0059 13.3335 60.737V28.1503C13.3335 24.8814 15.9935 22.2214 19.2624 22.2214H33.889C34.809 22.2214 35.5557 22.9681 35.5557 23.8881V64.9992C35.5557 65.9192 34.809 66.6659 33.889 66.6659ZM19.2624 25.5548C17.8313 25.5548 16.6668 26.7192 16.6668 28.1503V60.737C16.6668 62.1681 17.8313 63.3325 19.2624 63.3325H32.2224V25.5548H19.2624Z" fill="#3C4658"/>
<path d="M24.4444 37.7782C21.9933 37.7782 20 35.7848 20 33.3337C20 30.8826 21.9933 28.8893 24.4444 28.8893C26.8956 28.8893 28.8889 30.8826 28.8889 33.3337C28.8889 35.7848 26.8956 37.7782 24.4444 37.7782ZM24.4444 32.2226C23.8333 32.2226 23.3333 32.7204 23.3333 33.3337C23.3333 33.9471 23.8333 34.4448 24.4444 34.4448C25.0556 34.4448 25.5556 33.9471 25.5556 33.3337C25.5556 32.7204 25.0556 32.2226 24.4444 32.2226Z" fill="#3C4658"/>
<path d="M21.6665 42.2214H27.2221V45.5547H21.6665V42.2214Z" fill="#3C4658"/>
<path d="M21.6665 48.8893H27.2221V52.2226H21.6665V48.8893Z" fill="#3C4658"/>
<path d="M45.0001 55.5548H35.0002C34.0802 55.5548 33.3335 54.8081 33.3335 53.8881V43.8881C33.3335 42.9681 34.0802 42.2214 35.0002 42.2214H45.0001C45.9201 42.2214 46.6668 42.9681 46.6668 43.8881V53.8881C46.6668 54.8081 45.9201 55.5548 45.0001 55.5548ZM36.6668 52.2214H43.3335V45.5548H36.6668V52.2214Z" fill="#3C4658"/>
<path d="M60.5553 55.5548H50.5553C49.6353 55.5548 48.8887 54.8081 48.8887 53.8881V43.8881C48.8887 42.9681 49.6353 42.2214 50.5553 42.2214H60.5553C61.4753 42.2214 62.222 42.9681 62.222 43.8881V53.8881C62.222 54.8081 61.4753 55.5548 60.5553 55.5548ZM52.222 52.2214H58.8887V45.5548H52.222V52.2214Z" fill="#3C4658"/>
</svg>
