<svg width="14" height="14" viewBox="0 0 14 14" fill="none" xmlns="http://www.w3.org/2000/svg">
<path d="M13.0567 10.5C13.6564 9.46983 14 8.27837 14 7C14 3.13425 10.8657 0 7 0C3.13425 0 0 3.13425 0 7C0 10.8657 3.13425 14 7 14C8.93287 14 10.6829 13.2172 11.949 11.949L10.71 10.71C9.76004 11.662 8.44754 12.25 7 12.25C4.10521 12.25 1.75 9.89479 1.75 7C1.75 4.10521 4.10492 1.75 7 1.75C9.89508 1.75 12.25 4.10492 12.25 7C12.25 7.62212 12.1304 8.21654 11.9306 8.77071L11.9166 8.75H10.5V3.51867H7C5.06712 3.51867 3.5 5.08579 3.5 7.01867C3.5 8.95154 5.06712 10.5187 7 10.5187C7.80325 10.5187 8.53475 10.2366 9.12567 9.78192C9.44358 10.2057 9.92892 10.5 10.4997 10.5H13.0565H13.0567ZM8.75 6.1285V7.01867C8.75 7.98437 7.96367 8.76867 7 8.76867C6.03633 8.76867 5.25 7.98437 5.25 7.01867C5.25 6.05296 6.03633 5.26867 7 5.26867H8.75V6.1285Z" fill="#00C658"/>
</svg>
