<svg width="80" height="80" viewBox="0 0 80 80" fill="none" xmlns="http://www.w3.org/2000/svg">
<path d="M18.6154 70.7401C33.9866 70.7401 44.5421 78.7023 51.9488 78.7023C59.3554 78.7023 74.911 74.4446 74.911 40.3712C74.911 6.29788 53.9843 1.29565 45.8377 1.29565C7.68878 1.29565 -8.60678 70.7401 18.6154 70.7401Z" fill="#EFF1F3"/>
<path d="M40.0756 56.4156L24.6533 65L27.5444 46.9178L15 34.1622L32.2667 31.4689L39.9356 15L47.7156 31.4156L65 33.9933L52.5444 46.8333L55.5556 64.8956L40.0756 56.4156Z" fill="#00C658"/>
<path d="M30.1422 61.9444L32.5444 46.9178L20 34.1622L37.2644 31.4689L42.4578 20.32L39.9356 15L32.2667 31.4689L15 34.1622L27.5444 46.9178L24.6533 65L30.1422 61.9444Z" fill="#19D86E"/>
<path d="M45.0755 56.4155L42.5955 57.7955L55.5555 64.8955L55.0532 61.88L45.0755 56.4155Z" fill="#00B871"/>
<path d="M24.6534 66.6667C24.3179 66.6667 23.9845 66.5645 23.6979 66.3645C23.1756 66 22.9068 65.3667 23.0068 64.7378L25.7645 47.4867L13.8112 35.3289C13.3734 34.8845 13.2201 34.2312 13.4179 33.6378C13.6134 33.0423 14.1245 32.6112 14.7423 32.5134L31.1312 29.9556L38.4245 14.2956C38.6979 13.7112 39.2823 13.3356 39.929 13.3334H39.9334C40.5779 13.3334 41.1645 13.7045 41.4401 14.2867L48.8401 29.8978L65.2445 32.3445C65.8623 32.4378 66.3756 32.8667 66.5779 33.46C66.7801 34.0534 66.629 34.7067 66.1956 35.1556L54.3268 47.3912L57.2001 64.6245C57.3045 65.2534 57.0423 65.8867 56.5201 66.2556C56.0001 66.6223 55.3156 66.6645 54.7556 66.36L40.0823 58.32L25.4645 66.4578C25.2112 66.5978 24.9334 66.6667 24.6534 66.6667ZM18.4645 35.3089L28.7312 45.7512C29.1023 46.1267 29.2734 46.6578 29.189 47.1823L26.8401 61.8756L39.2645 54.96C39.7668 54.68 40.3756 54.68 40.8756 54.9534L53.3468 61.7867L50.8979 47.1089C50.8112 46.5889 50.9779 46.0534 51.3468 45.6734L61.5423 35.1645L47.469 33.0667C46.9201 32.9845 46.4468 32.6334 46.209 32.1312L39.9468 18.9223L33.7756 32.1734C33.5423 32.6778 33.0712 33.0312 32.5223 33.1178L18.4645 35.3089Z" fill="#3C4658"/>
<path d="M59.0266 7.08459H61.2488V11.529H59.0266V7.08459Z" fill="#ACB1BA"/>
<path d="M59.0266 19.8623H61.2488V24.3068H59.0266V19.8623Z" fill="#ACB1BA"/>
<path d="M51.249 14.3069H55.6935V16.5291H51.249V14.3069Z" fill="#ACB1BA"/>
<path d="M64.0266 14.3069H68.471V16.5291H64.0266V14.3069Z" fill="#ACB1BA"/>
<path d="M17.2222 25.4179C15.3845 25.4179 13.8889 23.9223 13.8889 22.0846C13.8889 20.2468 15.3845 18.7512 17.2222 18.7512C19.06 18.7512 20.5556 20.2468 20.5556 22.0846C20.5556 23.9223 19.06 25.4179 17.2222 25.4179ZM17.2222 20.9734C16.6089 20.9734 16.1111 21.4734 16.1111 22.0846C16.1111 22.6957 16.6089 23.1957 17.2222 23.1957C17.8356 23.1957 18.3334 22.6957 18.3334 22.0846C18.3334 21.4734 17.8356 20.9734 17.2222 20.9734Z" fill="#ACB1BA"/>
</svg>
