<svg width="60" height="60" viewBox="0 0 60 60" fill="none" xmlns="http://www.w3.org/2000/svg">
<path d="M6.94505 46.0379C6.94505 34.5096 0.973389 26.593 0.973389 21.038C0.973389 15.483 4.16672 3.81628 29.7217 3.81628C55.2767 3.81628 59.0267 19.5113 59.0267 25.6213C59.0284 54.2329 6.94505 66.4546 6.94505 46.0379Z" fill="#EFEFEF"/>
<path d="M10.802 8.59891L13.159 6.24189L14.3375 7.4204L11.9805 9.77742L10.802 8.59891Z" fill="#ACB1BA"/>
<path d="M4.02588 15.3735L6.3829 13.0165L7.56141 14.195L5.20439 16.552L4.02588 15.3735Z" fill="#ACB1BA"/>
<path d="M4.02563 7.12811L5.20415 5.9496L7.56117 8.30663L6.38266 9.48514L4.02563 7.12811Z" fill="#ACB1BA"/>
<path d="M54.993 40.7933C53.6147 40.7933 52.493 39.6716 52.493 38.2933C52.493 36.9149 53.6147 35.7933 54.993 35.7933C56.3714 35.7933 57.4931 36.9149 57.4931 38.2933C57.4931 39.6716 56.3714 40.7933 54.993 40.7933ZM54.993 37.4599C54.5347 37.4599 54.1597 37.8349 54.1597 38.2933C54.1597 38.7516 54.5347 39.1266 54.993 39.1266C55.4514 39.1266 55.8264 38.7516 55.8264 38.2933C55.8264 37.8349 55.4514 37.4599 54.993 37.4599Z" fill="#ACB1BA"/>
<path d="M32.9167 22.0833H42.7401C43.3984 22.0833 44.0418 22.2783 44.5884 22.6433L48.7484 25.4167V12.9167C48.7484 11.9967 48.0018 11.25 47.0818 11.25H32.9151C31.9951 11.25 31.2484 11.9967 31.2484 12.9167V20.4167C31.2501 21.3367 31.9967 22.0833 32.9167 22.0833Z" fill="#F3F3F1"/>
<path d="M19.1666 38.7497C21.2377 38.7497 22.9166 37.0708 22.9166 34.9997C22.9166 32.9286 21.2377 31.2497 19.1666 31.2497C17.0956 31.2497 15.4166 32.9286 15.4166 34.9997C15.4166 37.0708 17.0956 38.7497 19.1666 38.7497Z" fill="#F3F3F1"/>
<path d="M11.25 48.7496V46.2496C11.25 44.408 12.7417 42.9163 14.5833 42.9163H23.75C25.5917 42.9163 27.0833 44.408 27.0833 46.2496V48.7496H11.25Z" fill="#00C658"/>
<path d="M40.8335 38.7497C42.9046 38.7497 44.5835 37.0708 44.5835 34.9997C44.5835 32.9286 42.9046 31.2497 40.8335 31.2497C38.7624 31.2497 37.0835 32.9286 37.0835 34.9997C37.0835 37.0708 38.7624 38.7497 40.8335 38.7497Z" fill="#F3F3F1"/>
<path d="M32.9166 48.7496V46.2496C32.9166 44.408 34.4083 42.9163 36.25 42.9163H45.4166C47.2583 42.9163 48.75 44.408 48.75 46.2496V48.7496H32.9166Z" fill="#00C658"/>
<path d="M30.4167 25.4168H17.26C16.6017 25.4168 15.9583 25.6118 15.4117 25.9768L11.25 28.7501V16.2501C11.25 15.3301 11.9967 14.5834 12.9167 14.5834H30.4167C31.3367 14.5834 32.0833 15.3301 32.0833 16.2501V23.7501C32.0833 24.6701 31.3367 25.4168 30.4167 25.4168Z" fill="#00C658"/>
<path d="M14.5833 16.2501C14.5833 15.3301 15.33 14.5834 16.25 14.5834H12.9167C11.9967 14.5834 11.25 15.3301 11.25 16.2501V28.7501L14.5833 26.5284V16.2501Z" fill="#19D86E"/>
<path d="M34.5832 20.4167V12.9167C34.5832 11.9967 35.3299 11.25 36.2499 11.25H32.9165C31.9965 11.25 31.2499 11.9967 31.2499 12.9167V20.4167C31.2499 21.3367 31.9965 22.0833 32.9165 22.0833H36.2499C35.3299 22.0833 34.5832 21.3367 34.5832 20.4167Z" fill="#DFE0E1"/>
<path d="M47.9232 22.6434C47.3749 22.2784 46.7316 22.0834 46.0749 22.0834H42.7416C43.3999 22.0834 44.0432 22.2784 44.5899 22.6434L48.7499 25.4168V23.1951L47.9232 22.6434Z" fill="#D5DBE1"/>
<path d="M18.75 34.9997C18.75 33.5297 19.6033 32.2714 20.8333 31.6564C20.33 31.4047 19.7683 31.2497 19.1666 31.2497C17.095 31.2497 15.4166 32.928 15.4166 34.9997C15.4166 37.0714 17.095 38.7497 19.1666 38.7497C19.7683 38.7497 20.33 38.5947 20.8333 38.343C19.6033 37.728 18.75 36.468 18.75 34.9997Z" fill="#DFE0E1"/>
<path d="M40.4168 34.9997C40.4168 33.5297 41.2702 32.2714 42.5002 31.6564C41.9968 31.4047 41.4352 31.2497 40.8335 31.2497C38.7618 31.2497 37.0835 32.928 37.0835 34.9997C37.0835 37.0714 38.7618 38.7497 40.8335 38.7497C41.4352 38.7497 41.9968 38.5947 42.5002 38.343C41.2702 37.728 40.4168 36.468 40.4168 34.9997Z" fill="#DFE0E1"/>
<path d="M17.9167 42.9163H14.5833C12.7417 42.9163 11.25 44.408 11.25 46.2496V48.7496H14.5833V46.2496C14.5833 44.408 16.075 42.9163 17.9167 42.9163Z" fill="#19D86E"/>
<path d="M39.5833 42.9163H36.25C34.4083 42.9163 32.9166 44.408 32.9166 46.2496V48.7496H36.25V46.2496C36.25 44.408 37.7416 42.9163 39.5833 42.9163Z" fill="#19D86E"/>
<path d="M48.75 26.6669C48.5067 26.6669 48.2667 26.5969 48.0567 26.4569L43.8967 23.6836C43.5533 23.4536 43.1533 23.3336 42.7417 23.3336H32.9167C31.3083 23.3336 30 22.0253 30 20.4169V12.9169C30 11.3086 31.3083 10.0003 32.9167 10.0003H47.0833C48.6917 10.0003 50 11.3086 50 12.9169V25.4169C50 25.8769 49.7467 26.3003 49.34 26.5186C49.155 26.6186 48.9517 26.6669 48.75 26.6669ZM32.9167 12.5003C32.6867 12.5003 32.5 12.6869 32.5 12.9169V20.4169C32.5 20.6469 32.6867 20.8336 32.9167 20.8336H42.7417C43.65 20.8336 44.5283 21.1003 45.2833 21.6036L47.5 23.0819V12.9169C47.5 12.6869 47.3133 12.5003 47.0833 12.5003H32.9167Z" fill="#3C4658"/>
<path d="M11.2501 30.0004C11.0468 30.0004 10.8451 29.952 10.6601 29.852C10.2535 29.6337 10.0001 29.2104 10.0001 28.7504V16.2504C10.0001 14.642 11.3085 13.3337 12.9168 13.3337H25.4168V15.8337H12.9168C12.6901 15.8337 12.5001 16.0237 12.5001 16.2504V26.4204L14.7251 24.942C15.4585 24.4387 16.3435 24.167 17.2668 24.167H30.4168V26.667H17.2668C16.8551 26.667 16.4501 26.7904 16.1218 27.0137L11.9401 29.792C11.7335 29.9304 11.4918 30.0004 11.2501 30.0004Z" fill="#3C4658"/>
<path d="M19.1666 40C16.41 40 14.1666 37.7567 14.1666 35C14.1666 32.2433 16.41 30 19.1666 30C21.9233 30 24.1666 32.2433 24.1666 35C24.1666 37.7567 21.9233 40 19.1666 40ZM19.1666 32.5C17.7883 32.5 16.6666 33.6217 16.6666 35C16.6666 36.3783 17.7883 37.5 19.1666 37.5C20.545 37.5 21.6666 36.3783 21.6666 35C21.6666 33.6217 20.545 32.5 19.1666 32.5Z" fill="#3C4658"/>
<path d="M28.3335 48.7499H25.8335V46.2499C25.8335 45.1016 24.8985 44.1666 23.7501 44.1666H14.5835C13.4351 44.1666 12.5001 45.1016 12.5001 46.2499V48.7499H10.0001V46.2499C10.0001 43.7216 12.0551 41.6666 14.5835 41.6666H23.7501C26.2785 41.6666 28.3335 43.7216 28.3335 46.2499V48.7499Z" fill="#3C4658"/>
<path d="M40.8332 40C38.0766 40 35.8333 37.7567 35.8333 35C35.8333 32.2433 38.0766 30 40.8332 30C43.5899 30 45.8332 32.2433 45.8332 35C45.8332 37.7567 43.5899 40 40.8332 40ZM40.8332 32.5C39.4549 32.5 38.3333 33.6217 38.3333 35C38.3333 36.3783 39.4549 37.5 40.8332 37.5C42.2116 37.5 43.3332 36.3783 43.3332 35C43.3332 33.6217 42.2116 32.5 40.8332 32.5Z" fill="#3C4658"/>
<path d="M50.0001 48.7499H47.5001V46.2499C47.5001 45.1016 46.5651 44.1666 45.4167 44.1666H36.2501C35.1017 44.1666 34.1667 45.1016 34.1667 46.2499V48.7499H31.6667V46.2499C31.6667 43.7216 33.7217 41.6666 36.2501 41.6666H45.4167C47.9451 41.6666 50.0001 43.7216 50.0001 46.2499V48.7499Z" fill="#3C4658"/>
</svg>
