<svg width="80" height="80" viewBox="0 0 80 80" fill="none" xmlns="http://www.w3.org/2000/svg">
<path d="M29.8023 77.7757C43.7979 71.4223 56.7023 74.3112 63.4467 71.2512C70.1912 68.189 82.5956 57.8823 68.5134 26.8557C54.4312 -4.171 33.3112 -0.0776709 25.8912 3.289C-8.84659 19.0557 5.01341 89.0268 29.8023 77.7757Z" fill="#EFF1F3"/>
<path d="M37.4466 15.4977C35.6088 15.4977 34.1133 14.0022 34.1133 12.1644C34.1133 10.3266 35.6088 8.83105 37.4466 8.83105C39.2844 8.83105 40.78 10.3266 40.78 12.1644C40.78 14.0022 39.2844 15.4977 37.4466 15.4977ZM37.4466 11.0533C36.8355 11.0533 36.3355 11.5511 36.3355 12.1644C36.3355 12.7777 36.8355 13.2755 37.4466 13.2755C38.0577 13.2755 38.5577 12.7777 38.5577 12.1644C38.5577 11.5511 38.0577 11.0533 37.4466 11.0533Z" fill="#ACB1BA"/>
<path d="M24.1311 49.9356H24.1089C23.6311 49.8267 23.1311 49.7844 22.6089 49.7844C18.4133 49.7844 15 53.1978 15 57.3933C15 61.5889 18.4133 65.0022 22.6089 65.0022C26.8044 65.0022 30.2178 61.5889 30.2178 57.3933C30.2178 56.7422 30.1311 56.0889 29.9578 55.48L55.8933 30.0667C56.3711 30.1756 56.8711 30.2178 57.3933 30.2178C61.5889 30.2178 65.0022 26.8044 65.0022 22.6089C65.0022 18.4133 61.5867 15 57.3911 15C53.1956 15 49.7822 18.4133 49.7822 22.6089C49.7822 23.3489 49.8911 24.0644 50.1089 24.76L24.1311 49.9356H24.1089H24.1311Z" fill="#F3F3F1"/>
<path d="M15.1111 18.0244L17.06 23.0556L23.0556 17.06L18.0244 15.1111C16.2244 14.5111 14.5111 16.2244 15.1111 18.0244Z" fill="#2FDF84"/>
<path d="M46.9599 39.249L47.8043 39.6712L63.3155 55.1824C65.5621 57.429 65.5621 61.069 63.3155 63.3157C61.0688 65.5624 57.4288 65.5624 55.1821 63.3157L39.671 47.8046L39.2043 46.8712L46.9599 39.249Z" fill="#00C658"/>
<path d="M44.671 47.8046L44.2043 46.8712L49.651 41.5179L47.8043 39.6712L46.9599 39.249L39.2043 46.8712L39.671 47.8046L55.1821 63.3157C56.9599 65.0935 59.6066 65.4401 61.7488 64.4024C61.1866 64.129 60.6488 63.7824 60.1821 63.3157L44.671 47.8046Z" fill="#19D86E"/>
<path d="M17.06 23.0556L20.6644 19.4511L20.1111 18.0244C19.8667 17.2911 20.0178 16.5822 20.3911 16.0289L18.0244 15.1111C16.2244 14.5111 14.5111 16.2244 15.1111 18.0244L17.06 23.0556Z" fill="#19D86E"/>
<path d="M20 57.3911C20 53.1956 23.4133 49.7822 27.6089 49.7822C28.1311 49.7822 28.6311 49.8267 29.1089 49.9334H29.1311L55.1089 24.76C54.8911 24.0645 54.7822 23.3467 54.7822 22.6067C54.7822 19.2911 56.9267 16.4956 59.8911 15.4534C59.1044 15.1778 58.2711 14.9978 57.3911 14.9978C53.1956 14.9978 49.7822 18.4111 49.7822 22.6067C49.7822 23.3467 49.8911 24.0622 50.1089 24.76L24.1311 49.9334H24.1089C23.6311 49.8245 23.1311 49.7822 22.6089 49.7822C18.4133 49.7822 15 53.1956 15 57.3911C15 61.5867 18.4133 65 22.6089 65C23.4889 65 24.3222 64.82 25.1089 64.5445C22.1444 63.5045 20 60.7067 20 57.3911Z" fill="#DFE0E1"/>
<path d="M22.6091 66.6668C17.4935 66.6668 13.3335 62.5046 13.3335 57.3913C13.3335 52.2779 17.4935 48.1157 22.6091 48.1157C22.9424 48.1157 23.2602 48.1313 23.5646 48.1624L48.2646 24.2291C48.1668 23.6979 48.1179 23.1557 48.1179 22.6091C48.1157 17.4957 52.2757 13.3335 57.3913 13.3335C62.5068 13.3335 66.6668 17.4957 66.6668 22.6091C66.6668 27.7224 62.5068 31.8846 57.3913 31.8846C57.0668 31.8846 56.7579 31.8713 56.4602 31.8402L31.7802 56.0246C31.8491 56.4713 31.8846 56.9268 31.8846 57.3913C31.8846 62.5046 27.7246 66.6668 22.6091 66.6668ZM22.6091 51.4491C19.3313 51.4491 16.6668 54.1157 16.6668 57.3913C16.6668 60.6668 19.3313 63.3335 22.6091 63.3335C25.8868 63.3335 28.5513 60.6668 28.5513 57.3913C28.5513 56.8891 28.4846 56.3868 28.3535 55.9357C28.1868 55.3491 28.3535 54.7157 28.7891 54.2891L54.7246 28.8757C55.1313 28.4779 55.7157 28.3202 56.2602 28.4402C56.5868 28.5157 56.9557 28.5513 57.3913 28.5513C60.6691 28.5513 63.3335 25.8846 63.3335 22.6091C63.3335 19.3335 60.6691 16.6668 57.3913 16.6668C54.1135 16.6668 51.4491 19.3335 51.4491 22.6091C51.4491 23.1757 51.5335 23.7335 51.6979 24.2668C51.8846 24.8668 51.7202 25.5224 51.2668 25.9602L25.2891 51.1313C25.1202 51.2957 24.9202 51.4202 24.7002 51.5002C24.5268 51.5646 24.3379 51.6002 24.1402 51.6002C24.1379 51.6002 24.1379 51.6002 24.1379 51.6002C24.1357 51.6002 24.1357 51.6002 24.1335 51.6002C24.1335 51.6002 24.1313 51.6002 24.1291 51.6002H24.1068C24.1046 51.6002 24.1024 51.6002 24.1002 51.6002C24.0979 51.6002 24.0957 51.6002 24.0957 51.6002C24.0957 51.6002 24.0957 51.6002 24.0935 51.6002C23.9602 51.6002 23.8335 51.5824 23.7068 51.5535C23.3891 51.4824 23.0291 51.4491 22.6091 51.4491Z" fill="#3C4658"/>
<path d="M59.2489 66.6622C57.3512 66.6622 55.4489 65.94 54.0045 64.4934L38.4934 48.9823C38.3645 48.8556 38.2623 48.7089 38.18 48.5489L37.7134 47.6156L40.6956 46.1267L41.04 46.8178L56.3623 62.1378C57.9556 63.7289 60.5467 63.7289 62.1401 62.1378C62.9112 61.3667 63.3356 60.34 63.3356 59.2489C63.3356 58.1578 62.9112 57.1311 62.1401 56.36L46.8178 41.04L46.2156 40.74L47.7045 37.7578L48.5489 38.18C48.7089 38.26 48.8578 38.3645 48.9823 38.4934L64.4934 54.0045C67.3867 56.8956 67.3867 61.6023 64.4934 64.4956C63.0489 65.94 61.1489 66.6622 59.2489 66.6622Z" fill="#3C4658"/>
<path d="M19.1052 21.4709L21.4619 19.1143L38.3498 36.0022L35.9931 38.3588L19.1052 21.4709Z" fill="#3C4658"/>
<path d="M17.0599 24.7222C16.9444 24.7222 16.8288 24.7111 16.7155 24.6866C16.1644 24.5711 15.711 24.1822 15.5066 23.6578L13.5577 18.6266C13.5466 18.6022 13.5377 18.5755 13.5288 18.5511C13.051 17.1133 13.4199 15.5578 14.491 14.4889C15.5599 13.42 17.111 13.0533 18.551 13.5289L23.6577 15.5044C24.1822 15.7067 24.571 16.1622 24.6866 16.7133C24.8044 17.2644 24.6355 17.8378 24.2355 18.2355L18.2399 24.2311C17.9222 24.5489 17.4977 24.7222 17.0599 24.7222ZM16.6844 17.4689L17.6888 20.0689L20.0666 17.6911L17.4222 16.6644C17.1777 16.58 16.951 16.74 16.8466 16.8467C16.7444 16.9467 16.5933 17.16 16.6844 17.4689Z" fill="#3C4658"/>
</svg>
