<svg width="60" height="60" viewBox="0 0 60 60" fill="none" xmlns="http://www.w3.org/2000/svg">
<path d="M13.9616 6.94512C25.4899 6.94512 33.4066 0.97345 38.9616 0.97345C44.5166 0.97345 56.1833 4.16678 56.1833 29.7218C56.1833 55.2768 40.4883 59.0268 34.3783 59.0268C5.76658 59.0285 -6.45509 6.94512 13.9616 6.94512Z" fill="#EFF1F3"/>
<path d="M9.95264 7.20117L12.3097 4.84415L13.4882 6.02266L11.1311 8.37968L9.95264 7.20117Z" fill="#ACB1BA"/>
<path d="M3.17603 13.9763L5.53305 11.6193L6.71156 12.7978L4.35454 15.1548L3.17603 13.9763Z" fill="#ACB1BA"/>
<path d="M3.47168 6.02045L4.65019 4.84194L7.00722 7.19896L5.8287 8.37747L3.47168 6.02045Z" fill="#ACB1BA"/>
<path d="M40 48.7496C40 48.7496 48.75 44.8813 48.75 37.1429C48.75 34.0479 48.75 31.0113 48.75 31.0113L40 27.9163L31.25 31.0113V37.1429C31.25 44.8813 40 48.7496 40 48.7496Z" fill="#00C658"/>
<path d="M15.4165 20.8337L18.7498 24.5837H21.2498L24.5832 20.8337H15.4165Z" fill="#00C658"/>
<path d="M17.9167 32.0837H22.0833L23.75 37.0838H16.25L17.9167 32.0837Z" fill="#00C658"/>
<path d="M44.1667 20.4167H11.25V11.25H44.1667C46.6983 11.25 48.75 13.3017 48.75 15.8333C48.75 18.365 46.6983 20.4167 44.1667 20.4167Z" fill="#F3F3F1"/>
<path d="M11.25 11.25H15V20.4167H11.25V11.25Z" fill="#DFE0E1"/>
<path d="M35 37.1429C35 32.4996 35 31.0113 35 31.0113L41.875 28.5796L40 27.9163L31.25 31.0113V37.1429C31.25 44.8813 40 48.7496 40 48.7496C40 48.7496 40.785 48.3979 41.875 47.7113C39.305 46.0929 35 42.5746 35 37.1429Z" fill="#19D86E"/>
<path d="M19.1665 20.8337H15.4165L18.7498 24.5837H21.2498L21.8748 23.8804L19.1665 20.8337Z" fill="#19D86E"/>
<path d="M17.9167 32.0837L16.25 37.0838H20L21.6667 32.0837H17.9167Z" fill="#19D86E"/>
<path d="M21.25 25.8332H18.75C18.3934 25.8332 18.0534 25.6798 17.815 25.4132L14.4817 21.6632L16.35 20.0032L19.3117 23.3332H20.6884L23.6484 20.0032L25.5167 21.6632L22.1834 25.4132C21.9467 25.6798 21.6067 25.8332 21.25 25.8332Z" fill="#3C4658"/>
<path d="M18.75 24.5837H21.25V32.0837H18.75V24.5837Z" fill="#3C4658"/>
<path d="M23.75 38.3335H16.25C15.8483 38.3335 15.47 38.1402 15.2367 37.8135C15.0017 37.4885 14.9367 37.0685 15.0633 36.6868L16.73 31.6868C16.9017 31.1768 17.3783 30.8318 17.9167 30.8318H22.0833C22.6217 30.8318 23.0983 31.1768 23.27 31.6868L24.9367 36.6868C25.0633 37.0685 24.9983 37.4868 24.7633 37.8135C24.53 38.1402 24.1517 38.3335 23.75 38.3335ZM17.985 35.8335H22.015L21.1817 33.3335H18.8183L17.985 35.8335Z" fill="#3C4658"/>
<path d="M19.9998 50.0001C17.4715 50.0001 15.4165 47.9451 15.4165 45.4168H17.9165C17.9165 46.5651 18.8515 47.5001 19.9998 47.5001C21.1482 47.5001 22.0832 46.5651 22.0832 45.4168C22.0832 44.2684 21.1482 43.3334 19.9998 43.3334C19.3098 43.3334 18.7498 42.7734 18.7498 42.0834V37.0834H21.2498V41.0068C23.1715 41.5518 24.5832 43.3234 24.5832 45.4168C24.5832 47.9451 22.5282 50.0001 19.9998 50.0001Z" fill="#3C4658"/>
<path d="M39.1667 41.6667C39.1434 41.6667 39.1234 41.6667 39.1001 41.665C38.7634 41.6467 38.4467 41.4933 38.2267 41.24L35.3101 37.9067L37.1917 36.2617L39.2634 38.6283L43.7367 34.4984L45.4334 36.3367L40.0167 41.3367C39.7834 41.5483 39.4801 41.6667 39.1667 41.6667Z" fill="white"/>
<path d="M40 49.9996C39.8267 49.9996 39.655 49.9646 39.4933 49.893C39.1067 49.7213 30 45.598 30 37.143V31.0113C30 30.4813 30.3333 30.0096 30.8333 29.833L39.5833 26.738C39.8533 26.6413 40.1467 26.6413 40.4167 26.738L49.1667 29.833C49.6667 30.0096 50 30.4813 50 31.0113V37.143C50 45.598 40.8933 49.7213 40.5067 49.893C40.345 49.9646 40.1733 49.9996 40 49.9996ZM32.5 31.8946V37.1413C32.5 42.9663 38.2367 46.428 39.9983 47.353C41.7583 46.423 47.5 42.943 47.5 37.1413V31.8946L40 29.2413L32.5 31.8946Z" fill="#3C4658"/>
<path d="M44.1667 21.667H11.25C10.56 21.667 10 21.107 10 20.417V11.2503C10 10.5603 10.56 10.0003 11.25 10.0003H44.1667C47.3833 10.0003 50 12.617 50 15.8336C50 19.0503 47.3833 21.667 44.1667 21.667ZM12.5 19.167H44.1667C46.005 19.167 47.5 17.672 47.5 15.8336C47.5 13.9953 46.005 12.5003 44.1667 12.5003H12.5V19.167Z" fill="#3C4658"/>
<path d="M42.5002 17.5002C43.4206 17.5002 44.1668 16.754 44.1668 15.8335C44.1668 14.9131 43.4206 14.1669 42.5002 14.1669C41.5797 14.1669 40.8335 14.9131 40.8335 15.8335C40.8335 16.754 41.5797 17.5002 42.5002 17.5002Z" fill="#3C4658"/>
<path d="M15 14.5834H36.6667V17.0834H15V14.5834Z" fill="#3C4658"/>
</svg>
