<svg width="60" height="60" viewBox="0 0 60 60" fill="none" xmlns="http://www.w3.org/2000/svg">
<path d="M1.67169 23.8514C7.09336 34.0247 5.54502 43.8197 8.15669 48.7231C10.7684 53.6264 19.075 62.4197 41.6284 50.4031C64.1817 38.3864 60.1117 22.7714 57.2367 17.3781C43.7834 -7.8736 -7.92998 5.83306 1.67169 23.8514Z" fill="#EFEFEF"/>
<path d="M30 48.75C40.3553 48.75 48.75 40.3553 48.75 30C48.75 19.6447 40.3553 11.25 30 11.25C19.6447 11.25 11.25 19.6447 11.25 30C11.25 40.3553 19.6447 48.75 30 48.75Z" fill="#00C658"/>
<path d="M15 30C15 20.2783 22.4 12.285 31.875 11.345C31.2583 11.2833 30.6333 11.25 30 11.25C19.645 11.25 11.25 19.645 11.25 30C11.25 40.355 19.645 48.75 30 48.75C30.6333 48.75 31.2583 48.7167 31.875 48.655C22.4 47.715 15 39.7217 15 30Z" fill="#19D86E"/>
<path d="M29.9999 21.6667C30.9204 21.6667 31.6666 20.9205 31.6666 20C31.6666 19.0796 30.9204 18.3334 29.9999 18.3334C29.0794 18.3334 28.3333 19.0796 28.3333 20C28.3333 20.9205 29.0794 21.6667 29.9999 21.6667Z" fill="#00C658"/>
<path d="M42.8997 8.10352L44.0782 6.925L46.4352 9.28203L45.2567 10.4605L42.8997 8.10352Z" fill="#ACB1BA"/>
<path d="M49.6724 14.8777L50.8509 13.6992L53.2079 16.0562L52.0294 17.2347L49.6724 14.8777Z" fill="#ACB1BA"/>
<path d="M49.3828 9.28918L51.7398 6.93216L52.9183 8.11067L50.5613 10.4677L49.3828 9.28918Z" fill="#ACB1BA"/>
<path d="M30 22.5002C28.6217 22.5002 27.5 21.3786 27.5 20.0002C27.5 18.6219 28.6217 17.5002 30 17.5002C31.3783 17.5002 32.5 18.6219 32.5 20.0002C32.5 21.3786 31.3783 22.5002 30 22.5002ZM30 19.1669C29.5417 19.1669 29.1667 19.5402 29.1667 20.0002C29.1667 20.4602 29.5417 20.8336 30 20.8336C30.4583 20.8336 30.8333 20.4602 30.8333 20.0002C30.8333 19.5402 30.4583 19.1669 30 19.1669Z" fill="white"/>
<path d="M31.2499 40.4169H28.7499V27.5002H27.0833V25.0002H29.9999C30.6899 25.0002 31.2499 25.5602 31.2499 26.2502V40.4169Z" fill="white"/>
<path d="M30 50.0002C18.9717 50.0002 10 41.0286 10 30.0002C10 18.9719 18.9717 10.0002 30 10.0002C41.0283 10.0002 50 18.9719 50 30.0002C50 41.0286 41.0283 50.0002 30 50.0002ZM30 12.5002C20.35 12.5002 12.5 20.3502 12.5 30.0002C12.5 39.6502 20.35 47.5002 30 47.5002C39.65 47.5002 47.5 39.6502 47.5 30.0002C47.5 20.3502 39.65 12.5002 30 12.5002Z" fill="#3C4658"/>
<path d="M26.25 39.1671H33.75V41.6671H26.25V39.1671Z" fill="white"/>
</svg>
