<svg width="80" height="80" viewBox="0 0 80 80" fill="none" xmlns="http://www.w3.org/2000/svg">
<path d="M70.7401 61.3844C70.7401 46.0133 78.7023 35.4578 78.7023 28.0511C78.7023 20.6444 74.4446 5.08887 40.3712 5.08887C6.29788 5.08887 1.29565 26.0155 1.29565 34.1622C1.29565 72.3111 70.7401 88.6066 70.7401 61.3844Z" fill="#EFF1F3"/>
<path d="M15 39.4446H65V46.1113H15V39.4446Z" fill="#F3F3F1"/>
<path d="M60.5555 32.7778H19.4444C18.2177 32.7778 17.2222 31.7822 17.2222 30.5556V17.2222C17.2222 15.9956 18.2177 15 19.4444 15H60.5555C61.7822 15 62.7777 15.9956 62.7777 17.2222V30.5556C62.7777 31.7822 61.7822 32.7778 60.5555 32.7778Z" fill="#00C658"/>
<path d="M19.4446 46.1111V65H60.5557V46.1111H19.4446ZM31.6668 58.3333H26.1112V52.7778H31.6668V58.3333ZM42.7779 58.3333H37.2224V52.7778H42.7779V58.3333ZM53.889 58.3333H48.3335V52.7778H53.889V58.3333Z" fill="#F3F3F1"/>
<path d="M48.3335 52.7777H53.8891V58.3333H48.3335V52.7777Z" fill="#00C658"/>
<path d="M37.2222 52.7777H42.7777V58.3333H37.2222V52.7777Z" fill="#00C658"/>
<path d="M26.1111 52.7777H31.6666V58.3333H26.1111V52.7777Z" fill="#00C658"/>
<path d="M15 39.4446H20V46.1113H15V39.4446Z" fill="#DFE0E1"/>
<path d="M22.2222 30.5556V17.2222C22.2222 15.9956 23.2177 15 24.4444 15H19.4444C18.2177 15 17.2222 15.9956 17.2222 17.2222V30.5556C17.2222 31.7822 18.2177 32.7778 19.4444 32.7778H24.4444C23.2177 32.7778 22.2222 31.7822 22.2222 30.5556Z" fill="#19D86E"/>
<path d="M19.4446 46.1111H24.4446V65H19.4446V46.1111Z" fill="#DFE0E1"/>
<path d="M60.5556 66.6668H19.4445C18.5245 66.6668 17.7778 65.9201 17.7778 65.0001V46.1112C17.7778 45.1912 18.5245 44.4446 19.4445 44.4446H60.5556C61.4756 44.4446 62.2223 45.1912 62.2223 46.1112V65.0001C62.2223 65.9201 61.4756 66.6668 60.5556 66.6668ZM21.1112 63.3335H58.8889V47.7779H21.1112V63.3335Z" fill="#3C4658"/>
<path d="M65.0002 47.7778H15.0002C14.0802 47.7778 13.3335 47.0312 13.3335 46.1112V39.4445C13.3335 38.5245 14.0802 37.7778 15.0002 37.7778H65.0002C65.9202 37.7778 66.6668 38.5245 66.6668 39.4445V46.1112C66.6668 47.0312 65.9202 47.7778 65.0002 47.7778ZM16.6668 44.4445H63.3335V41.1112H16.6668V44.4445Z" fill="#3C4658"/>
<path d="M53.8887 60H48.3332C47.4132 60 46.6665 59.2533 46.6665 58.3333V52.7778C46.6665 51.8578 47.4132 51.1111 48.3332 51.1111H53.8887C54.8087 51.1111 55.5554 51.8578 55.5554 52.7778V58.3333C55.5554 59.2533 54.8087 60 53.8887 60ZM49.9998 56.6666H52.2221V54.4444H49.9998V56.6666Z" fill="#3C4658"/>
<path d="M42.7776 60H37.2221C36.3021 60 35.5554 59.2533 35.5554 58.3333V52.7778C35.5554 51.8578 36.3021 51.1111 37.2221 51.1111H42.7776C43.6976 51.1111 44.4443 51.8578 44.4443 52.7778V58.3333C44.4443 59.2533 43.6976 60 42.7776 60ZM38.8888 56.6666H41.111V54.4444H38.8888V56.6666Z" fill="#3C4658"/>
<path d="M31.6668 60H26.1112C25.1912 60 24.4446 59.2533 24.4446 58.3333V52.7778C24.4446 51.8578 25.1912 51.1111 26.1112 51.1111H31.6668C32.5868 51.1111 33.3335 51.8578 33.3335 52.7778V58.3333C33.3335 59.2533 32.5868 60 31.6668 60ZM27.7779 56.6666H30.0001V54.4444H27.7779V56.6666Z" fill="#3C4658"/>
<path d="M60.5554 34.4446H19.4443C17.2999 34.4446 15.5554 32.7002 15.5554 30.5557V17.2224C15.5554 15.0779 17.2999 13.3335 19.4443 13.3335H60.5554C62.6999 13.3335 64.4443 15.0779 64.4443 17.2224V30.5557C64.4443 32.7002 62.6999 34.4446 60.5554 34.4446ZM19.4443 16.6668C19.1376 16.6668 18.8888 16.9157 18.8888 17.2224V30.5557C18.8888 30.8624 19.1376 31.1113 19.4443 31.1113H60.5554C60.8621 31.1113 61.111 30.8624 61.111 30.5557V17.2224C61.111 16.9157 60.8621 16.6668 60.5554 16.6668H19.4443Z" fill="#3C4658"/>
<path d="M48.8889 14.4446H52.2222V23.3335H48.8889V14.4446Z" fill="#3C4658"/>
<path d="M45.5554 20H55.5554V23.3333H45.5554V20Z" fill="#3C4658"/>
<path d="M27.7778 14.4446H31.1112V23.3335H27.7778V14.4446Z" fill="#3C4658"/>
<path d="M24.4446 20H34.4446V23.3333H24.4446V20Z" fill="#3C4658"/>
<path d="M38.3335 31.1111H41.6668V41.1111H38.3335V31.1111Z" fill="#3C4658"/>
<path d="M56.6665 31.1111H59.9998V41.1111H56.6665V31.1111Z" fill="#3C4658"/>
<path d="M20 31.1111H23.3333V41.1111H20V31.1111Z" fill="#3C4658"/>
<path d="M0.391602 1.57349L1.96295 0.00213814L5.10565 3.14483L3.5343 4.71618L0.391602 1.57349Z" fill="#ACB1BA"/>
<path d="M9.42554 10.6091L10.9969 9.03778L14.1396 12.1805L12.5682 13.7518L9.42554 10.6091Z" fill="#ACB1BA"/>
<path d="M0.000976562 12.176L3.14367 9.03333L4.71502 10.6047L1.57232 13.7474L0.000976562 12.176Z" fill="#ACB1BA"/>
<path d="M9.03638 3.14404L12.1791 0.00134621L13.7504 1.57269L10.6077 4.71539L9.03638 3.14404Z" fill="#ACB1BA"/>
<path d="M70.0157 61.1113C68.1779 61.1113 66.6824 59.6157 66.6824 57.7779C66.6824 55.9401 68.1779 54.4446 70.0157 54.4446C71.8535 54.4446 73.3491 55.9401 73.3491 57.7779C73.3491 59.6157 71.8535 61.1113 70.0157 61.1113ZM70.0157 56.6668C69.4024 56.6668 68.9046 57.1646 68.9046 57.7779C68.9046 58.3913 69.4024 58.889 70.0157 58.889C70.629 58.889 71.1268 58.3913 71.1268 57.7779C71.1268 57.1646 70.629 56.6668 70.0157 56.6668Z" fill="#ACB1BA"/>
</svg>
