<svg width="80" height="80" viewBox="0 0 80 80" fill="none" xmlns="http://www.w3.org/2000/svg">
<path d="M61.3844 70.7401C46.0133 70.7401 35.4578 78.7023 28.0511 78.7023C20.6444 78.7023 5.08887 74.4446 5.08887 40.3712C5.08887 6.29788 26.0155 1.29565 34.1622 1.29565C72.3111 1.29565 88.6066 70.7401 61.3844 70.7401Z" fill="#EFF1F3"/>
<path d="M13.27 7.37964L16.4127 4.23694L17.9841 5.80829L14.8414 8.95099L13.27 7.37964Z" fill="#ACB1BA"/>
<path d="M4.2345 16.4136L7.37719 13.2709L8.94854 14.8422L5.80585 17.9849L4.2345 16.4136Z" fill="#ACB1BA"/>
<path d="M4.62891 5.80737L6.20026 4.23602L9.34295 7.37872L7.7716 8.95007L4.62891 5.80737Z" fill="#ACB1BA"/>
<path d="M60.5556 65H43.8889C41.4333 65 39.4445 63.0111 39.4445 60.5556V48.3334C39.4445 45.8778 41.4333 43.8889 43.8889 43.8889H60.5556C63.0111 43.8889 65 45.8778 65 48.3334V60.5556C65 63.0111 63.0111 65 60.5556 65Z" fill="#00C658"/>
<path d="M29.4445 65H17.2223V54.4445C17.2223 51.0689 19.9578 48.3334 23.3334 48.3334C26.709 48.3334 29.4445 51.0689 29.4445 54.4445V65Z" fill="#00C658"/>
<path d="M25.0001 27.2224H21.6668C20.4401 27.2224 19.4446 26.2268 19.4446 25.0001V21.6668C19.4446 20.4401 20.4401 19.4446 21.6668 19.4446H25.0001C26.2268 19.4446 27.2224 20.4401 27.2224 21.6668V25.0001C27.2224 26.2268 26.2268 27.2224 25.0001 27.2224Z" fill="#F3F3F1"/>
<path d="M56.1111 28.3335H48.3333C47.1066 28.3335 46.1111 27.3379 46.1111 26.1112V21.6668C46.1111 20.4401 47.1066 19.4446 48.3333 19.4446H56.1111C57.3377 19.4446 58.3333 20.4401 58.3333 21.6668V26.1112C58.3333 27.3379 57.3377 28.3335 56.1111 28.3335Z" fill="#F3F3F1"/>
<path d="M53.8888 32.7779H50.5555C49.3288 32.7779 48.3333 31.7824 48.3333 30.5557V28.3335H56.111V30.5557C56.111 31.7824 55.1155 32.7779 53.8888 32.7779Z" fill="#F3F3F1"/>
<path d="M24.4446 25.0001V21.6668C24.4446 20.7357 25.0201 19.9424 25.8335 19.6135C25.5757 19.509 25.2957 19.4446 25.0001 19.4446H21.6668C20.4401 19.4446 19.4446 20.4401 19.4446 21.6668V25.0001C19.4446 26.2268 20.4401 27.2224 21.6668 27.2224H25.0001C25.2957 27.2224 25.5757 27.1579 25.8335 27.0535C25.0201 26.7246 24.4446 25.9313 24.4446 25.0001Z" fill="#DFE0E1"/>
<path d="M51.1111 26.1112V21.6668C51.1111 20.4401 52.1066 19.4446 53.3333 19.4446H48.3333C47.1066 19.4446 46.1111 20.4401 46.1111 21.6668V26.1112C46.1111 27.3379 47.1066 28.3335 48.3333 28.3335H53.3333C52.1066 28.3335 51.1111 27.3379 51.1111 26.1112Z" fill="#DFE0E1"/>
<path d="M53.3333 30.5557V28.3335H48.3333V30.5557C48.3333 31.7824 49.3288 32.7779 50.5555 32.7779H53.8888C54.1844 32.7779 54.4644 32.7135 54.7221 32.609C53.9088 32.2802 53.3333 31.4868 53.3333 30.5557Z" fill="#D5DBE1"/>
<path d="M44.4445 60.5556V48.3334C44.4445 45.8778 46.4333 43.8889 48.8889 43.8889H43.8889C41.4333 43.8889 39.4445 45.8778 39.4445 48.3334V60.5556C39.4445 63.0111 41.4333 65 43.8889 65H48.8889C46.4333 65 44.4445 63.0111 44.4445 60.5556Z" fill="#19D86E"/>
<path d="M25.8334 48.88C25.069 48.5356 24.2267 48.3334 23.3334 48.3334C19.9578 48.3334 17.2223 51.0689 17.2223 54.4445V65H22.2223V54.4445C22.2223 51.9623 23.709 49.8356 25.8334 48.88Z" fill="#19D86E"/>
<path d="M60.5555 66.6666H43.8888C40.5177 66.6666 37.7777 63.9266 37.7777 60.5555V48.3333C37.7777 44.9622 40.5177 42.2222 43.8888 42.2222H60.5555C63.9266 42.2222 66.6666 44.9622 66.6666 48.3333V60.5555C66.6666 63.9266 63.9266 66.6666 60.5555 66.6666ZM43.8888 45.5555C42.3577 45.5555 41.111 46.8022 41.111 48.3333V60.5555C41.111 62.0866 42.3577 63.3333 43.8888 63.3333H60.5555C62.0866 63.3333 63.3333 62.0866 63.3333 60.5555V48.3333C63.3333 46.8022 62.0866 45.5555 60.5555 45.5555H43.8888Z" fill="#3C4658"/>
<path d="M13.3334 63.3334H33.3334V66.6667H13.3334V63.3334Z" fill="#3C4658"/>
<path d="M29.4443 66.6665H17.2221C16.3021 66.6665 15.5554 65.9198 15.5554 64.9998V54.4443C15.5554 50.1554 19.0443 46.6665 23.3332 46.6665C27.6221 46.6665 31.111 50.1554 31.111 54.4443V64.9998C31.111 65.9198 30.3643 66.6665 29.4443 66.6665ZM18.8888 63.3332H27.7776V54.4443C27.7776 51.9932 25.7843 49.9998 23.3332 49.9998C20.8821 49.9998 18.8888 51.9932 18.8888 54.4443V63.3332Z" fill="#3C4658"/>
<path d="M23.3333 57.2221C24.5606 57.2221 25.5555 56.2272 25.5555 54.9999C25.5555 53.7726 24.5606 52.7777 23.3333 52.7777C22.106 52.7777 21.1111 53.7726 21.1111 54.9999C21.1111 56.2272 22.106 57.2221 23.3333 57.2221Z" fill="#3C4658"/>
<path d="M21.6666 27.7778H25V48.3334H21.6666V27.7778Z" fill="#3C4658"/>
<path d="M24.9999 28.8889H21.6666C19.5222 28.8889 17.7777 27.1445 17.7777 25.0001V21.6667C17.7777 19.5223 19.5222 17.7778 21.6666 17.7778H24.9999C27.1444 17.7778 28.8888 19.5223 28.8888 21.6667V25.0001C28.8888 27.1445 27.1444 28.8889 24.9999 28.8889ZM21.6666 21.1112C21.3599 21.1112 21.111 21.3601 21.111 21.6667V25.0001C21.111 25.3067 21.3599 25.5556 21.6666 25.5556H24.9999C25.3066 25.5556 25.5555 25.3067 25.5555 25.0001V21.6667C25.5555 21.3601 25.3066 21.1112 24.9999 21.1112H21.6666Z" fill="#3C4658"/>
<path d="M27.7777 21.6665H46.111V24.9998H27.7777V21.6665Z" fill="#3C4658"/>
<path d="M56.1111 30H48.3334C46.1889 30 44.4445 28.2556 44.4445 26.1112V21.6667C44.4445 19.5223 46.1889 17.7778 48.3334 17.7778H56.1111C58.2556 17.7778 60 19.5223 60 21.6667V26.1112C60 28.2556 58.2556 30 56.1111 30ZM48.3334 21.1112C48.0267 21.1112 47.7778 21.3601 47.7778 21.6667V26.1112C47.7778 26.4178 48.0267 26.6667 48.3334 26.6667H56.1111C56.4178 26.6667 56.6667 26.4178 56.6667 26.1112V21.6667C56.6667 21.3601 56.4178 21.1112 56.1111 21.1112H48.3334Z" fill="#3C4658"/>
<path d="M56.6667 21.6665H66.6667V24.9998H56.6667V21.6665Z" fill="#3C4658"/>
<path d="M53.889 34.4443H50.5556C48.4112 34.4443 46.6667 32.6998 46.6667 30.5554V28.3332C46.6667 27.4132 47.4134 26.6665 48.3334 26.6665H56.1112C57.0312 26.6665 57.7779 27.4132 57.7779 28.3332V30.5554C57.7779 32.6998 56.0334 34.4443 53.889 34.4443ZM50.0001 29.9998V30.5554C50.0001 30.8621 50.249 31.111 50.5556 31.111H53.889C54.1956 31.111 54.4445 30.8621 54.4445 30.5554V29.9998H50.0001Z" fill="#3C4658"/>
<path d="M50.5555 31.1111H53.8889V37.7777H50.5555V31.1111Z" fill="#3C4658"/>
</svg>
