<svg width="12" height="14" viewBox="0 0 12 14" fill="none" xmlns="http://www.w3.org/2000/svg">
<path d="M5.69033 13.8885C5.8704 14.0372 6.1305 14.0372 6.31056 13.8885C9.21451 11.4762 10.5093 9.25824 11.0723 7.92632C11.2353 7.57476 11.361 7.20319 11.4496 6.81733C11.4753 6.703 11.4868 6.64298 11.4868 6.64298C11.5525 6.29999 11.5868 5.94558 11.5868 5.58258C11.584 2.43569 8.97442 -0.105255 5.79894 0.00335701C3.0179 0.100536 0.708471 2.26992 0.439799 5.03952C0.385493 5.59402 0.416933 6.13136 0.514112 6.64298C0.514112 6.64298 0.522687 6.703 0.551269 6.81733C0.637015 7.20319 0.765635 7.57476 0.928553 7.92632C1.49162 9.25538 2.78353 11.4762 5.69033 13.8885ZM2.60061 5.65118C2.60061 3.77619 4.12117 2.25277 5.99902 2.25277C7.87686 2.25277 9.39743 3.77334 9.39743 5.65118C9.39743 7.52902 7.874 9.04673 5.99902 9.04673C4.12403 9.04673 2.60061 7.52617 2.60061 5.65118Z" fill="#00C658"/>
</svg>
