<svg width="70" height="70" viewBox="0 0 70 70" fill="none" xmlns="http://www.w3.org/2000/svg">
<path d="M53.7114 8.10269C40.2617 8.10269 31.0256 1.13574 24.5447 1.13574C18.0639 1.13574 4.45279 4.8613 4.45279 34.6755C4.45279 64.4896 22.7636 68.8646 29.892 68.8646C63.2722 68.8666 77.5308 8.10269 53.7114 8.10269Z" fill="#EFF1F3"/>
<path d="M57.3611 17.5001C55.7531 17.5001 54.4444 16.1915 54.4444 14.5834C54.4444 12.9754 55.7531 11.6667 57.3611 11.6667C58.9692 11.6667 60.2778 12.9754 60.2778 14.5834C60.2778 16.1915 58.9692 17.5001 57.3611 17.5001ZM57.3611 13.6112C56.8244 13.6112 56.3889 14.0467 56.3889 14.5834C56.3889 15.1201 56.8244 15.5556 57.3611 15.5556C57.8978 15.5556 58.3333 15.1201 58.3333 14.5834C58.3333 14.0467 57.8978 13.6112 57.3611 13.6112Z" fill="#ACB1BA"/>
<path d="M56.875 24.3057L47.6583 28.1946L35 33.5418L22.3417 28.1946L13.125 24.3057L35 15.0696L56.875 24.3057Z" fill="#F3F3F1"/>
<path d="M56.875 32.0835L47.6583 35.9724L35 41.3196L22.3417 35.9724L13.125 32.0835L22.3417 28.1946L35 33.5418L47.6583 28.1946L56.875 32.0835Z" fill="#F3F3F1"/>
<path d="M56.875 39.8611L47.6583 43.7499L35 49.0972L22.3417 43.7499L13.125 39.8611L22.3417 35.9722L35 41.3194L47.6583 35.9722L56.875 39.8611Z" fill="#00C658"/>
<path d="M56.875 47.6389L35 56.875L13.125 47.6389L22.3417 43.75L35 49.0972L47.6583 43.75L56.875 47.6389Z" fill="#F3F3F1"/>
<path d="M41.8056 32.5694L52.2783 28.1458L50.0889 27.2222L39.6181 31.6458L41.8056 32.5694Z" fill="#D5DBE1"/>
<path d="M29.1472 34.9999L19.9306 31.1111L26.9578 28.1458L24.7722 27.2222L15.5556 31.1111L24.7722 34.9999L37.4306 40.3472L39.6181 39.4236L29.1472 34.9999Z" fill="#DFE0E1"/>
<path d="M41.4303 41.3194L51.903 36.8958L49.7136 35.9722L39.2428 40.3958L41.4303 41.3194Z" fill="#19D86E"/>
<path d="M28.7719 43.7499L19.5553 39.8611L26.5825 36.8958L24.3969 35.9722L15.1803 39.8611L24.3969 43.7499L37.0553 49.0972L39.2428 48.1736L28.7719 43.7499Z" fill="#19D86E"/>
<path d="M40.4017 48.8543L50.8744 44.4307L48.685 43.5071L38.2142 47.9307L40.4017 48.8543Z" fill="#D5DBE1"/>
<path d="M18.5267 47.396L25.5539 44.4307L23.3683 43.5071L14.1517 47.396L36.0267 56.6321L38.2142 55.7085L18.5267 47.396Z" fill="#DFE0E1"/>
<path d="M35 15.0696L56.875 24.3057L35 33.5418L13.125 24.3057L35 15.0696Z" fill="#00C658"/>
<path d="M35 35C34.8075 35 34.615 34.9611 34.4322 34.8852L12.5572 25.6491C12.0186 25.4216 11.6667 24.8908 11.6667 24.3055C11.6667 23.7202 12.0186 23.1894 12.5572 22.9619L34.4322 13.7258C34.7958 13.5722 35.2022 13.5722 35.5658 13.7258L57.4408 22.9619C57.9814 23.1894 58.3333 23.7202 58.3333 24.3055C58.3333 24.8908 57.9814 25.4216 57.4428 25.6491L35.5678 34.8852C35.385 34.9611 35.1925 35 35 35ZM16.8739 24.3055L35 31.9589L53.1261 24.3055L35 16.6522L16.8739 24.3055Z" fill="#3C4658"/>
<path d="M35 42.7778C34.8075 42.7778 34.615 42.7389 34.4322 42.663L12.5572 33.4269C12.0186 33.1994 11.6667 32.6686 11.6667 32.0833C11.6667 31.4961 12.0186 30.9672 12.5572 30.7397L21.7739 26.8508L22.9075 29.538L16.8758 32.0833L35 39.7367L53.1242 32.0833L47.0906 29.5361L48.2242 26.8489L57.4408 30.7378C57.9814 30.9672 58.3333 31.4961 58.3333 32.0833C58.3333 32.6686 57.9814 33.1994 57.4428 33.4269L35.5678 42.663C35.385 42.7389 35.1925 42.7778 35 42.7778Z" fill="#3C4658"/>
<path d="M35 50.5556C34.8075 50.5556 34.615 50.5167 34.4322 50.4409L12.5572 41.2048C12.0186 40.9773 11.6667 40.4464 11.6667 39.8612C11.6667 39.2739 12.0186 38.745 12.5572 38.5175L21.7739 34.6287L22.9075 37.3159L16.8758 39.8612L35 47.5145L53.1242 39.8612L47.0906 37.3139L48.2242 34.6267L57.4408 38.5156C57.9814 38.745 58.3333 39.2739 58.3333 39.8612C58.3333 40.4464 57.9814 40.9773 57.4428 41.2048L35.5678 50.4409C35.385 50.5167 35.1925 50.5556 35 50.5556Z" fill="#3C4658"/>
<path d="M35 58.3334C34.8075 58.3334 34.615 58.2946 34.4322 58.2187L12.5572 48.9826C12.0186 48.7551 11.6667 48.2243 11.6667 47.639C11.6667 47.0518 12.0186 46.5229 12.5572 46.2954L21.7739 42.4065L22.9075 45.0937L16.8758 47.639L35 55.2923L53.1242 47.639L47.0906 45.0918L48.2242 42.4045L57.4408 46.2934C57.9814 46.5229 58.3333 47.0518 58.3333 47.639C58.3333 48.2243 57.9814 48.7551 57.4428 48.9826L35.5678 58.2187C35.385 58.2946 35.1925 58.3334 35 58.3334Z" fill="#3C4658"/>
</svg>
