<svg width="70" height="70" viewBox="0 0 70 70" fill="none" xmlns="http://www.w3.org/2000/svg">
<path d="M61.8975 53.7115C61.8975 40.2618 68.8645 31.0257 68.8645 24.5448C68.8645 18.064 65.1389 4.45288 35.3248 4.45288C5.5106 4.45288 1.13365 22.7637 1.13365 29.892C1.13365 63.2723 61.8975 77.5309 61.8975 53.7115Z" fill="#EFF1F3"/>
<path d="M61.25 36.9444C59.642 36.9444 58.3333 35.6358 58.3333 34.0278C58.3333 32.4197 59.642 31.1111 61.25 31.1111C62.8581 31.1111 64.1667 32.4197 64.1667 34.0278C64.1667 35.6358 62.8581 36.9444 61.25 36.9444ZM61.25 33.0555C60.7134 33.0555 60.2778 33.493 60.2778 34.0278C60.2778 34.5625 60.7134 35 61.25 35C61.7867 35 62.2222 34.5625 62.2222 34.0278C62.2222 33.493 61.7867 33.0555 61.25 33.0555Z" fill="#ACB1BA"/>
<path d="M42.2917 56.875H17.014V17.0139C17.014 14.8653 18.7542 13.125 20.9029 13.125H52.014C49.3287 13.125 47.1529 15.3008 47.1529 17.9861V52.0139C47.1529 54.6992 44.977 56.875 42.2917 56.875Z" fill="#F3F3F1"/>
<path d="M34.1231 28.6747L35.4862 35.4861L28.6748 34.1231L13.689 19.1392C12.9365 18.3867 12.9365 17.1675 13.689 16.415L16.4131 13.6889C17.1656 12.9364 18.3848 12.9364 19.1373 13.6889L34.1231 28.6747Z" fill="#00C658"/>
<path d="M47.1528 20.9028H56.8751V17.9861C56.8751 15.3008 54.6992 13.125 52.0139 13.125C49.3287 13.125 47.1528 15.3008 47.1528 17.9861V20.9028Z" fill="#00C658"/>
<path d="M42.2917 56.8751H17.0139C14.8653 56.8751 13.125 55.1348 13.125 52.9862V47.1528H37.4306V52.0139C37.4306 54.6992 39.6064 56.8751 42.2917 56.8751Z" fill="#00C658"/>
<path d="M33.0498 34.1231L18.064 19.1392C17.3115 18.3867 17.3115 17.1675 18.064 16.415L19.9637 14.5153L19.1392 13.6889C18.3867 12.9364 17.1676 12.9364 16.4151 13.6889L13.689 16.4131C12.9365 17.1656 12.9365 18.3847 13.689 19.1372L28.6748 34.1231L35.4862 35.4861L35.3034 34.5742L33.0498 34.1231Z" fill="#19D86E"/>
<path d="M54.2014 13.6675C53.5403 13.3331 52.8053 13.125 52.0139 13.125C49.3286 13.125 47.1528 15.3008 47.1528 17.9861V20.9028H51.5278V17.9861C51.5278 16.0922 52.6225 14.4706 54.2014 13.6675Z" fill="#19D86E"/>
<path d="M17.5 52.9862V47.1528H13.125V52.9862C13.125 55.1348 14.8653 56.8751 17.0139 56.8751H21.3889C19.2403 56.8751 17.5 55.1348 17.5 52.9862Z" fill="#19D86E"/>
<path d="M17.014 21.875V47.1528H21.389V27.2222L17.014 21.875Z" fill="#DFE0E1"/>
<path d="M35.4861 36.9445C35.3908 36.9445 35.2956 36.9348 35.2003 36.9154L28.3889 35.5543C28.1069 35.4979 27.8464 35.3579 27.6442 35.1557L12.6583 20.1698C11.3381 18.8495 11.3381 16.7029 12.6583 15.3826L15.3825 12.6584C16.7008 11.3401 18.8475 11.3343 20.1678 12.6584L35.1536 27.6443C35.3578 27.8465 35.4958 28.107 35.5522 28.389L36.9153 35.2004C37.0106 35.6787 36.8608 36.1726 36.5167 36.5187C36.2406 36.7929 35.8692 36.9445 35.4861 36.9445ZM29.3942 32.7795L33.6272 33.6273L32.7794 29.3943L18.1086 14.7195C17.9258 14.5368 17.6283 14.5368 17.4456 14.7195L14.7195 17.4456C14.5367 17.6284 14.5367 17.9259 14.7195 18.1087L29.3942 32.7795Z" fill="#3C4658"/>
<path d="M15.5555 30.7029H18.4722V47.2307H15.5555V30.7029Z" fill="#3C4658"/>
<path d="M26.8138 11.6667H52.0138V14.5834H26.8138V11.6667Z" fill="#3C4658"/>
<path d="M56.875 22.3612H47.1528C46.3478 22.3612 45.6945 21.7079 45.6945 20.9029V17.9862C45.6945 14.5017 48.5295 11.6667 52.0139 11.6667C55.4984 11.6667 58.3334 14.5017 58.3334 17.9862V20.9029C58.3334 21.7079 57.68 22.3612 56.875 22.3612ZM48.6112 19.4445H55.4167V17.9862C55.4167 16.1098 53.8903 14.5834 52.0139 14.5834C50.1375 14.5834 48.6112 16.1098 48.6112 17.9862V19.4445Z" fill="#3C4658"/>
<path d="M42.7778 58.3334H17.0139C14.0642 58.3334 11.6667 55.9359 11.6667 52.9862V47.2345C11.6667 46.4295 12.3201 45.7762 13.1251 45.7762H37.4306C38.2356 45.7762 38.8889 46.4295 38.8889 47.2345V52.0139C38.8889 53.8903 40.4153 55.4167 42.2917 55.4167C44.1681 55.4167 45.6945 53.8903 45.6945 52.0139V20.9028H48.6112V52.0139C48.6112 55.3351 46.0367 58.0651 42.7778 58.3139V58.3334ZM14.5834 48.6928V52.9862C14.5834 54.3259 15.6742 55.4167 17.0139 55.4167H36.9678C36.3378 54.4328 35.9723 53.2662 35.9723 52.0139V48.6928H14.5834Z" fill="#3C4658"/>
<path d="M3.88896 55.4167H66.1112V58.3334H3.88896V55.4167Z" fill="#3C4658"/>
</svg>
