<svg width="60" height="60" viewBox="0 0 60 60" fill="none" xmlns="http://www.w3.org/2000/svg">
<path d="M13.9616 6.94512C25.4899 6.94512 33.4066 0.97345 38.9616 0.97345C44.5166 0.97345 56.1833 4.16678 56.1833 29.7218C56.1833 55.2768 40.4883 59.0268 34.3783 59.0268C5.76658 59.0285 -6.45509 6.94512 13.9616 6.94512Z" fill="#EFF1F3"/>
<path d="M52.0132 12.4724L53.1917 11.2939L55.5499 13.6521L54.3714 14.8306L52.0132 12.4724Z" fill="#ACB1BA"/>
<path d="M45.2388 5.69897L46.4173 4.52046L48.7743 6.87749L47.5958 8.056L45.2388 5.69897Z" fill="#ACB1BA"/>
<path d="M52.3088 6.87848L54.6659 4.52146L55.8444 5.69997L53.4873 8.05699L52.3088 6.87848Z" fill="#ACB1BA"/>
<path d="M41.9785 31.25V26.25C41.9785 25.7783 41.9418 25.315 41.8868 24.8583L42.0002 24.9833C41.4968 20.245 38.1535 16.4017 33.6985 15.0883C33.6185 15.0633 33.5402 15.0383 33.4585 15.015C33.2752 14.965 33.1035 14.8917 32.9168 14.85L32.9585 14.8967C32.9452 14.8933 32.9318 14.89 32.9168 14.8867V14.85V14.5833C32.9168 12.7417 31.4252 11.25 29.5835 11.25H27.0835C25.2418 11.25 23.7502 12.7417 23.7502 14.5833V14.8617C18.5018 16.0133 14.5835 20.6683 14.5835 26.25V31.25H41.9785Z" fill="#F3F3F1"/>
<path d="M46.4534 40.3517C46.5184 39.9684 46.5684 39.58 46.5684 39.1784C46.5684 38.7767 46.5184 38.3884 46.4534 38.005L48.4284 36.5384C48.75 36.2984 48.845 35.8467 48.6467 35.49L47.415 33.2834C47.2167 32.9284 46.79 32.7867 46.4284 32.955L44.1967 33.995C43.6184 33.495 42.9667 33.095 42.245 32.8234L42.0017 30.3134C41.9617 29.905 41.63 29.595 41.2334 29.595H38.7684C38.3717 29.595 38.0384 29.9067 38 30.3134L37.7567 32.8234C37.035 33.095 36.3834 33.495 35.805 33.995L33.5734 32.9534C33.2117 32.785 32.785 32.9267 32.5867 33.2817L31.355 35.4884C31.1567 35.8434 31.2517 36.2967 31.5734 36.5367L33.5484 38.0034C33.4834 38.3867 33.4334 38.775 33.4334 39.1767C33.4334 39.5784 33.4834 39.9667 33.5484 40.35L31.5734 41.8167C31.2517 42.0567 31.1567 42.5084 31.355 42.865L32.5867 45.0717C32.785 45.4267 33.2117 45.5684 33.5734 45.4L35.805 44.36C36.3834 44.86 37.035 45.26 37.7567 45.5317L38 48.0417C38.04 48.45 38.3717 48.76 38.7684 48.76H41.2334C41.63 48.76 41.9634 48.4484 42.0017 48.0417L42.245 45.5317C42.9667 45.26 43.6184 44.86 44.1967 44.36L46.4284 45.4C46.79 45.5684 47.2167 45.4267 47.415 45.0717L48.6467 42.865C48.845 42.51 48.75 42.0567 48.4284 41.8167L46.4534 40.3517Z" fill="#00C658"/>
<path d="M40.0002 42.0952C41.611 42.0952 42.9168 40.7894 42.9168 39.1786C42.9168 37.5677 41.611 36.2619 40.0002 36.2619C38.3893 36.2619 37.0835 37.5677 37.0835 39.1786C37.0835 40.7894 38.3893 42.0952 40.0002 42.0952Z" fill="#F3F3F1"/>
<path d="M45.3167 34.1664C45.3167 35.783 44 37.083 42.4 37.083H14.1667C12.55 37.083 11.25 35.783 11.25 34.1664C11.25 32.5497 12.55 31.2497 14.1667 31.2497H42.4C44 31.2497 45.3167 32.5497 45.3167 34.1664Z" fill="#00C658"/>
<path d="M15 34.1664C15 32.5497 16.3 31.2497 17.9167 31.2497H14.1667C12.55 31.2497 11.25 32.5497 11.25 34.1664C11.25 35.783 12.55 37.083 14.1667 37.083H17.9167C16.3 37.083 15 35.783 15 34.1664Z" fill="#19D86E"/>
<path d="M27.5002 14.8617V14.5833C27.5002 12.9567 28.6668 11.6067 30.2085 11.3133C30.0052 11.275 29.7968 11.25 29.5835 11.25H27.0835C25.2418 11.25 23.7502 12.7417 23.7502 14.5833V14.8617C18.5018 16.0133 14.5835 20.6683 14.5835 26.25V31.25H18.3335V26.25C18.3335 20.6683 22.2518 16.0133 27.5002 14.8617Z" fill="#DFE0E1"/>
<path d="M35.3216 41.8183L37.2966 40.3517C37.2316 39.9684 37.1816 39.58 37.1816 39.1784C37.1816 38.7767 37.2316 38.3884 37.2966 38.005L35.3216 36.5384C35 36.2984 34.905 35.8467 35.1033 35.49L36.03 33.8317C35.9566 33.89 35.875 33.935 35.805 33.9967L33.5733 32.955C33.2116 32.7867 32.785 32.9284 32.5866 33.2834L31.3533 35.49C31.155 35.845 31.25 36.2984 31.5716 36.5384L33.5466 38.005C33.4816 38.3884 33.4316 38.7767 33.4316 39.1784C33.4316 39.58 33.4816 39.9684 33.5466 40.3517L31.5716 41.8183C31.25 42.0583 31.155 42.51 31.3533 42.8667L32.5866 45.0733C32.785 45.4283 33.2116 45.57 33.5733 45.4017L35.805 44.3617C35.875 44.4234 35.9583 44.4683 36.03 44.5267L35.1033 42.8684C34.905 42.5117 35 42.0583 35.3216 41.8183Z" fill="#19D86E"/>
<path d="M40.0002 42.0952C40.7185 42.0952 41.3668 41.8252 41.8752 41.3952C41.2435 40.8602 40.8335 40.0719 40.8335 39.1786C40.8335 38.2852 41.2435 37.4969 41.8752 36.9619C41.3668 36.5319 40.7185 36.2619 40.0002 36.2619C38.3902 36.2619 37.0835 37.5686 37.0835 39.1786C37.0835 40.7886 38.3902 42.0952 40.0002 42.0952Z" fill="#DFE0E1"/>
<path d="M41.2316 50.0004H38.7666C37.7233 50.0004 36.8566 49.2071 36.7533 48.1554L36.5799 46.3704C36.2566 46.2054 35.9416 46.0171 35.6399 45.8054L34.0999 46.5254C33.1333 46.9737 32.0149 46.6071 31.4949 45.6737L30.2616 43.4654C29.7583 42.5671 29.9999 41.4221 30.8233 40.8071L32.2099 39.7771C32.1916 39.5654 32.1816 39.3671 32.1816 39.1687C32.1816 38.9704 32.1916 38.7721 32.2099 38.5604L30.8266 37.5304C29.9999 36.9187 29.7566 35.7737 30.2633 34.8704L31.4933 32.6654C32.0149 31.7304 33.1333 31.3704 34.0983 31.8104L35.6416 32.5321C35.9449 32.3204 36.2583 32.1321 36.5816 31.9671L36.7549 30.1854C36.8583 29.1271 37.7249 28.3337 38.7683 28.3337H41.2333C42.2766 28.3337 43.1433 29.1271 43.2466 30.1787L43.4199 31.9637C43.7449 32.1287 44.0599 32.3171 44.3616 32.5271L45.9 31.8087C46.8683 31.3604 47.9849 31.7271 48.5049 32.6604L49.7383 34.8687C50.2433 35.7704 49.9999 36.9154 49.1733 37.5287L47.7899 38.5571C47.8083 38.7687 47.8183 38.9671 47.8183 39.1654C47.8183 39.3637 47.8083 39.5621 47.7899 39.7737L49.1733 40.8004C49.9999 41.4187 50.2416 42.5637 49.7366 43.4637L48.5066 45.6687C47.9849 46.6037 46.865 46.9637 45.9016 46.5237L44.3583 45.8021C44.0549 46.0137 43.7416 46.2021 43.4183 46.3671L43.2449 48.1487C43.1416 49.2071 42.2749 50.0004 41.2316 50.0004ZM39.2016 47.5004H40.7966L40.9999 45.4004C41.0449 44.9271 41.3566 44.5204 41.8016 44.3504C42.3649 44.1387 42.8949 43.8204 43.3766 43.4037C43.7483 43.0821 44.2749 43.0104 44.7233 43.2171L46.5383 44.0654L47.3683 42.5787L45.7066 41.3454C45.3283 41.0637 45.1399 40.5954 45.2199 40.1304C45.2733 39.8171 45.3166 39.4971 45.3166 39.1671C45.3166 38.8371 45.2749 38.5171 45.2199 38.2037C45.1399 37.7404 45.3283 37.2704 45.7066 36.9904L47.3666 35.7554L46.5383 34.2687L44.7233 35.1171C44.2749 35.3237 43.7466 35.2537 43.3749 34.9287C42.8966 34.5137 42.3683 34.1971 41.8016 33.9837C41.3549 33.8137 41.0449 33.4071 40.9999 32.9337L40.7966 30.8337H39.2016L38.9983 32.9337C38.9533 33.4071 38.6416 33.8137 38.1966 33.9837C37.6333 34.1954 37.1033 34.5137 36.6216 34.9304C36.2499 35.2504 35.7233 35.3237 35.2749 35.1171L33.4599 34.2687L32.6316 35.7554L34.2916 36.9904C34.6699 37.2704 34.8583 37.7387 34.7783 38.2037C34.7249 38.5171 34.6816 38.8371 34.6816 39.1671C34.6816 39.4971 34.7233 39.8171 34.7783 40.1304C34.8583 40.5937 34.6699 41.0637 34.2916 41.3454L32.6299 42.5787L33.4599 44.0654L35.2749 43.2171C35.7233 43.0104 36.2499 43.0821 36.6216 43.4037C37.1033 43.8204 37.6333 44.1387 38.1966 44.3504C38.6433 44.5204 38.9533 44.9271 38.9983 45.4004L39.2016 47.5004Z" fill="#3C4658"/>
<path d="M25.4167 38.3333H14.1667C11.8683 38.3333 10 36.465 10 34.1667C10 31.8683 11.8683 30 14.1667 30H27.0833V32.5H14.1667C13.2467 32.5 12.5 33.2467 12.5 34.1667C12.5 35.0867 13.2467 35.8333 14.1667 35.8333H25.4167V38.3333Z" fill="#3C4658"/>
<path d="M34.1667 20.417H31.6667V14.5836C31.6667 13.4353 30.7317 12.5003 29.5833 12.5003H27.0833C25.935 12.5003 25 13.4353 25 14.5836V20.417H22.5V14.5836C22.5 12.0553 24.555 10.0003 27.0833 10.0003H29.5833C32.1117 10.0003 34.1667 12.0553 34.1667 14.5836V20.417Z" fill="#3C4658"/>
<path d="M40.6668 24.4285C39.9602 20.3185 36.7402 16.9601 32.6501 16.0701L33.1801 13.6285C38.2535 14.7301 42.2518 18.9001 43.1302 24.0051L40.6668 24.4285Z" fill="#3C4658"/>
<path d="M15.8333 31.2498H13.3333V26.2498C13.3333 20.2248 17.6033 14.9165 23.4833 13.6298L24.0166 16.0715C19.2749 17.1098 15.8333 21.3898 15.8333 26.2498V31.2498Z" fill="#3C4658"/>
<path d="M39.9999 43.333C37.7016 43.333 35.8333 41.4647 35.8333 39.1664C35.8333 36.868 37.7016 34.9997 39.9999 34.9997C42.2983 34.9997 44.1666 36.868 44.1666 39.1664C44.1666 41.4647 42.2983 43.333 39.9999 43.333ZM39.9999 37.4997C39.0799 37.4997 38.3333 38.2464 38.3333 39.1664C38.3333 40.0864 39.0799 40.833 39.9999 40.833C40.9199 40.833 41.6666 40.0864 41.6666 39.1664C41.6666 38.2464 40.9199 37.4997 39.9999 37.4997Z" fill="#3C4658"/>
</svg>
