<svg width="24" height="24" viewBox="0 0 24 24" fill="none" xmlns="http://www.w3.org/2000/svg">
<path d="M6.63203 10.0918C6.39885 10.0952 6.24941 10.1185 6.16113 10.1413V13.2309C6.2492 13.2535 6.39249 13.2561 6.52194 13.2587C7.47532 13.2841 8.10838 12.7525 8.10838 11.6005C8.11523 10.5986 7.53897 10.078 6.63203 10.0918Z" fill="white"/>
<path d="M14.6391 21.9278C14.6705 21.9295 14.7023 21.9324 14.7345 21.9324H22.0006C22.8503 21.9324 23.5419 21.2408 23.5419 20.391V3.54716C23.5419 2.69749 22.8503 2.00587 22.0006 2.00587H14.7345C14.7025 2.00587 14.6705 2.00901 14.6391 2.01048V0L0.457031 1.89264V22.0583L14.6391 24V21.9278ZM22.0006 21.052H14.7345C14.702 21.052 14.6705 21.0469 14.6391 21.0422V14.4334C16.1531 14.1717 18.2555 13.9737 20.074 14.4009L20.2892 14.8183C21.1573 16.4596 22.0844 16.4488 22.4426 16.368C22.5248 16.3495 22.5691 16.3288 22.5691 16.3288L22.6173 16.3032C22.6336 16.2929 22.6463 16.2798 22.6611 16.2686V20.3914C22.6611 20.7555 22.3648 21.052 22.0006 21.052ZM15.2553 13.6501C16.3932 12.2623 17.3126 10.9668 17.9048 10.0894L17.907 10.0943L17.9134 10.0844C18.3783 11.0644 19.1447 12.5803 19.6723 13.615L19.6706 13.6146L19.6887 13.6493C18.1882 13.3929 16.5771 13.4865 15.2519 13.6697L15.2713 13.6471L15.2553 13.6501ZM17.9319 7.17464C17.9775 7.09423 18.0442 7.07295 18.1637 7.07821C18.1659 7.07841 18.4033 7.09399 18.4919 7.2566C18.5456 7.35344 18.6235 7.66059 18.2046 8.40962H18.2041C18.2041 8.40962 18.15 8.49974 18.0481 8.66239C17.8132 7.8378 17.8287 7.35629 17.9319 7.17464ZM20.962 14.6712C21.3925 14.8368 21.7791 15.0409 22.1175 15.2821C22.2147 15.4201 22.3046 15.6188 22.2883 15.7126C22.2874 15.7171 22.2866 15.7216 22.284 15.7261C22.1451 15.7517 21.5924 15.7689 20.962 14.6712ZM14.7345 2.88677H22.0006C22.3648 2.88677 22.6611 3.1832 22.6611 3.54732V14.9077C22.6405 14.8782 22.6227 14.854 22.6121 14.8409L22.5841 14.8047L22.5476 14.7776C21.9838 14.366 21.3043 14.0489 20.5259 13.8345C19.971 12.7508 18.8217 10.4921 18.3385 9.43429C18.6183 9.00338 18.7686 8.75221 18.7755 8.74071C19.2113 7.96371 19.3066 7.35715 19.0656 6.92926C18.8471 6.54198 18.4119 6.42565 18.1896 6.41827C17.83 6.40192 17.5234 6.55568 17.357 6.84852C17.1032 7.29566 17.1557 8.0789 17.5144 9.17496C17.5303 9.22561 17.5559 9.29052 17.5896 9.37223C17.0151 10.2412 15.9727 11.7443 14.6389 13.3587V2.89647C14.6705 2.89182 14.7018 2.88677 14.7345 2.88677ZM4.08961 11.8637C3.75428 12.1963 3.26135 12.3415 2.69238 12.3363C2.56725 12.335 2.45414 12.3273 2.36676 12.3131V13.9318L1.43538 13.906V9.48661C1.72309 9.42671 2.13022 9.37696 2.7113 9.36285C3.30506 9.34834 3.73511 9.4608 4.0251 9.70035C4.30474 9.92783 4.4934 10.3103 4.4934 10.764C4.4934 11.2183 4.34988 11.6034 4.08961 11.8637ZM8.46221 13.5256C7.95917 13.936 7.20305 14.1149 6.29565 14.0896C5.76109 14.0743 5.38608 14.0294 5.13332 13.9876V9.40114C5.50649 9.33007 5.99726 9.28338 6.52109 9.27062C7.40492 9.24901 7.98714 9.39943 8.44855 9.74108C8.94955 10.1072 9.26747 10.7033 9.26747 11.5655C9.26747 12.5001 8.92818 13.139 8.46221 13.5256ZM9.99942 9.223L13.1326 9.14818V10.0903L11.1397 10.1192V11.2565L13.0002 11.2519V12.185L11.1397 12.1721V14.1739L9.99909 14.1425V9.22304H9.99942V9.223Z" fill="white"/>
<path d="M2.76189 10.1374C2.56739 10.1404 2.43602 10.1624 2.36707 10.1838V11.5203C2.4478 11.5406 2.54802 11.5474 2.6865 11.5474C3.19826 11.5478 3.51679 11.2686 3.51679 10.7994C3.51683 10.3773 3.24258 10.1296 2.76189 10.1374Z" fill="white"/>
</svg>
