<svg width="10" height="14" viewBox="0 0 10 14" fill="none" xmlns="http://www.w3.org/2000/svg">
<path d="M6.66667 0H3.33333C1.4925 0 0 1.56712 0 3.5V10.5C0 12.4329 1.4925 14 3.33333 14H6.66667C8.5075 14 10 12.4329 10 10.5V3.5C10 1.56712 8.5075 0 6.66667 0ZM5 13.1521C4.52528 13.1521 4.14083 12.7487 4.14083 12.25C4.14083 11.7512 4.52583 11.3479 5 11.3479C5.47417 11.3479 5.85917 11.7512 5.85917 12.25C5.85917 12.7487 5.47472 13.1521 5 13.1521ZM8.33333 10.5H1.66667V3.5C1.66667 2.53633 2.41444 1.75 3.33333 1.75H6.66667C7.58444 1.75 8.33333 2.53604 8.33333 3.5V10.5Z" fill="#00C658"/>
</svg>
