<svg width="60" height="60" viewBox="0 0 60 60" fill="none" xmlns="http://www.w3.org/2000/svg">
<path d="M58.1734 33.9251C51.8701 24.2734 52.5401 14.3801 49.5018 9.72842C46.4634 5.07675 37.4084 -2.94325 16.0134 11.0317C-5.38158 25.0068 0.0600896 40.1984 3.40342 45.3134C19.0501 69.2667 69.3384 51.0184 58.1734 33.9251Z" fill="#EFF1F3"/>
<path d="M3.27832 7.91699C1.89999 7.91699 0.77832 6.79532 0.77832 5.41699C0.77832 4.03866 1.89999 2.91699 3.27832 2.91699C4.65665 2.91699 5.77832 4.03866 5.77832 5.41699C5.77832 6.79532 4.65665 7.91699 3.27832 7.91699ZM3.27832 4.58366C2.81832 4.58366 2.44499 4.95699 2.44499 5.41699C2.44499 5.87699 2.81832 6.25032 3.27832 6.25032C3.73832 6.25032 4.11165 5.87699 4.11165 5.41699C4.11165 4.95699 3.73665 4.58366 3.27832 4.58366Z" fill="#ACB1BA"/>
<path d="M39.1668 35.8334H14.1668C12.3335 35.8334 10.8335 34.3334 10.8335 32.5001V14.1668C10.8335 12.3334 12.3335 10.8334 14.1668 10.8334H39.1668C41.0002 10.8334 42.5002 12.3334 42.5002 14.1668V17.5001V32.5001C42.5002 34.3418 41.0085 35.8334 39.1668 35.8334Z" fill="#F3F3F1"/>
<path d="M44.5149 26.2497H34.7849C32.6015 26.2497 30.8315 24.4797 30.8315 22.2963V21.868C30.8315 19.6847 32.6015 17.9147 34.7849 17.9147H44.5149C45.2432 17.9147 45.8332 18.5047 45.8332 19.233V24.9313C45.8332 25.6597 45.2432 26.2497 44.5149 26.2497Z" fill="#00C658"/>
<path d="M48.3468 43.1134L43.1134 48.3468C42.5801 48.8801 41.7151 48.8851 41.1768 48.3568L33.3301 40.6684C33.0651 40.4084 32.9151 40.0534 32.9168 39.6818L32.9318 33.6184C32.9334 33.2401 33.2401 32.9318 33.6184 32.9318L39.6818 32.9168C40.0534 32.9151 40.4084 33.0651 40.6684 33.3301L48.3568 41.1768C48.8851 41.7168 48.8801 42.5801 48.3468 43.1134Z" fill="#00C658"/>
<path d="M43.8168 47.6502L43.1168 48.3502C42.5834 48.8835 41.7167 48.8835 41.1834 48.3502L33.3334 40.6669C33.0667 40.4169 32.9167 40.0502 32.9167 39.6835L32.9334 33.6169C32.9334 33.2335 33.2334 32.9335 33.6167 32.9335L39.6834 32.9169C39.7001 32.9169 39.7334 32.9169 39.7501 32.9335H36.9501C36.5667 32.9335 36.2667 33.2335 36.2667 33.6169L36.2501 39.6835C36.2501 40.0502 36.4001 40.4169 36.6667 40.6669L43.8168 47.6502Z" fill="#19D86E"/>
<path d="M17.9167 35.8334H14.5833C12.75 35.8334 11.25 34.3334 11.25 32.5001V14.1668C11.25 12.3334 12.75 10.8334 14.5833 10.8334H17.9167C16.0833 10.8334 14.5833 12.3334 14.5833 14.1668V32.5001C14.5833 34.3334 16.0833 35.8334 17.9167 35.8334Z" fill="#D5DBE1"/>
<path d="M38.5333 26.2502H35.2C33.0167 26.2502 31.25 24.4835 31.25 22.3002V21.8669C31.25 19.6835 33.0167 17.9169 35.2 17.9169H38.5333C36.35 17.9169 34.5833 19.6835 34.5833 21.8669V22.3002C34.5833 24.4835 36.35 26.2502 38.5333 26.2502Z" fill="#19D86E"/>
<path d="M27.0833 36.667H14.495C12.0167 36.667 10 34.6603 10 32.1936V14.472C10 12.007 12.0167 10.0003 14.495 10.0003H38.8367C41.3167 10.0003 43.3333 12.007 43.3333 14.472V17.2786H40.8333V14.472C40.8333 13.3853 39.9383 12.5003 38.8383 12.5003H14.495C13.395 12.5003 12.5 13.3853 12.5 14.472V32.1936C12.5 33.2803 13.395 34.167 14.495 34.167H27.0833V36.667Z" fill="#3C4658"/>
<path d="M44.1367 27.4996H35.0917C32.2833 27.4996 30 25.2163 30 22.4079V21.7563C30 18.9496 32.2833 16.6663 35.0917 16.6663H44.1367C45.5317 16.6663 46.6667 17.8013 46.6667 19.1963V24.9696C46.6667 26.3646 45.5317 27.4996 44.1367 27.4996ZM35.0917 19.1663C33.6633 19.1663 32.5 20.3279 32.5 21.7579V22.4096C32.5 23.8379 33.6617 25.0013 35.0917 25.0013H44.1367C44.1533 25.0013 44.1667 24.9879 44.1667 24.9713V19.1979L35.0917 19.1663Z" fill="#3C4658"/>
<path d="M35.8332 23.7496C36.7536 23.7496 37.4998 23.0034 37.4998 22.0829C37.4998 21.1625 36.7536 20.4163 35.8332 20.4163C34.9127 20.4163 34.1665 21.1625 34.1665 22.0829C34.1665 23.0034 34.9127 23.7496 35.8332 23.7496Z" fill="#3C4658"/>
<path d="M42.1401 49.9963C41.4751 49.9963 40.8101 49.7479 40.3018 49.2479L32.4551 41.5629C31.9518 41.0679 31.6651 40.3829 31.6668 39.6779L31.6818 33.6146C31.6834 32.5479 32.5518 31.6813 33.6184 31.6813L39.6784 31.6663C40.3618 31.6846 41.0668 31.9513 41.5618 32.4563L49.2501 40.3013C50.2534 41.3246 50.2451 42.9829 49.2301 43.9979L43.9984 49.2313C43.4884 49.7413 42.8134 49.9963 42.1401 49.9963ZM34.1801 34.1829L34.1668 39.6846L42.0518 47.4629C42.1018 47.5113 42.1834 47.5096 42.2301 47.4629L47.4618 42.2296C47.5101 42.1813 47.5118 42.1013 47.4634 42.0529L39.7751 34.2063L34.1801 34.1829Z" fill="#3C4658"/>
<path d="M37.0283 38.1151C37.6285 38.1151 38.115 37.6286 38.115 37.0284C38.115 36.4283 37.6285 35.9418 37.0283 35.9418C36.4282 35.9418 35.9417 36.4283 35.9417 37.0284C35.9417 37.6286 36.4282 38.1151 37.0283 38.1151Z" fill="#3C4658"/>
</svg>
