<svg width="80" height="80" viewBox="0 0 80 80" fill="none" xmlns="http://www.w3.org/2000/svg">
<path d="M70.7401 18.6154C70.7401 33.9866 78.7023 44.5421 78.7023 51.9488C78.7023 59.3554 74.4446 74.911 40.3712 74.911C6.29788 74.911 1.29565 53.9843 1.29565 45.8377C1.29565 7.68878 70.7401 -8.60678 70.7401 18.6154Z" fill="#EFF1F3"/>
<path d="M9.46338 6.2002L11.0347 4.62885L14.1774 7.77154L12.6061 9.34289L9.46338 6.2002Z" fill="#ACB1BA"/>
<path d="M8.67896 16.4138L11.8217 13.2711L13.393 14.8425L10.2503 17.9852L8.67896 16.4138Z" fill="#ACB1BA"/>
<path d="M17.7144 7.38184L20.8571 4.23914L22.4284 5.81049L19.2857 8.95318L17.7144 7.38184Z" fill="#ACB1BA"/>
<path d="M26.1111 33.8889V19.4444C26.1111 17 28.1111 15 30.5555 15H49.4444C51.9 15 53.8889 16.9889 53.8889 19.4444V33.8889H26.1111Z" fill="#F3F3F1"/>
<path d="M17.2222 51.6667H62.7778C64.0044 51.6667 65 50.6711 65 49.4444V39.4444C65 36.9889 63.0111 35 60.5556 35H19.4444C16.9889 35 15 36.9889 15 39.4444V49.4444C15 50.6711 15.9956 51.6667 17.2222 51.6667Z" fill="#00C658"/>
<path d="M20 49.4444V39.4444C20 36.9889 21.9889 35 24.4444 35H19.4444C16.9889 35 15 36.9889 15 39.4444V49.4444C15 50.6711 15.9956 51.6667 17.2222 51.6667H22.2222C20.9956 51.6667 20 50.6711 20 49.4444Z" fill="#19D86E"/>
<path d="M35.5555 15H30.5555C28.1111 15 26.1111 17 26.1111 19.4444V33.8889H31.1111V19.4444C31.1111 17 33.1111 15 35.5555 15Z" fill="#DFE0E1"/>
<path d="M55.5557 33.8891H52.2224V19.4446C52.2224 17.9135 50.9757 16.6668 49.4446 16.6668H30.5557C29.0246 16.6668 27.7779 17.9135 27.7779 19.4446V33.8891H24.4446V19.4446C24.4446 16.0735 27.1846 13.3335 30.5557 13.3335H49.4446C52.8157 13.3335 55.5557 16.0735 55.5557 19.4446V33.8891Z" fill="#3C4658"/>
<path d="M62.7779 53.3335H17.2224C15.0779 53.3335 13.3335 51.5891 13.3335 49.4446V39.4446C13.3335 36.0735 16.0735 33.3335 19.4446 33.3335H60.5557C63.9268 33.3335 66.6668 36.0735 66.6668 39.4446V49.4446C66.6668 51.5891 64.9224 53.3335 62.7779 53.3335ZM19.4446 36.6668C17.9135 36.6668 16.6668 37.9135 16.6668 39.4446V49.4446C16.6668 49.7513 16.9157 50.0002 17.2224 50.0002H62.7779C63.0846 50.0002 63.3335 49.7513 63.3335 49.4446V39.4446C63.3335 37.9135 62.0868 36.6668 60.5557 36.6668H19.4446Z" fill="#3C4658"/>
<path d="M22.2222 50.5554H25.5555V66.6665H22.2222V50.5554Z" fill="#3C4658"/>
<path d="M30 50.5554H33.3333V66.6665H30V50.5554Z" fill="#3C4658"/>
<path d="M38.3335 50.5554H41.6668V66.6665H38.3335V50.5554Z" fill="#3C4658"/>
<path d="M46.6665 50.5554H49.9998V66.6665H46.6665V50.5554Z" fill="#3C4658"/>
<path d="M54.4446 50.5554H57.7779V66.6665H54.4446V50.5554Z" fill="#3C4658"/>
<path d="M46.6665 40H57.7776V43.3333H46.6665V40Z" fill="#3C4658"/>
<path d="M4.44458 63.3334H75.5557V66.6667H4.44458V63.3334Z" fill="#3C4658"/>
</svg>
