<svg width="70" height="70" viewBox="0 0 70 70" fill="none" xmlns="http://www.w3.org/2000/svg">
<path d="M16.2886 61.8974C29.7384 61.8974 38.9745 68.8644 45.4553 68.8644C51.9361 68.8644 65.5472 65.1388 65.5472 35.3247C65.5472 5.51049 47.2364 1.13354 40.1081 1.13354C6.7278 1.13354 -7.53081 61.8974 16.2886 61.8974Z" fill="#EFF1F3"/>
<path d="M45.2084 13.125H24.7917C23.7184 13.125 22.8473 13.9961 22.8473 15.0694V45.2083C22.8473 46.2817 23.7184 47.1528 24.7917 47.1528H45.2084C46.2818 47.1528 47.1529 46.2817 47.1529 45.2083V15.0694C47.1529 13.9961 46.2818 13.125 45.2084 13.125ZM42.2917 42.2917H27.7084V17.9861H42.2917V42.2917Z" fill="#F3F3F1"/>
<path d="M27.7083 17.9861H42.2917V42.2917H27.7083V17.9861Z" fill="#00C658"/>
<path d="M45.2084 56.875H24.7917C24.7917 54.7264 26.532 52.9861 28.6806 52.9861H41.3195C43.4681 52.9861 45.2084 54.7264 45.2084 56.875Z" fill="#00C658"/>
<path d="M28.6805 47.1528H41.3194V52.9862H28.6805V47.1528Z" fill="#F3F3F1"/>
<path d="M42.2916 17.9861H46.6666V42.2917H42.2916V17.9861Z" fill="#DFE0E1"/>
<path d="M27.2223 45.2083V15.0694C27.2223 13.9961 28.0934 13.125 29.1667 13.125H24.7917C23.7184 13.125 22.8473 13.9961 22.8473 15.0694V45.2083C22.8473 46.2817 23.7184 47.1528 24.7917 47.1528H29.1667C28.0934 47.1528 27.2223 46.2817 27.2223 45.2083Z" fill="#DFE0E1"/>
<path d="M27.7083 17.9861H32.0833V42.2917H27.7083V17.9861Z" fill="#19D86E"/>
<path d="M33.0556 52.9861H28.6806C26.532 52.9861 24.7917 54.7264 24.7917 56.875H29.1667C29.1667 54.7264 30.907 52.9861 33.0556 52.9861Z" fill="#19D86E"/>
<path d="M28.6805 47.1528H33.0555V52.9862H28.6805V47.1528Z" fill="#D5DBE1"/>
<path d="M45.2083 48.6112H24.7916C22.9152 48.6112 21.3889 47.0848 21.3889 45.2084V15.0695C21.3889 13.1931 22.9152 11.6667 24.7916 11.6667H45.2083C47.0847 11.6667 48.6111 13.1931 48.6111 15.0695V45.2084C48.6111 47.0848 47.0847 48.6112 45.2083 48.6112ZM24.7916 14.5834C24.5233 14.5834 24.3055 14.8012 24.3055 15.0695V45.2084C24.3055 45.4767 24.5233 45.6945 24.7916 45.6945H45.2083C45.4766 45.6945 45.6944 45.4767 45.6944 45.2084V15.0695C45.6944 14.8012 45.4766 14.5834 45.2083 14.5834H24.7916Z" fill="#3C4658"/>
<path d="M42.2917 43.7501H27.7083C26.9033 43.7501 26.25 43.0967 26.25 42.2917V17.9862C26.25 17.1812 26.9033 16.5278 27.7083 16.5278H42.2917C43.0967 16.5278 43.75 17.1812 43.75 17.9862V42.2917C43.75 43.0967 43.0967 43.7501 42.2917 43.7501ZM29.1667 40.8334H40.8333V19.4445H29.1667V40.8334Z" fill="#3C4658"/>
<path d="M45.2083 58.3334H24.7916C23.9866 58.3334 23.3333 57.6801 23.3333 56.8751C23.3333 53.9253 25.7308 51.5278 28.6805 51.5278H41.3194C44.2691 51.5278 46.6666 53.9253 46.6666 56.8751C46.6666 57.6801 46.0133 58.3334 45.2083 58.3334ZM26.738 55.4167H43.2619C42.8186 54.8276 42.1127 54.4445 41.3194 54.4445H28.6805C27.8872 54.4445 27.1814 54.8276 26.738 55.4167Z" fill="#3C4658"/>
<path d="M41.3195 54.4446H28.6806C27.8756 54.4446 27.2223 53.7912 27.2223 52.9862V47.1529C27.2223 46.3479 27.8756 45.6946 28.6806 45.6946H41.3195C42.1245 45.6946 42.7778 46.3479 42.7778 47.1529V52.9862C42.7778 53.7912 42.1245 54.4446 41.3195 54.4446ZM30.139 51.5279H39.8612V48.6112H30.139V51.5279Z" fill="#3C4658"/>
<path d="M44.5101 5.6499L45.8851 4.27497L48.6349 7.02483L47.26 8.39976L44.5101 5.6499Z" fill="#ACB1BA"/>
<path d="M52.4291 13.5781L53.804 12.2032L56.5539 14.9531L55.1789 16.328L52.4291 13.5781Z" fill="#ACB1BA"/>
<path d="M52.077 7.03149L54.8282 4.28026L56.2031 5.65519L53.4519 8.40642L52.077 7.03149Z" fill="#ACB1BA"/>
<path d="M13.6111 35.2428C12.0031 35.2428 10.6945 33.9342 10.6945 32.3261C10.6945 30.718 12.0031 29.4094 13.6111 29.4094C15.2192 29.4094 16.5278 30.718 16.5278 32.3261C16.5278 33.9342 15.2192 35.2428 13.6111 35.2428ZM13.6111 31.3539C13.0764 31.3539 12.6389 31.7894 12.6389 32.3261C12.6389 32.8628 13.0764 33.2983 13.6111 33.2983C14.1458 33.2983 14.5833 32.8628 14.5833 32.3261C14.5833 31.7894 14.1458 31.3539 13.6111 31.3539Z" fill="#ACB1BA"/>
</svg>
