<svg width="80" height="80" viewBox="0 0 80 80" fill="none" xmlns="http://www.w3.org/2000/svg">
<path d="M9.26007 18.6159C9.26007 33.987 1.29785 44.5426 1.29785 51.9493C1.29785 59.3559 5.55563 74.9115 39.629 74.9115C73.7023 74.9115 78.7023 53.9848 78.7023 45.8382C78.7045 7.68927 9.26007 -8.60629 9.26007 18.6159Z" fill="white"/>
<path d="M45 15H30.6244H19.4444C16.9889 15 15 16.9889 15 19.4444V39.3578V51.6667C15 54.1222 16.9889 56.1111 19.4444 56.1111H33.82H45C47.4555 56.1111 49.4444 54.1222 49.4444 51.6667V31.7533V19.4444C49.4444 16.9889 47.4555 15 45 15Z" fill="#F3F3F1"/>
<path d="M60.0003 46.1105C60.0003 42.0305 56.3336 38.8061 52.1158 39.5527C49.4447 40.0261 47.2581 42.215 46.7781 44.8839C46.3692 47.1616 47.1247 49.255 48.5403 50.7127C49.4114 51.6083 50.0003 52.7372 50.0003 53.9883V57.2239H56.667V53.7972C56.667 52.655 57.2114 51.6194 58.0247 50.8172C59.2425 49.6127 60.0003 47.9572 60.0003 46.1105Z" fill="#00C658"/>
<path d="M64.9999 65.0004H41.6665V60.8515C41.6665 59.7315 42.5021 58.7849 43.6132 58.6471L50.5554 57.7782H56.111L63.0532 58.6471C64.1643 58.7871 64.9999 59.7315 64.9999 60.8515V65.0004Z" fill="#00C658"/>
<path d="M20 51.6667V39.3578V19.4444C20 16.9889 21.9889 15 24.4445 15H19.4444C16.9889 15 15 16.9889 15 19.4444V39.3578V51.6667C15 54.1222 16.9889 56.1111 19.4444 56.1111H24.4445C21.9889 56.1111 20 54.1222 20 51.6667Z" fill="#DFE0E1"/>
<path d="M53.5403 50.7112C52.1247 49.2535 51.3692 47.1601 51.7781 44.8824C52.1758 42.6712 53.7536 40.8046 55.7981 39.9557C54.6825 39.5068 53.4358 39.3179 52.1158 39.5512C49.4447 40.0246 47.2581 42.2135 46.7781 44.8824C46.3692 47.1601 47.1247 49.2535 48.5403 50.7112C49.4114 51.6068 50.0003 52.7357 50.0003 53.9868V57.2224H55.0003V53.9868C55.0003 52.7379 54.4092 51.609 53.5403 50.7112Z" fill="#19D86E"/>
<path d="M48.6132 58.6471L55.5554 57.7782H50.5554L43.6132 58.6471C42.5021 58.7871 41.6665 59.7315 41.6665 60.8515V65.0004H46.6665V60.8515C46.6665 59.7293 47.5021 58.7849 48.6132 58.6471Z" fill="#19D86E"/>
<path d="M56.6666 58.8889H49.9999C49.0799 58.8889 48.3332 58.1422 48.3332 57.2222V53.9866C48.3332 53.0822 47.7954 52.3378 47.3443 51.8733C45.4599 49.9289 44.6554 47.2755 45.1377 44.5889C45.7377 41.2489 48.4888 38.5044 51.8266 37.9133C54.2888 37.4711 56.7932 38.1378 58.6866 39.7267C60.5821 41.3155 61.6666 43.6422 61.6666 46.1133C61.6666 48.34 60.7888 50.4311 59.1954 52.0022C58.8021 52.3911 58.3332 53.0178 58.3332 53.7978V57.2244C58.3332 58.1422 57.5866 58.8889 56.6666 58.8889ZM51.6666 55.5555H54.9999V53.7955C54.9999 52.2889 55.6577 50.8089 56.8532 49.6289C57.8066 48.6889 58.3332 47.4378 58.3332 46.1111C58.3332 44.6289 57.6821 43.2311 56.5443 42.2778C55.391 41.3111 53.9266 40.9178 52.4066 41.1933C50.4177 41.5444 48.7777 43.1844 48.4199 45.1778C48.1288 46.7955 48.6088 48.3889 49.7377 49.5511C50.9999 50.8511 51.6688 52.3866 51.6688 53.9866V55.5555H51.6666Z" fill="#3C4658"/>
<path d="M65 66.6664H41.6667C40.7467 66.6664 40 65.9197 40 64.9997V60.8508C40 58.8931 41.4644 57.2353 43.4067 56.9931L50.3489 56.1242L56.1111 56.1108L63.26 56.9908C65.2022 57.2331 66.6666 58.8931 66.6666 60.8508V64.9997C66.6666 65.9197 65.92 66.6664 65 66.6664ZM43.3333 63.3331H63.3333V60.8508C63.3333 60.5708 63.1244 60.3353 62.8467 60.2997L55.9022 59.4308L50.5555 59.4442L43.82 60.2997C43.5422 60.3353 43.3333 60.5708 43.3333 60.8508V63.3331Z" fill="#3C4658"/>
<path d="M33.8202 57.7781H19.4446C16.0735 57.7781 13.3335 55.0381 13.3335 51.667V19.4447C13.3335 16.0736 16.0735 13.3336 19.4446 13.3336H45.0002C48.3713 13.3336 51.1113 16.0736 51.1113 19.4447V31.7558H47.778V19.4447C47.778 17.9136 46.5313 16.667 45.0002 16.667H19.4446C17.9135 16.667 16.6668 17.9136 16.6668 19.4447V51.667C16.6668 53.1981 17.9135 54.4447 19.4446 54.4447H33.8202V57.7781Z" fill="#3C4658"/>
<path d="M23.8889 38.8892H40.5556V42.2225H23.8889V38.8892Z" fill="#3C4658"/>
<path d="M23.8889 47.7782H38.3334V51.1115H23.8889V47.7782Z" fill="#3C4658"/>
<path d="M23.8889 30H40.5556V33.3333H23.8889V30Z" fill="#3C4658"/>
<path d="M23.8889 21.1108H40.5556V24.4442H23.8889V21.1108Z" fill="#3C4658"/>
<path d="M71.0667 57.2221C69.229 57.2221 67.7334 55.7265 67.7334 53.8888C67.7334 52.051 69.229 50.5554 71.0667 50.5554C72.9045 50.5554 74.4001 52.051 74.4001 53.8888C74.4001 55.7265 72.9045 57.2221 71.0667 57.2221ZM71.0667 52.7776C70.4534 52.7776 69.9556 53.2754 69.9556 53.8888C69.9556 54.5021 70.4534 54.9999 71.0667 54.9999C71.6801 54.9999 72.1779 54.5021 72.1779 53.8888C72.1779 53.2754 71.6801 52.7776 71.0667 52.7776Z" fill="#ACB1BA"/>
<path d="M15.418 9.60217L18.5607 6.45948L20.132 8.03082L16.9893 11.1735L15.418 9.60217Z" fill="#ACB1BA"/>
<path d="M6.38281 18.6368L9.52551 15.4941L11.0969 17.0655L7.95416 20.2082L6.38281 18.6368Z" fill="#ACB1BA"/>
<path d="M6.77686 8.02747L8.3482 6.45612L11.4909 9.59881L9.91955 11.1702L6.77686 8.02747Z" fill="#ACB1BA"/>
</svg>
