<svg width="60" height="60" viewBox="0 0 60 60" fill="none" xmlns="http://www.w3.org/2000/svg">
<path d="M53.055 13.9618C53.055 25.4901 59.0267 33.4068 59.0267 38.9618C59.0267 44.5168 55.8333 56.1834 30.2783 56.1834C4.72335 56.1834 0.97168 40.4884 0.97168 34.3784C0.97168 5.76677 53.055 -6.4549 53.055 13.9618Z" fill="#EFEFEF"/>
<path d="M14.9468 51.546L16.1253 50.3675L18.4823 52.7245L17.3038 53.903L14.9468 51.546Z" fill="#ACB1BA"/>
<path d="M8.17114 44.769L9.34965 43.5905L11.7067 45.9476L10.5282 47.1261L8.17114 44.769Z" fill="#ACB1BA"/>
<path d="M8.46582 52.7231L10.8228 50.3661L12.0014 51.5446L9.64433 53.9017L8.46582 52.7231Z" fill="#ACB1BA"/>
<path d="M46.25 17.9163H13.75C12.37 17.9163 11.25 16.7963 11.25 15.4163C11.25 14.0363 12.37 12.9163 13.75 12.9163H46.25C47.63 12.9163 48.75 14.0363 48.75 15.4163C48.75 16.7963 47.63 17.9163 46.25 17.9163Z" fill="#00C658"/>
<path d="M44.1667 38.7502H15.8334C14.9134 38.7502 14.1667 38.0036 14.1667 37.0835V17.9169H45.8334V37.0835C45.8334 38.0036 45.0867 38.7502 44.1667 38.7502Z" fill="#F3F3F1"/>
<path d="M30.0001 48.7501C31.1507 48.7501 32.0834 47.8174 32.0834 46.6668C32.0834 45.5162 31.1507 44.5834 30.0001 44.5834C28.8495 44.5834 27.9167 45.5162 27.9167 46.6668C27.9167 47.8174 28.8495 48.7501 30.0001 48.7501Z" fill="#2FDF84"/>
<path d="M15 15.4163C15 14.0363 16.12 12.9163 17.5 12.9163H13.75C12.37 12.9163 11.25 14.0363 11.25 15.4163C11.25 16.7963 12.37 17.9163 13.75 17.9163H17.5C16.12 17.9163 15 16.7963 15 15.4163Z" fill="#19D86E"/>
<path d="M31.6668 46.6668C31.6668 46.3501 31.7484 46.0584 31.8751 45.7901C31.5418 45.0818 30.8334 44.5834 30.0001 44.5834C28.8501 44.5834 27.9167 45.5168 27.9167 46.6668C27.9167 47.8168 28.8501 48.7501 30.0001 48.7501C30.8334 48.7501 31.5418 48.2518 31.8751 47.5434C31.7484 47.2751 31.6668 46.9834 31.6668 46.6668Z" fill="#00C658"/>
<path d="M17.9167 37.0835V17.9169H14.1667V37.0835C14.1667 38.0036 14.9134 38.7502 15.8334 38.7502H19.5834C18.6634 38.7502 17.9167 38.0036 17.9167 37.0835Z" fill="#DFE0E1"/>
<path d="M46.25 19.1666H13.75C11.6817 19.1666 10 17.4849 10 15.4166C10 13.3482 11.6817 11.6666 13.75 11.6666H46.25C48.3183 11.6666 50 13.3482 50 15.4166C50 17.4849 48.3183 19.1666 46.25 19.1666ZM13.75 14.1666C13.06 14.1666 12.5 14.7266 12.5 15.4166C12.5 16.1066 13.06 16.6666 13.75 16.6666H46.25C46.94 16.6666 47.5 16.1066 47.5 15.4166C47.5 14.7266 46.94 14.1666 46.25 14.1666H13.75Z" fill="#3C4658"/>
<path d="M44.1667 39.9996H15.8334C14.2251 39.9996 12.9167 38.6913 12.9167 37.0829V17.9163C12.9167 17.2263 13.4767 16.6663 14.1667 16.6663H45.8334C46.5234 16.6663 47.0834 17.2263 47.0834 17.9163V37.0829C47.0834 38.6913 45.7751 39.9996 44.1667 39.9996ZM15.4167 19.1663V37.0829C15.4167 37.3129 15.6034 37.4996 15.8334 37.4996H44.1667C44.3967 37.4996 44.5834 37.3129 44.5834 37.0829V19.1663H15.4167Z" fill="#3C4658"/>
<path d="M29.9998 50.0004C28.1615 50.0004 26.6665 48.5054 26.6665 46.6671C26.6665 44.8287 28.1615 43.3337 29.9998 43.3337C31.8382 43.3337 33.3332 44.8287 33.3332 46.6671C33.3332 48.5054 31.8382 50.0004 29.9998 50.0004ZM29.9998 45.8337C29.5398 45.8337 29.1665 46.2071 29.1665 46.6671C29.1665 47.1271 29.5398 47.5004 29.9998 47.5004C30.4598 47.5004 30.8332 47.1271 30.8332 46.6671C30.8332 46.2071 30.4598 45.8337 29.9998 45.8337Z" fill="#3C4658"/>
<path d="M28.75 39.1663H31.25V44.1663H28.75V39.1663Z" fill="#3C4658"/>
<path d="M22.1217 34.6464L20.3784 32.8547L26.7417 26.6647C27.1601 26.258 27.8051 26.1947 28.2934 26.5114L32.1284 28.9997L37.7834 22.123L39.7134 23.7114L33.3501 31.4497C32.9467 31.9397 32.2367 32.0497 31.7051 31.7047L27.7701 29.1514L22.1217 34.6464Z" fill="#3C4658"/>
</svg>
