<svg width="60" height="60" viewBox="0 0 60 60" fill="none" xmlns="http://www.w3.org/2000/svg">
<path d="M13.5234 9.27346C10.5151 20.4018 2.68344 26.4851 1.23344 31.8485C-0.21656 37.2118 -0.178228 49.3068 24.4918 55.9768C49.1618 62.6468 56.8784 48.4751 58.4718 42.5751C65.9401 14.9551 18.8518 -10.4365 13.5234 9.27346Z" fill="#EFEFEF"/>
<path d="M30 48.75C40.3553 48.75 48.75 40.3553 48.75 30C48.75 19.6447 40.3553 11.25 30 11.25C19.6447 11.25 11.25 19.6447 11.25 30C11.25 40.3553 19.6447 48.75 30 48.75Z" fill="#00C658"/>
<path d="M15 30C15 20.2783 22.4 12.285 31.875 11.345C31.2583 11.2833 30.6333 11.25 30 11.25C19.645 11.25 11.25 19.645 11.25 30C11.25 40.355 19.645 48.75 30 48.75C30.6333 48.75 31.2583 48.7167 31.875 48.655C22.4 47.715 15 39.7217 15 30Z" fill="#19D86E"/>
<path d="M29.9999 41.6665C30.9204 41.6665 31.6666 40.9203 31.6666 39.9998C31.6666 39.0793 30.9204 38.3332 29.9999 38.3332C29.0794 38.3332 28.3333 39.0793 28.3333 39.9998C28.3333 40.9203 29.0794 41.6665 29.9999 41.6665Z" fill="#00C658"/>
<path d="M13.2839 9.4316L15.641 7.07458L16.8195 8.25309L14.4624 10.6101L13.2839 9.4316Z" fill="#ACB1BA"/>
<path d="M6.50732 16.2068L8.86435 13.8497L10.0429 15.0283L7.68583 17.3853L6.50732 16.2068Z" fill="#ACB1BA"/>
<path d="M6.50879 7.95664L7.6873 6.77813L10.0443 9.13515L8.86581 10.3137L6.50879 7.95664Z" fill="#ACB1BA"/>
<path d="M30 42.5C28.6217 42.5 27.5 41.3783 27.5 40C27.5 38.6217 28.6217 37.5 30 37.5C31.3783 37.5 32.5 38.6217 32.5 40C32.5 41.3783 31.3783 42.5 30 42.5ZM30 39.1667C29.5417 39.1667 29.1667 39.54 29.1667 40C29.1667 40.46 29.5417 40.8333 30 40.8333C30.4583 40.8333 30.8333 40.46 30.8333 40C30.8333 39.54 30.4583 39.1667 30 39.1667Z" fill="white"/>
<path d="M30 50.0003C18.9717 50.0003 10 41.0286 10 30.0003C10 18.9719 18.9717 10.0003 30 10.0003C41.0283 10.0003 50 18.9719 50 30.0003C50 41.0286 41.0283 50.0003 30 50.0003ZM30 12.5003C20.35 12.5003 12.5 20.3503 12.5 30.0003C12.5 39.6503 20.35 47.5003 30 47.5003C39.65 47.5003 47.5 39.6503 47.5 30.0003C47.5 20.3503 39.65 12.5003 30 12.5003Z" fill="#3C4658"/>
<path d="M31.2501 33.3338H28.7501V31.6505C28.7501 30.0638 29.7568 28.6422 31.2534 28.1138C33.2451 27.4122 34.5834 25.2905 34.5834 23.7505C34.5834 21.2222 32.5284 19.1672 30.0001 19.1672C27.4718 19.1672 25.4167 21.2222 25.4167 23.7505H22.9167C22.9167 19.8455 26.0934 16.6672 30.0001 16.6672C33.9068 16.6672 37.0834 19.8455 37.0834 23.7505C37.0834 26.5305 34.8884 29.4822 32.0851 30.4722C31.5851 30.6472 31.2501 31.1222 31.2501 31.6522V33.3338Z" fill="white"/>
</svg>
