<svg width="80" height="80" viewBox="0 0 80 80" fill="none" xmlns="http://www.w3.org/2000/svg">
<path d="M61.3844 70.74C46.0133 70.74 35.4578 78.7022 28.0511 78.7022C20.6444 78.7022 5.08887 74.4444 5.08887 40.3711C5.08887 6.29775 26.0155 1.29553 34.1622 1.29553C72.3111 1.29553 88.6066 70.74 61.3844 70.74Z" fill="#EFEFEF"/>
<path d="M63.3333 13.3333C61.4956 13.3333 60 11.8377 60 9.99996C60 8.16218 61.4956 6.66663 63.3333 6.66663C65.1711 6.66663 66.6667 8.16218 66.6667 9.99996C66.6667 11.8377 65.1711 13.3333 63.3333 13.3333ZM63.3333 8.88885C62.72 8.88885 62.2222 9.38663 62.2222 9.99996C62.2222 10.6133 62.72 11.1111 63.3333 11.1111C63.9467 11.1111 64.4444 10.6133 64.4444 9.99996C64.4444 9.38663 63.9467 8.88885 63.3333 8.88885Z" fill="#ACB1BA"/>
<path d="M27.2223 65H17.2223V47.2222C17.2223 46.6089 17.7201 46.1111 18.3334 46.1111H26.1112C26.7245 46.1111 27.2223 46.6089 27.2223 47.2222V65Z" fill="#F3F3F1"/>
<path d="M45 65.0001H35V38.3334C35 37.7201 35.4978 37.2223 36.1111 37.2223H43.8889C44.5022 37.2223 45 37.7201 45 38.3334V65.0001Z" fill="#F3F3F1"/>
<path d="M62.7777 64.9999H52.7777V29.4444C52.7777 28.831 53.2755 28.3333 53.8888 28.3333H61.6666C62.2799 28.3333 62.7777 28.831 62.7777 29.4444V64.9999Z" fill="#00C658"/>
<path d="M23.3334 46.1111H18.3334C17.7201 46.1111 17.2223 46.6089 17.2223 47.2222V65H22.2223V47.2222C22.2223 46.6089 22.7201 46.1111 23.3334 46.1111Z" fill="#DFE0E1"/>
<path d="M41.1111 37.2223H36.1111C35.4978 37.2223 35 37.7201 35 38.3334V65.0001H40V38.3334C40 37.7201 40.4978 37.2223 41.1111 37.2223Z" fill="#DFE0E1"/>
<path d="M58.8888 28.3333H53.8888C53.2755 28.3333 52.7777 28.831 52.7777 29.4444V64.9999H57.7777V29.4444C57.7777 28.831 58.2755 28.3333 58.8888 28.3333Z" fill="#19D86E"/>
<path d="M18.2615 34.9307L37.1478 16.0443L39.5045 18.401L20.6181 37.2873L18.2615 34.9307Z" fill="#3C4658"/>
<path d="M40 26.6667H36.6667V18.8889H28.8889V15.5555H38.3334C39.2534 15.5555 40 16.3022 40 17.2222V26.6667Z" fill="#3C4658"/>
<path d="M4.44446 63.3333H75.5556V66.6666H4.44446V63.3333Z" fill="#3C4658"/>
<path d="M27.2222 66.6667H17.2222C16.3022 66.6667 15.5555 65.92 15.5555 65V47.2222C15.5555 45.6911 16.8022 44.4445 18.3333 44.4445H26.1111C27.6422 44.4445 28.8889 45.6911 28.8889 47.2222V65C28.8889 65.92 28.1422 66.6667 27.2222 66.6667ZM18.8889 63.3333H25.5555V47.7778H18.8889V63.3333Z" fill="#3C4658"/>
<path d="M44.9999 66.6667H34.9999C34.0799 66.6667 33.3333 65.92 33.3333 65V38.3333C33.3333 36.8022 34.5799 35.5555 36.111 35.5555H43.8888C45.4199 35.5555 46.6666 36.8022 46.6666 38.3333V65C46.6666 65.92 45.9199 66.6667 44.9999 66.6667ZM36.6666 63.3333H43.3332V38.8889H36.6666V63.3333Z" fill="#3C4658"/>
<path d="M62.7777 66.6667H52.7778C51.8578 66.6667 51.1111 65.9201 51.1111 65.0001V29.4445C51.1111 27.9134 52.3578 26.6667 53.8889 26.6667H61.6666C63.1977 26.6667 64.4444 27.9134 64.4444 29.4445V65.0001C64.4444 65.9201 63.6977 66.6667 62.7777 66.6667ZM54.4444 63.3334H61.1111V30.0001H54.4444V63.3334Z" fill="#3C4658"/>
</svg>
