<svg width="80" height="80" viewBox="0 0 80 80" fill="none" xmlns="http://www.w3.org/2000/svg">
<path d="M9.26007 18.6157C9.26007 33.9868 1.29785 44.5424 1.29785 51.949C1.29785 59.3557 5.55563 74.9112 39.629 74.9112C73.7023 74.9112 78.7023 53.9846 78.7023 45.8379C78.7045 7.68902 9.26007 -8.60653 9.26007 18.6157Z" fill="#EFF1F3"/>
<path d="M45 15H30.6244H19.4444C16.9889 15 15 16.9889 15 19.4444V39.3578V51.6667C15 54.1222 16.9889 56.1111 19.4444 56.1111H33.82H45C47.4555 56.1111 49.4444 54.1222 49.4444 51.6667V31.7533V19.4444C49.4444 16.9889 47.4555 15 45 15Z" fill="#F3F3F1"/>
<path d="M60 46.1108C60 42.0308 56.3334 38.8063 52.1156 39.553C49.4445 40.0263 47.2578 42.2152 46.7778 44.8841C46.3689 47.1619 47.1245 49.2552 48.54 50.713C49.4112 51.6085 50 52.7374 50 53.9885V57.2241H56.6667V53.7974C56.6667 52.6552 57.2112 51.6197 58.0245 50.8174C59.2423 49.613 60 47.9574 60 46.1108Z" fill="#00C658"/>
<path d="M64.9999 65.0005H41.6665V60.8516C41.6665 59.7317 42.5021 58.785 43.6132 58.6472L50.5554 57.7783H56.111L63.0532 58.6472C64.1643 58.7872 64.9999 59.7317 64.9999 60.8516V65.0005Z" fill="#00C658"/>
<path d="M20 51.6667V39.3578V19.4444C20 16.9889 21.9889 15 24.4445 15H19.4444C16.9889 15 15 16.9889 15 19.4444V39.3578V51.6667C15 54.1222 16.9889 56.1111 19.4444 56.1111H24.4445C21.9889 56.1111 20 54.1222 20 51.6667Z" fill="#DFE0E1"/>
<path d="M53.54 50.711C52.1245 49.2532 51.3689 47.1599 51.7778 44.8821C52.1756 42.671 53.7534 40.8043 55.7978 39.9554C54.6823 39.5066 53.4356 39.3177 52.1156 39.551C49.4445 40.0243 47.2578 42.2132 46.7778 44.8821C46.3689 47.1599 47.1245 49.2532 48.54 50.711C49.4112 51.6066 50 52.7354 50 53.9866V57.2221H55V53.9866C55 52.7377 54.4089 51.6088 53.54 50.711Z" fill="#19D86E"/>
<path d="M48.6132 58.6472L55.5554 57.7783H50.5554L43.6132 58.6472C42.5021 58.7872 41.6665 59.7317 41.6665 60.8516V65.0005H46.6665V60.8516C46.6665 59.7294 47.5021 58.785 48.6132 58.6472Z" fill="#19D86E"/>
<path d="M56.6668 58.889H50.0001C49.0801 58.889 48.3335 58.1423 48.3335 57.2223V53.9868C48.3335 53.0823 47.7957 52.3379 47.3446 51.8734C45.4601 49.929 44.6557 47.2757 45.1379 44.589C45.7379 41.249 48.489 38.5046 51.8268 37.9134C54.289 37.4712 56.7935 38.1379 58.6868 39.7268C60.5824 41.3157 61.6668 43.6423 61.6668 46.1134C61.6668 48.3401 60.789 50.4312 59.1957 52.0023C58.8024 52.3912 58.3335 53.0179 58.3335 53.7979V57.2245C58.3335 58.1423 57.5868 58.889 56.6668 58.889ZM51.6668 55.5557H55.0001V53.7957C55.0001 52.289 55.6579 50.809 56.8535 49.629C57.8068 48.689 58.3335 47.4379 58.3335 46.1112C58.3335 44.629 57.6824 43.2312 56.5446 42.2779C55.3913 41.3112 53.9268 40.9179 52.4068 41.1934C50.4179 41.5446 48.7779 43.1846 48.4201 45.1779C48.129 46.7957 48.609 48.389 49.7379 49.5512C51.0001 50.8512 51.669 52.3868 51.669 53.9868V55.5557H51.6668Z" fill="#3C4658"/>
<path d="M65 66.6664H41.6667C40.7467 66.6664 40 65.9197 40 64.9997V60.8508C40 58.8931 41.4644 57.2353 43.4067 56.9931L50.3489 56.1242L56.1111 56.1108L63.26 56.9908C65.2022 57.2331 66.6666 58.8931 66.6666 60.8508V64.9997C66.6666 65.9197 65.92 66.6664 65 66.6664ZM43.3333 63.3331H63.3333V60.8508C63.3333 60.5708 63.1244 60.3353 62.8467 60.2997L55.9022 59.4308L50.5555 59.4442L43.82 60.2997C43.5422 60.3353 43.3333 60.5708 43.3333 60.8508V63.3331Z" fill="#3C4658"/>
<path d="M33.8202 57.7782H19.4446C16.0735 57.7782 13.3335 55.0382 13.3335 51.6671V19.4449C13.3335 16.0737 16.0735 13.3337 19.4446 13.3337H45.0002C48.3713 13.3337 51.1113 16.0737 51.1113 19.4449V31.756H47.778V19.4449C47.778 17.9137 46.5313 16.6671 45.0002 16.6671H19.4446C17.9135 16.6671 16.6668 17.9137 16.6668 19.4449V51.6671C16.6668 53.1982 17.9135 54.4449 19.4446 54.4449H33.8202V57.7782Z" fill="#3C4658"/>
<path d="M23.8889 38.8892H40.5556V42.2225H23.8889V38.8892Z" fill="#3C4658"/>
<path d="M23.8889 47.7783H38.3334V51.1116H23.8889V47.7783Z" fill="#3C4658"/>
<path d="M23.8889 30H40.5556V33.3333H23.8889V30Z" fill="#3C4658"/>
<path d="M23.8889 21.1108H40.5556V24.4442H23.8889V21.1108Z" fill="#3C4658"/>
<path d="M71.0665 57.2221C69.2287 57.2221 67.7332 55.7265 67.7332 53.8888C67.7332 52.051 69.2287 50.5554 71.0665 50.5554C72.9043 50.5554 74.3998 52.051 74.3998 53.8888C74.3998 55.7265 72.9043 57.2221 71.0665 57.2221ZM71.0665 52.7776C70.4532 52.7776 69.9554 53.2754 69.9554 53.8888C69.9554 54.5021 70.4532 54.9999 71.0665 54.9999C71.6798 54.9999 72.1776 54.5021 72.1776 53.8888C72.1776 53.2754 71.6798 52.7776 71.0665 52.7776Z" fill="#ACB1BA"/>
<path d="M15.418 9.60217L18.5607 6.45948L20.132 8.03083L16.9893 11.1735L15.418 9.60217Z" fill="#ACB1BA"/>
<path d="M6.38257 18.6368L9.52526 15.4941L11.0966 17.0655L7.95392 20.2082L6.38257 18.6368Z" fill="#ACB1BA"/>
<path d="M6.77686 8.02771L8.3482 6.45636L11.4909 9.59906L9.91955 11.1704L6.77686 8.02771Z" fill="#ACB1BA"/>
</svg>
