<svg width="80" height="80" viewBox="0 0 80 80" fill="none" xmlns="http://www.w3.org/2000/svg">
<path d="M18.6154 9.25995C33.9865 9.25995 44.5421 1.29773 51.9488 1.29773C59.3554 1.29773 74.911 5.55551 74.911 39.6288C74.911 73.7022 53.9843 78.7022 45.8377 78.7022C7.68878 78.7044 -8.60678 9.25995 18.6154 9.25995Z" fill="white"/>
<path d="M69.3508 16.6298L70.9222 15.0584L74.0665 18.2027L72.4951 19.774L69.3508 16.6298Z" fill="#ACB1BA"/>
<path d="M60.3184 7.59851L61.8897 6.02716L65.0324 9.16986L63.4611 10.7412L60.3184 7.59851Z" fill="#ACB1BA"/>
<path d="M69.7451 9.17102L72.8878 6.02832L74.4591 7.59967L71.3165 10.7424L69.7451 9.17102Z" fill="#ACB1BA"/>
<path d="M55.9712 41.6666V35C55.9712 34.3711 55.9224 33.7533 55.849 33.1444L56.0001 33.3111C55.329 26.9933 50.8712 21.8689 44.9312 20.1178C44.8246 20.0844 44.7201 20.0511 44.6112 20.02C44.3668 19.9533 44.1379 19.8556 43.889 19.8L43.9446 19.8622C43.9268 19.8578 43.909 19.8533 43.889 19.8489V19.8V19.4444C43.889 16.9889 41.9001 15 39.4446 15H36.1112C33.6557 15 31.6668 16.9889 31.6668 19.4444V19.8156C24.669 21.3511 19.4446 27.5578 19.4446 35V41.6666H55.9712Z" fill="#F3F3F1"/>
<path d="M61.9376 53.8026C62.0242 53.2915 62.0909 52.7737 62.0909 52.2381C62.0909 51.7026 62.0242 51.1848 61.9376 50.6737L64.5709 48.7181C64.9998 48.3981 65.1265 47.7959 64.862 47.3203L63.2198 44.3781C62.9553 43.9048 62.3865 43.7159 61.9042 43.9403L58.9287 45.327C58.1576 44.6603 57.2887 44.127 56.3265 43.7648L56.002 40.4181C55.9487 39.8737 55.5065 39.4603 54.9776 39.4603H51.6909C51.162 39.4603 50.7176 39.8759 50.6665 40.4181L50.342 43.7648C49.3798 44.127 48.5109 44.6603 47.7398 45.327L44.7642 43.9381C44.282 43.7137 43.7131 43.9026 43.4487 44.3759L41.8065 47.3181C41.542 47.7914 41.6687 48.3959 42.0976 48.7159L44.7309 50.6714C44.6442 51.1826 44.5776 51.7003 44.5776 52.2359C44.5776 52.7715 44.6442 53.2892 44.7309 53.8003L42.0976 55.7559C41.6687 56.0759 41.542 56.6781 41.8065 57.1537L43.4487 60.0959C43.7131 60.5692 44.282 60.7581 44.7642 60.5337L47.7398 59.147C48.5109 59.8137 49.3798 60.347 50.342 60.7092L50.6665 64.0559C50.7198 64.6003 51.162 65.0137 51.6909 65.0137H54.9776C55.5065 65.0137 55.9509 64.5981 56.002 64.0559L56.3265 60.7092C57.2887 60.347 58.1576 59.8137 58.9287 59.147L61.9042 60.5337C62.3865 60.7581 62.9553 60.5692 63.2198 60.0959L64.862 57.1537C65.1265 56.6803 64.9998 56.0759 64.5709 55.7559L61.9376 53.8026Z" fill="#00C658"/>
<path d="M53.3335 56.1271C55.4812 56.1271 57.2224 54.386 57.2224 52.2383C57.2224 50.0905 55.4812 48.3494 53.3335 48.3494C51.1857 48.3494 49.4446 50.0905 49.4446 52.2383C49.4446 54.386 51.1857 56.1271 53.3335 56.1271Z" fill="#F3F3F1"/>
<path d="M60.4222 45.5549C60.4222 47.7105 58.6667 49.4438 56.5333 49.4438H18.8889C16.7333 49.4438 15 47.7105 15 45.5549C15 43.3993 16.7333 41.666 18.8889 41.666H56.5333C58.6667 41.666 60.4222 43.3993 60.4222 45.5549Z" fill="#00C658"/>
<path d="M20 45.5549C20 43.3993 21.7333 41.666 23.8889 41.666H18.8889C16.7333 41.666 15 43.3993 15 45.5549C15 47.7105 16.7333 49.4438 18.8889 49.4438H23.8889C21.7333 49.4438 20 47.7105 20 45.5549Z" fill="#19D86E"/>
<path d="M36.6668 19.8156V19.4444C36.6668 17.2756 38.2224 15.4756 40.2779 15.0844C40.0068 15.0333 39.729 15 39.4446 15H36.1113C33.6557 15 31.6668 16.9889 31.6668 19.4444V19.8156C24.669 21.3511 19.4446 27.5578 19.4446 35V41.6666H24.4446V35C24.4446 27.5578 29.669 21.3511 36.6668 19.8156Z" fill="#DFE0E1"/>
<path d="M47.0954 55.7576L49.7287 53.8021C49.642 53.291 49.5754 52.7732 49.5754 52.2376C49.5754 51.7021 49.642 51.1843 49.7287 50.6732L47.0954 48.7176C46.6665 48.3976 46.5398 47.7954 46.8042 47.3199L48.0398 45.1088C47.942 45.1865 47.8331 45.2465 47.7398 45.3288L44.7642 43.9399C44.282 43.7154 43.7131 43.9043 43.4487 44.3776L41.8043 47.3199C41.5398 47.7932 41.6665 48.3976 42.0954 48.7176L44.7287 50.6732C44.642 51.1843 44.5754 51.7021 44.5754 52.2376C44.5754 52.7732 44.642 53.291 44.7287 53.8021L42.0954 55.7576C41.6665 56.0776 41.5398 56.6799 41.8043 57.1554L43.4487 60.0976C43.7131 60.571 44.282 60.7599 44.7642 60.5354L47.7398 59.1487C47.8331 59.231 47.9442 59.291 48.0398 59.3687L46.8042 57.1576C46.5398 56.6821 46.6665 56.0776 47.0954 55.7576Z" fill="#19D86E"/>
<path d="M53.3335 56.1271C54.2912 56.1271 55.1557 55.7671 55.8335 55.1938C54.9912 54.4805 54.4446 53.4294 54.4446 52.2383C54.4446 51.0471 54.9912 49.996 55.8335 49.2827C55.1557 48.7094 54.2912 48.3494 53.3335 48.3494C51.1868 48.3494 49.4446 50.0916 49.4446 52.2383C49.4446 54.3849 51.1868 56.1271 53.3335 56.1271Z" fill="#DFE0E1"/>
<path d="M54.9758 66.667H51.6892C50.298 66.667 49.1425 65.6092 49.0047 64.207L48.7736 61.827C48.3425 61.607 47.9225 61.3559 47.5203 61.0736L45.4669 62.0336C44.178 62.6314 42.6869 62.1425 41.9936 60.8981L40.3491 57.9536C39.678 56.7559 40.0003 55.2292 41.098 54.4092L42.9469 53.0359C42.9225 52.7536 42.9091 52.4892 42.9091 52.2247C42.9091 51.9603 42.9225 51.6959 42.9469 51.4136L41.1025 50.0403C40.0003 49.2247 39.6758 47.6981 40.3514 46.4936L41.9914 43.5536C42.6869 42.307 44.178 41.827 45.4647 42.4136L47.5225 43.3759C47.9269 43.0936 48.3447 42.8425 48.7758 42.6225L49.0069 40.247C49.1447 38.8359 50.3003 37.7781 51.6914 37.7781H54.978C56.3692 37.7781 57.5247 38.8359 57.6625 40.2381L57.8936 42.6181C58.3269 42.8381 58.7469 43.0892 59.1492 43.3692L61.2003 42.4114C62.4914 41.8136 63.9803 42.3025 64.6736 43.547L66.318 46.4914C66.9914 47.6936 66.6669 49.2203 65.5647 50.0381L63.7203 51.4092C63.7447 51.6914 63.758 51.9559 63.758 52.2203C63.758 52.4847 63.7447 52.7492 63.7203 53.0314L65.5647 54.4003C66.6669 55.2247 66.9892 56.7514 66.3158 57.9514L64.6758 60.8914C63.9803 62.1381 62.4869 62.6181 61.2025 62.0314L59.1447 61.0692C58.7403 61.3514 58.3225 61.6025 57.8914 61.8225L57.6603 64.1981C57.5225 65.6092 56.3669 66.667 54.9758 66.667ZM52.2691 63.3336H54.3958L54.6669 60.5336C54.7269 59.9025 55.1425 59.3603 55.7358 59.1336C56.4869 58.8514 57.1936 58.427 57.8358 57.8714C58.3314 57.4425 59.0336 57.347 59.6314 57.6225L62.0514 58.7536L63.158 56.7714L60.9425 55.127C60.438 54.7514 60.1869 54.127 60.2936 53.507C60.3647 53.0892 60.4225 52.6625 60.4225 52.2225C60.4225 51.7825 60.3669 51.3559 60.2936 50.9381C60.1869 50.3203 60.438 49.6936 60.9425 49.3203L63.1558 47.6736L62.0514 45.6914L59.6314 46.8225C59.0336 47.0981 58.3292 47.0047 57.8336 46.5714C57.1958 46.0181 56.4914 45.5959 55.7358 45.3114C55.1403 45.0847 54.7269 44.5425 54.6669 43.9114L54.3958 41.1114H52.2691L51.998 43.9114C51.938 44.5425 51.5225 45.0847 50.9291 45.3114C50.178 45.5936 49.4714 46.0181 48.8291 46.5736C48.3336 47.0003 47.6314 47.0981 47.0336 46.8225L44.6136 45.6914L43.5091 47.6736L45.7225 49.3203C46.2269 49.6936 46.478 50.3181 46.3714 50.9381C46.3003 51.3559 46.2425 51.7825 46.2425 52.2225C46.2425 52.6625 46.298 53.0892 46.3714 53.507C46.478 54.1247 46.2269 54.7514 45.7225 55.127L43.5069 56.7714L44.6136 58.7536L47.0336 57.6225C47.6314 57.347 48.3336 57.4425 48.8291 57.8714C49.4714 58.427 50.178 58.8514 50.9291 59.1336C51.5247 59.3603 51.938 59.9025 51.998 60.5336L52.2691 63.3336Z" fill="#3C4658"/>
<path d="M33.889 51.1111H18.8891C15.8246 51.1111 13.3335 48.62 13.3335 45.5556C13.3335 42.4911 15.8246 40 18.8891 40H36.1113V43.3333H18.8891C17.6624 43.3333 16.6668 44.3289 16.6668 45.5556C16.6668 46.7822 17.6624 47.7778 18.8891 47.7778H33.889V51.1111Z" fill="#3C4658"/>
<path d="M45.5556 27.2228H42.2222V19.445C42.2222 17.9139 40.9756 16.6672 39.4445 16.6672H36.1111C34.58 16.6672 33.3333 17.9139 33.3333 19.445V27.2228H30V19.445C30 16.0739 32.74 13.3339 36.1111 13.3339H39.4445C42.8156 13.3339 45.5556 16.0739 45.5556 19.445V27.2228Z" fill="#3C4658"/>
<path d="M54.2221 32.571C53.2799 27.091 48.9865 22.6132 43.5332 21.4266L44.2399 18.171C51.0043 19.6399 56.3354 25.1999 57.5066 32.0066L54.2221 32.571Z" fill="#3C4658"/>
<path d="M21.1112 41.6663H17.7778V34.9996C17.7778 26.9663 23.4712 19.8885 31.3112 18.173L32.0223 21.4285C25.7001 22.813 21.1112 28.5196 21.1112 34.9996V41.6663Z" fill="#3C4658"/>
<path d="M53.3334 57.7771C50.2689 57.7771 47.7778 55.286 47.7778 52.2216C47.7778 49.1571 50.2689 46.666 53.3334 46.666C56.3978 46.666 58.8889 49.1571 58.8889 52.2216C58.8889 55.286 56.3978 57.7771 53.3334 57.7771ZM53.3334 49.9993C52.1067 49.9993 51.1112 50.9949 51.1112 52.2216C51.1112 53.4482 52.1067 54.4438 53.3334 54.4438C54.56 54.4438 55.5556 53.4482 55.5556 52.2216C55.5556 50.9949 54.56 49.9993 53.3334 49.9993Z" fill="#3C4658"/>
</svg>
