<svg width="80" height="80" viewBox="0 0 80 80" fill="none" xmlns="http://www.w3.org/2000/svg">
<path d="M61.3844 9.26007C46.0133 9.26007 35.4578 1.29785 28.0511 1.29785C20.6444 1.29785 5.08887 5.55563 5.08887 39.629C5.08887 73.7023 26.0155 78.7023 34.1622 78.7023C72.3111 78.7045 88.6066 9.26007 61.3844 9.26007Z" fill="#EFF1F3"/>
<path d="M54.4443 22.7777H53.8888V26.111H44.9999V22.7777H34.9999V26.111H26.111V22.7777H25.5554H20.5554V64.9999H59.4443V22.7777H54.4443Z" fill="#F3F3F1"/>
<path d="M26.1111 19.4446H35V26.1112H26.1111V19.4446Z" fill="#19D86E"/>
<path d="M45 19.4446H53.8889V26.1112H45V19.4446Z" fill="#19D86E"/>
<path d="M58.8889 22.7777H54.4445H53.8889V26.111H58.8889V22.7777Z" fill="#D5DBE1"/>
<path d="M35 22.7777H40V26.111H35V22.7777Z" fill="#D5DBE1"/>
<path d="M20.5554 22.7777H25.5554V64.9999H20.5554V22.7777Z" fill="#DFE0E1"/>
<path d="M26.1111 19.4446H31.1111V26.1112H26.1111V19.4446Z" fill="#00C658"/>
<path d="M45 19.4446H50V26.1112H45V19.4446Z" fill="#00C658"/>
<path d="M33.3335 21.1111H46.6668V24.4444H33.3335V21.1111Z" fill="#3C4658"/>
<path d="M59.4445 66.6666H20.5556C19.6356 66.6666 18.8889 65.92 18.8889 65V22.7778C18.8889 21.8578 19.6356 21.1111 20.5556 21.1111H27.2222V24.4444H22.2222V63.3333H57.7778V24.4444H52.7778V21.1111H59.4445C60.3645 21.1111 61.1111 21.8578 61.1111 22.7778V65C61.1111 65.92 60.3645 66.6666 59.4445 66.6666Z" fill="#3C4658"/>
<path d="M35.0001 27.7777H26.1112C25.1912 27.7777 24.4446 27.031 24.4446 26.111V19.4444C24.4446 18.5244 25.1912 17.7777 26.1112 17.7777H35.0001C35.9201 17.7777 36.6668 18.5244 36.6668 19.4444V26.111C36.6668 27.031 35.9201 27.7777 35.0001 27.7777ZM27.7779 24.4444H33.3335V21.111H27.7779V24.4444Z" fill="#3C4658"/>
<path d="M53.889 27.7777H45.0002C44.0802 27.7777 43.3335 27.031 43.3335 26.111V19.4444C43.3335 18.5244 44.0802 17.7777 45.0002 17.7777H53.889C54.809 17.7777 55.5557 18.5244 55.5557 19.4444V26.111C55.5557 27.031 54.809 27.7777 53.889 27.7777ZM46.6668 24.4444H52.2224V21.111H46.6668V24.4444Z" fill="#3C4658"/>
<path d="M28.8889 13.3334H32.2223V20.5556H28.8889V13.3334Z" fill="#3C4658"/>
<path d="M47.7778 13.3334H51.1112V20.5556H47.7778V13.3334Z" fill="#3C4658"/>
<path d="M28.3335 48.8889H51.6668V52.2222H28.3335V48.8889Z" fill="#3C4658"/>
<path d="M28.3335 55.5554H51.6668V58.8887H28.3335V55.5554Z" fill="#3C4658"/>
<path d="M44.4444 44.4444H42.7778C41.8578 44.4444 41.1111 43.6977 41.1111 42.7777V32.7778C41.1111 31.8578 41.8578 31.1111 42.7778 31.1111H44.4444C48.12 31.1111 51.1111 34.1022 51.1111 37.7777C51.1111 41.4533 48.12 44.4444 44.4444 44.4444ZM44.4444 34.4444V41.1111C46.2822 41.1111 47.7778 39.6155 47.7778 37.7777C47.7778 35.94 46.2822 34.4444 44.4444 34.4444Z" fill="#3C4658"/>
<path d="M37.7778 44.4444H34.4445V35.5555C34.4445 34.9422 33.9445 34.4444 33.3334 34.4444C32.7223 34.4444 32.2223 34.9422 32.2223 35.5555V44.4444H28.8889V35.5555C28.8889 33.1044 30.8823 31.1111 33.3334 31.1111C35.7845 31.1111 37.7778 33.1044 37.7778 35.5555V44.4444Z" fill="#3C4658"/>
<path d="M28.8889 37.7777H37.7778V41.111H28.8889V37.7777Z" fill="#3C4658"/>
<path d="M56.2217 12.5536L57.793 10.9822L60.9357 14.1249L59.3644 15.6963L56.2217 12.5536Z" fill="#ACB1BA"/>
<path d="M65.2556 21.587L66.827 20.0157L69.9697 23.1584L68.3983 24.7297L65.2556 21.587Z" fill="#ACB1BA"/>
<path d="M64.8628 14.1237L68.0055 10.981L69.5768 12.5523L66.4341 15.695L64.8628 14.1237Z" fill="#ACB1BA"/>
<path d="M12.5443 57.2223C10.7065 57.2223 9.21094 55.7268 9.21094 53.889C9.21094 52.0512 10.7065 50.5557 12.5443 50.5557C14.382 50.5557 15.8776 52.0512 15.8776 53.889C15.8776 55.7268 14.382 57.2223 12.5443 57.2223ZM12.5443 52.7779C11.9332 52.7779 11.4332 53.2757 11.4332 53.889C11.4332 54.5023 11.9332 55.0001 12.5443 55.0001C13.1554 55.0001 13.6554 54.5023 13.6554 53.889C13.6554 53.2757 13.1554 52.7779 12.5443 52.7779Z" fill="#ACB1BA"/>
</svg>
