<svg width="60" height="60" viewBox="0 0 60 60" fill="none" xmlns="http://www.w3.org/2000/svg">
<path d="M6.94505 13.9618C6.94505 25.4901 0.973389 33.4068 0.973389 38.9618C0.973389 44.5168 4.16672 56.1834 29.7217 56.1834C55.2767 56.1834 59.0267 40.4884 59.0267 34.3784C59.0284 5.76677 6.94505 -6.4549 6.94505 13.9618Z" fill="#EFF1F3"/>
<path d="M8.28577 5.53491L10.6428 3.17789L11.8213 4.3564L9.46428 6.71342L8.28577 5.53491Z" fill="#ACB1BA"/>
<path d="M1.50916 12.3101L3.86618 9.95304L5.04469 11.1315L2.68767 13.4886L1.50916 12.3101Z" fill="#ACB1BA"/>
<path d="M1.80493 4.35547L2.98344 3.17696L5.34047 5.53398L4.16196 6.71249L1.80493 4.35547Z" fill="#ACB1BA"/>
<path d="M26.4533 22.0067C26.5183 21.6233 26.5683 21.235 26.5683 20.8333C26.5683 20.4317 26.5183 20.0433 26.4533 19.66L28.4283 18.1933C28.75 17.9533 28.845 17.5017 28.6466 17.145L27.415 14.9383C27.2166 14.5833 26.79 14.4417 26.4283 14.61L24.195 15.65C23.6166 15.15 22.965 14.75 22.2433 14.4783L22 11.9683C21.96 11.56 21.6283 11.25 21.2316 11.25H18.7666C18.37 11.25 18.0366 11.5617 17.9983 11.9683L17.755 14.4783C17.035 14.75 16.3816 15.15 15.805 15.65L13.5733 14.61C13.2116 14.4417 12.785 14.5833 12.5866 14.9383L11.355 17.145C11.155 17.5 11.25 17.9533 11.5716 18.1933L13.5466 19.66C13.4816 20.0433 13.4316 20.4317 13.4316 20.8333C13.4316 21.235 13.4816 21.6233 13.5466 22.0067L11.5716 23.4733C11.25 23.7133 11.155 24.165 11.3533 24.5217L12.585 26.7283C12.7833 27.0833 13.21 27.225 13.5716 27.0567L15.8033 26.0167C16.3816 26.5167 17.0333 26.9167 17.755 27.1883L17.9983 29.6983C18.0383 30.1067 18.37 30.4167 18.7666 30.4167H21.2316C21.6283 30.4167 21.9616 30.105 22 29.6983L22.2433 27.1883C22.965 26.9167 23.6166 26.5167 24.195 26.0167L26.4266 27.0567C26.7883 27.225 27.215 27.0833 27.4133 26.7283L28.645 24.5217C28.8433 24.1667 28.7483 23.7133 28.4266 23.4733L26.4533 22.0067Z" fill="#00C658"/>
<path d="M29.5834 32.9169H37.0834V40.4169H29.5834V32.9169Z" fill="#F3F3F1"/>
<path d="M34.5834 24.5837H42.0834V32.0837H34.5834V24.5837Z" fill="#F3F3F1"/>
<path d="M37.9165 32.9169H45.4165V40.4169H37.9165V32.9169Z" fill="#F3F3F1"/>
<path d="M19.9999 23.7502C21.6108 23.7502 22.9166 22.4444 22.9166 20.8335C22.9166 19.2227 21.6108 17.9169 19.9999 17.9169C18.3891 17.9169 17.0833 19.2227 17.0833 20.8335C17.0833 22.4444 18.3891 23.7502 19.9999 23.7502Z" fill="#F3F3F1"/>
<path d="M45 48.75H15C12.9283 48.75 11.25 47.0717 11.25 45C11.25 42.9283 12.9283 41.25 15 41.25H45C47.0717 41.25 48.75 42.9283 48.75 45C48.75 47.0717 47.0717 48.75 45 48.75Z" fill="#F3F3F1"/>
<path d="M29.5834 32.9169H33.3334V40.4169H29.5834V32.9169Z" fill="#DFE0E1"/>
<path d="M34.5834 24.5837H38.3334V32.0837H34.5834V24.5837Z" fill="#DFE0E1"/>
<path d="M37.9165 32.9169H41.6665V40.4169H37.9165V32.9169Z" fill="#DFE0E1"/>
<path d="M20.8333 20.8335C20.8333 19.9402 21.2433 19.1519 21.8749 18.6169C21.3666 18.1869 20.7183 17.9169 19.9999 17.9169C18.3899 17.9169 17.0833 19.2235 17.0833 20.8335C17.0833 22.4435 18.3899 23.7502 19.9999 23.7502C20.7183 23.7502 21.3666 23.4802 21.8749 23.0502C21.2433 22.5152 20.8333 21.7269 20.8333 20.8335Z" fill="#DFE0E1"/>
<path d="M15 45C15 42.9283 16.6783 41.25 18.75 41.25H15C12.9283 41.25 11.25 42.9283 11.25 45C11.25 47.0717 12.9283 48.75 15 48.75H18.75C16.6783 48.75 15 47.0717 15 45Z" fill="#DFE0E1"/>
<path d="M15.1033 24.5217C14.905 24.1667 15 23.7133 15.3216 23.4733L17.2966 22.0067C17.2316 21.6233 17.1816 21.235 17.1816 20.8333C17.1816 20.4317 17.2316 20.0433 17.2966 19.66L15.3216 18.1933C15 17.9533 14.905 17.5 15.1033 17.145L16.03 15.4867C15.9566 15.545 15.875 15.59 15.805 15.65L13.5733 14.61C13.2116 14.4417 12.785 14.5833 12.5866 14.9383L11.3533 17.145C11.155 17.5 11.25 17.9533 11.5716 18.1917L13.5466 19.6583C13.4816 20.0417 13.4316 20.43 13.4316 20.8317C13.4316 21.2333 13.4816 21.6217 13.5466 22.005L11.5716 23.4717C11.25 23.7117 11.155 24.1633 11.3533 24.52L12.5866 26.7267C12.785 27.0817 13.2116 27.2233 13.5733 27.055L15.805 26.015C15.875 26.0767 15.9583 26.1217 16.03 26.18L15.1033 24.5217Z" fill="#19D86E"/>
<path d="M37.0832 41.6663H29.5833C28.8933 41.6663 28.3333 41.1063 28.3333 40.4163V32.9163C28.3333 32.2263 28.8933 31.6663 29.5833 31.6663H37.0832C37.7732 31.6663 38.3332 32.2263 38.3332 32.9163V40.4163C38.3332 41.1063 37.7732 41.6663 37.0832 41.6663ZM30.8333 39.1663H35.8332V34.1663H30.8333V39.1663Z" fill="#3C4658"/>
<path d="M42.0835 33.3331H34.5835C33.8935 33.3331 33.3335 32.7731 33.3335 32.0831V24.5831C33.3335 23.8931 33.8935 23.3331 34.5835 23.3331H42.0835C42.7735 23.3331 43.3335 23.8931 43.3335 24.5831V32.0831C43.3335 32.7731 42.7735 33.3331 42.0835 33.3331ZM35.8335 30.8331H40.8335V25.8331H35.8335V30.8331Z" fill="#3C4658"/>
<path d="M45.4166 41.6663H37.9166C37.2266 41.6663 36.6666 41.1063 36.6666 40.4163V32.9163C36.6666 32.2263 37.2266 31.6663 37.9166 31.6663H45.4166C46.1066 31.6663 46.6666 32.2263 46.6666 32.9163V40.4163C46.6666 41.1063 46.1066 41.6663 45.4166 41.6663ZM39.1666 39.1663H44.1666V34.1663H39.1666V39.1663Z" fill="#3C4658"/>
<path d="M20 24.9996C17.7034 24.9996 15.8334 23.1296 15.8334 20.8329C15.8334 18.5363 17.7034 16.6663 20 16.6663C22.2967 16.6663 24.1667 18.5363 24.1667 20.8329C24.1667 23.1296 22.2967 24.9996 20 24.9996ZM20 19.1663C19.0817 19.1663 18.3334 19.9146 18.3334 20.8329C18.3334 21.7513 19.0817 22.4996 20 22.4996C20.9184 22.4996 21.6667 21.7513 21.6667 20.8329C21.6667 19.9146 20.9184 19.1663 20 19.1663Z" fill="#3C4658"/>
<path d="M21.2316 31.667H18.7666C17.7199 31.667 16.8549 30.8703 16.7533 29.817L16.5799 28.037C16.2549 27.872 15.9399 27.6853 15.6383 27.4736L14.0999 28.192C13.1533 28.6353 12.0082 28.262 11.4949 27.342L10.2616 25.1336C9.75658 24.2286 9.99991 23.0853 10.8266 22.4703L12.2116 21.442C12.1949 21.2503 12.1832 21.0453 12.1832 20.8336C12.1832 20.622 12.1949 20.417 12.2116 20.2253L10.8266 19.197C9.99991 18.582 9.75658 17.4386 10.2632 16.5353L11.4949 14.3286C12.0116 13.4086 13.1566 13.0353 14.1016 13.4786L15.6399 14.1953C15.9416 13.9836 16.2566 13.7953 16.5816 13.632L16.7549 11.8503C16.8549 10.797 17.7216 10.0003 18.7683 10.0003H21.2333C22.2799 10.0003 23.1449 10.797 23.2466 11.8503L23.4199 13.6303C23.7449 13.7953 24.0599 13.982 24.3616 14.1936L25.8999 13.4753C26.8466 13.032 27.9916 13.407 28.5049 14.3253L29.7383 16.532C30.2433 17.4353 29.9999 18.5803 29.1749 19.1936L27.7899 20.222C27.8066 20.4136 27.8183 20.6186 27.8183 20.8303C27.8183 21.042 27.8066 21.247 27.7899 21.4386L29.1749 22.467C30.0016 23.0803 30.2449 24.2253 29.7383 25.1286L28.5066 27.3353C27.9916 28.2553 26.8483 28.632 25.8999 28.1853L24.3616 27.4686C24.0599 27.6803 23.7449 27.8686 23.4199 28.032L23.2466 29.8136C23.1449 30.8703 22.2783 31.667 21.2316 31.667ZM19.2033 29.167H20.7966L20.9999 27.0686C21.0466 26.5953 21.3566 26.1886 21.8016 26.0203C22.3666 25.807 22.8966 25.4886 23.3749 25.0736C23.7483 24.7503 24.2766 24.677 24.7216 24.8853L26.5383 25.732L27.3683 24.247L25.7066 23.012C25.3283 22.732 25.1416 22.262 25.2199 21.7986C25.2733 21.4853 25.3166 21.1653 25.3166 20.8353C25.3166 20.5053 25.2733 20.1853 25.2199 19.872C25.1416 19.4086 25.3283 18.9386 25.7066 18.6586L27.3683 17.4236L26.5383 15.9386L24.7216 16.7853C24.2749 16.9936 23.7483 16.9203 23.3749 16.597C22.8966 16.182 22.3666 15.8636 21.8016 15.6503C21.3566 15.482 21.0449 15.0753 20.9999 14.602L20.7966 12.5003H19.2033L18.9999 14.5986C18.9533 15.072 18.6433 15.4786 18.1983 15.647C17.6333 15.8603 17.1033 16.1786 16.6249 16.5936C16.2516 16.917 15.7233 16.9903 15.2783 16.782L13.4616 15.9353L12.6316 17.4203L14.2933 18.6553C14.6716 18.9353 14.8583 19.4053 14.7799 19.8686C14.7266 20.182 14.6833 20.502 14.6833 20.832C14.6833 21.162 14.7266 21.482 14.7799 21.7953C14.8583 22.2586 14.6716 22.7286 14.2933 23.0086L12.6316 24.2436L13.4616 25.7286L15.2783 24.882C15.7249 24.6736 16.2516 24.747 16.6249 25.0703C17.1033 25.4853 17.6333 25.8036 18.1983 26.017C18.6433 26.1853 18.9549 26.592 18.9999 27.0653L19.2033 29.167Z" fill="#3C4658"/>
<path d="M45.0001 50.0003H15.0001C12.2435 50.0003 10.0001 47.757 10.0001 45.0003C10.0001 42.2436 12.2435 40.0003 15.0001 40.0003H45.0001C47.7568 40.0003 50.0001 42.2436 50.0001 45.0003C50.0001 47.757 47.7568 50.0003 45.0001 50.0003ZM15.0001 42.5003C13.6218 42.5003 12.5001 43.622 12.5001 45.0003C12.5001 46.3786 13.6218 47.5003 15.0001 47.5003H45.0001C46.3785 47.5003 47.5001 46.3786 47.5001 45.0003C47.5001 43.622 46.3785 42.5003 45.0001 42.5003H15.0001Z" fill="#3C4658"/>
<path d="M16.6667 46.6671C15.7483 46.6671 15 45.9187 15 45.0004C15 44.0821 15.7483 43.3337 16.6667 43.3337C17.585 43.3337 18.3333 44.0821 18.3333 45.0004C18.3333 45.9187 17.585 46.6671 16.6667 46.6671Z" fill="#3C4658"/>
<path d="M25 46.6671C24.0817 46.6671 23.3334 45.9187 23.3334 45.0004C23.3334 44.0821 24.0817 43.3337 25 43.3337C25.9184 43.3337 26.6667 44.0821 26.6667 45.0004C26.6667 45.9187 25.9184 46.6671 25 46.6671Z" fill="#3C4658"/>
<path d="M35.0002 46.6671C34.0818 46.6671 33.3335 45.9187 33.3335 45.0004C33.3335 44.0821 34.0818 43.3337 35.0002 43.3337C35.9185 43.3337 36.6668 44.0821 36.6668 45.0004C36.6668 45.9187 35.9185 46.6671 35.0002 46.6671Z" fill="#3C4658"/>
<path d="M43.3332 46.6671C42.4148 46.6671 41.6665 45.9187 41.6665 45.0004C41.6665 44.0821 42.4148 43.3337 43.3332 43.3337C44.2515 43.3337 44.9998 44.0821 44.9998 45.0004C44.9998 45.9187 44.2515 46.6671 43.3332 46.6671Z" fill="#3C4658"/>
</svg>
