<svg width="60" height="60" viewBox="0 0 60 60" fill="none" xmlns="http://www.w3.org/2000/svg">
<g clip-path="url(#clip0_1_648)">
<path d="M6.94505 13.9618C6.94505 25.4901 0.973389 33.4068 0.973389 38.9618C0.973389 44.5168 4.16672 56.1834 29.7217 56.1834C55.2767 56.1834 59.0267 40.4884 59.0267 34.3784C59.0284 5.76677 6.94505 -6.4549 6.94505 13.9618Z" fill="#EFF1F3"/>
<path d="M14.5835 11.25H25.4168V38.75H14.5835V11.25Z" fill="#F3F3F1"/>
<path d="M34.5833 11.25H45.4166V38.75H34.5833V11.25Z" fill="#00C658"/>
<path d="M14.5835 11.25H18.3335V38.75H14.5835V11.25Z" fill="#DFE0E1"/>
<path d="M34.5833 11.25H38.3333V38.75H34.5833V11.25Z" fill="#19D86E"/>
<path d="M13.3333 10.0003H15.8333V50.0003H13.3333V10.0003Z" fill="#3C4658"/>
<path d="M25.4166 40.0003H14.5833C13.8933 40.0003 13.3333 39.4403 13.3333 38.7503V11.2503C13.3333 10.5603 13.8933 10.0003 14.5833 10.0003H25.4166C26.1066 10.0003 26.6666 10.5603 26.6666 11.2503V38.7503C26.6666 39.4403 26.1066 40.0003 25.4166 40.0003ZM15.8333 37.5003H24.1666V12.5003H15.8333V37.5003Z" fill="#3C4658"/>
<path d="M18.0649 33.3336C15.1282 33.3336 13.7249 30.4186 13.3599 28.6969L15.8049 28.1736C15.8115 28.2003 16.4099 30.8336 18.0649 30.8336C18.8399 30.8336 19.1015 30.4669 19.6199 28.6553C20.0349 27.2003 20.6632 25.0003 23.0949 25.0003C25.4582 25.0003 26.4865 27.7119 26.5949 28.0203L24.2382 28.8536C24.0365 28.3036 23.5115 27.5003 23.0949 27.5003C22.6732 27.5003 22.4815 27.7419 22.0232 29.3419C21.5699 30.9319 20.8832 33.3336 18.0649 33.3336Z" fill="#3C4658"/>
<path d="M33.3335 10.0003H35.8335V50.0003H33.3335V10.0003Z" fill="#3C4658"/>
<path d="M45.4168 40.0003H34.5835C33.8935 40.0003 33.3335 39.4403 33.3335 38.7503V11.2503C33.3335 10.5603 33.8935 10.0003 34.5835 10.0003H45.4168C46.1068 10.0003 46.6668 10.5603 46.6668 11.2503V38.7503C46.6668 39.4403 46.1068 40.0003 45.4168 40.0003ZM35.8335 37.5003H44.1668V12.5003H35.8335V37.5003Z" fill="#3C4658"/>
<path d="M38.0651 33.3336C35.1284 33.3336 33.7251 30.4186 33.3601 28.6969L35.8051 28.1736C35.8118 28.2003 36.4101 30.8336 38.0651 30.8336C38.8401 30.8336 39.1018 30.4669 39.6201 28.6553C40.0351 27.2003 40.6634 25.0003 43.0951 25.0003C45.4584 25.0003 46.4868 27.7119 46.5951 28.0203L44.2384 28.8536C44.0368 28.3036 43.5118 27.5003 43.0951 27.5003C42.6734 27.5003 42.4818 27.7419 42.0234 29.3419C41.5701 30.9319 40.8834 33.3336 38.0651 33.3336Z" fill="#3C4658"/>
<path d="M10 47.5003H50V50.0003H10V47.5003Z" fill="#3C4658"/>
<path d="M50.6216 0H52.2882V3.33333H50.6216V0Z" fill="#ACB1BA"/>
<path d="M50.6216 9.58371H52.2882V12.917H50.6216V9.58371Z" fill="#ACB1BA"/>
<path d="M44.7883 5.41629H48.1217V7.08296H44.7883V5.41629Z" fill="#ACB1BA"/>
<path d="M54.3716 5.41629H57.7049V7.08296H54.3716V5.41629Z" fill="#ACB1BA"/>
<path d="M54.3718 43.7497C52.9935 43.7497 51.8718 42.628 51.8718 41.2497C51.8718 39.8714 52.9935 38.7497 54.3718 38.7497C55.7502 38.7497 56.8718 39.8714 56.8718 41.2497C56.8718 42.628 55.7502 43.7497 54.3718 43.7497ZM54.3718 40.4164C53.9118 40.4164 53.5385 40.7897 53.5385 41.2497C53.5385 41.7097 53.9118 42.083 54.3718 42.083C54.8318 42.083 55.2052 41.7097 55.2052 41.2497C55.2052 40.7897 54.8302 40.4164 54.3718 40.4164Z" fill="#ACB1BA"/>
</g>
<defs>
<clipPath id="clip0_1_648">
<rect width="60" height="60" fill="white"/>
</clipPath>
</defs>
</svg>
