<svg width="80" height="80" viewBox="0 0 80 80" fill="none" xmlns="http://www.w3.org/2000/svg">
<path d="M9.26007 61.3836C9.26007 46.0125 1.29785 35.4569 1.29785 28.0502C1.29785 20.6436 5.55563 5.08801 39.629 5.08801C73.7023 5.08801 78.7023 26.0147 78.7023 34.1613C78.7045 72.3102 9.26007 88.6058 9.26007 61.3836Z" fill="white"/>
<path d="M13.3342 19.2651L16.4769 16.1224L18.0483 17.6938L14.9056 20.8365L13.3342 19.2651Z" fill="#ACB1BA"/>
<path d="M4.29883 28.3002L7.44153 25.1575L9.01288 26.7288L5.87018 29.8715L4.29883 28.3002Z" fill="#ACB1BA"/>
<path d="M4.30078 17.3014L5.87213 15.73L9.01483 18.8727L7.44348 20.4441L4.30078 17.3014Z" fill="#ACB1BA"/>
<path d="M67.222 39.1667C65.3842 39.1667 63.8887 37.6711 63.8887 35.8333C63.8887 33.9956 65.3842 32.5 67.222 32.5C69.0598 32.5 70.5554 33.9956 70.5554 35.8333C70.5554 37.6711 69.0598 39.1667 67.222 39.1667ZM67.222 34.7222C66.6109 34.7222 66.1109 35.2222 66.1109 35.8333C66.1109 36.4444 66.6109 36.9444 67.222 36.9444C67.8331 36.9444 68.3331 36.4444 68.3331 35.8333C68.3331 35.2222 67.8331 34.7222 67.222 34.7222Z" fill="#ACB1BA"/>
<path d="M15 28.334V58.334H18.8889H27.7778H46.1111V34.4451V28.334H15Z" fill="#00C658"/>
<path d="M57.5091 38.3667C57.0136 36.3889 55.2358 35 53.198 35H46.1113V43.8889H58.8891L57.5091 38.3667Z" fill="#00C658"/>
<path d="M58.8889 43.8894H46.1111V58.3338H51.1111H60H65V47.7783L58.8889 43.8894Z" fill="#F3F3F1"/>
<path d="M55.5559 62.7779C57.7037 62.7779 59.4448 61.0368 59.4448 58.889C59.4448 56.7412 57.7037 55.0001 55.5559 55.0001C53.4081 55.0001 51.667 56.7412 51.667 58.889C51.667 61.0368 53.4081 62.7779 55.5559 62.7779Z" fill="#F3F3F1"/>
<path d="M23.3335 62.7779C25.4813 62.7779 27.2224 61.0368 27.2224 58.889C27.2224 56.7412 25.4813 55.0001 23.3335 55.0001C21.1857 55.0001 19.4446 56.7412 19.4446 58.889C19.4446 61.0368 21.1857 62.7779 23.3335 62.7779Z" fill="#F3F3F1"/>
<path d="M15 28.334V58.334H18.8889H20V28.334H15Z" fill="#19D86E"/>
<path d="M46.1113 35H51.1113V43.8889H46.1113V35Z" fill="#19D86E"/>
<path d="M46.1111 43.8894H51.1111V58.3338H46.1111V43.8894Z" fill="#DFE0E1"/>
<path d="M56.667 58.889C56.667 57.6979 57.2137 56.6468 58.0559 55.9335C57.3781 55.3601 56.5137 55.0001 55.5559 55.0001C53.4092 55.0001 51.667 56.7423 51.667 58.889C51.667 61.0357 53.4092 62.7779 55.5559 62.7779C56.5137 62.7779 57.3781 62.4179 58.0559 61.8446C57.2137 61.1313 56.667 60.0801 56.667 58.889Z" fill="#DFE0E1"/>
<path d="M24.4446 58.889C24.4446 57.6979 24.9913 56.6468 25.8335 55.9335C25.1557 55.3601 24.2913 55.0001 23.3335 55.0001C21.1868 55.0001 19.4446 56.7423 19.4446 58.889C19.4446 61.0357 21.1868 62.7779 23.3335 62.7779C24.2913 62.7779 25.1557 62.4179 25.8335 61.8446C24.9913 61.1313 24.4446 60.0801 24.4446 58.889Z" fill="#DFE0E1"/>
<path d="M46.1112 59.9994H27.7779V56.666H44.4446V29.9994H16.6668V56.666H18.889V59.9994H15.0002C14.0802 59.9994 13.3335 59.2527 13.3335 58.3327V28.3327C13.3335 27.4127 14.0802 26.666 15.0002 26.666H46.1112C47.0312 26.666 47.7779 27.4127 47.7779 28.3327V58.3327C47.7779 59.2527 47.0312 59.9994 46.1112 59.9994Z" fill="#3C4658"/>
<path d="M47.7782 46.1098H44.4448V34.9987C44.4448 34.0787 45.1915 33.332 46.1115 33.332H53.1959C56.0048 33.332 58.4426 35.2343 59.1248 37.9609L60.5048 43.4832L57.2715 44.2898L55.8915 38.7676C55.5804 37.5298 54.4715 36.6654 53.1959 36.6654H47.7782V46.1098Z" fill="#3C4658"/>
<path d="M65.0004 59.9992H60.0004V56.6659H63.3337V48.6926L58.4026 45.5548H47.7782V56.6659H51.1115V59.9992H46.1115C45.1915 59.9992 44.4448 59.2526 44.4448 58.3326V43.8881C44.4448 42.9681 45.1915 42.2214 46.1115 42.2214H58.8893C59.207 42.2214 59.5159 42.3125 59.7826 42.4814L65.8937 46.3703C66.3759 46.677 66.667 47.2059 66.667 47.777V58.3326C66.667 59.2526 65.9204 59.9992 65.0004 59.9992Z" fill="#3C4658"/>
<path d="M55.5556 64.4431C52.4911 64.4431 50 61.952 50 58.8876C50 55.8231 52.4911 53.332 55.5556 53.332C58.62 53.332 61.1111 55.8231 61.1111 58.8876C61.1111 61.952 58.62 64.4431 55.5556 64.4431ZM55.5556 56.6654C54.3289 56.6654 53.3333 57.6609 53.3333 58.8876C53.3333 60.1143 54.3289 61.1098 55.5556 61.1098C56.7822 61.1098 57.7778 60.1143 57.7778 58.8876C57.7778 57.6609 56.7822 56.6654 55.5556 56.6654Z" fill="#3C4658"/>
<path d="M23.3336 64.4431C20.2692 64.4431 17.7781 61.952 17.7781 58.8876C17.7781 55.8231 20.2692 53.332 23.3336 53.332C26.3981 53.332 28.8892 55.8231 28.8892 58.8876C28.8892 61.952 26.3981 64.4431 23.3336 64.4431ZM23.3336 56.6654C22.107 56.6654 21.1114 57.6609 21.1114 58.8876C21.1114 60.1143 22.107 61.1098 23.3336 61.1098C24.5603 61.1098 25.5559 60.1143 25.5559 58.8876C25.5559 57.6609 24.5603 56.6654 23.3336 56.6654Z" fill="#3C4658"/>
</svg>
