<svg width="60" height="60" viewBox="0 0 60 60" fill="none" xmlns="http://www.w3.org/2000/svg">
<path d="M22.3516 58.3317C32.8483 53.5667 42.5266 55.7334 47.5849 53.4384C52.6433 51.1417 61.9466 43.4118 51.3849 20.1417C40.8233 -3.12825 24.9833 -0.0582533 19.4183 2.46675C-6.63507 14.2917 3.75993 66.7701 22.3516 58.3317Z" fill="#EFF1F3"/>
<path d="M5.13696 5.14896L6.31547 3.97045L8.6725 6.32747L7.49399 7.50598L5.13696 5.14896Z" fill="#ACB1BA"/>
<path d="M4.84131 13.1049L7.19833 10.7478L8.37684 11.9263L6.01982 14.2834L4.84131 13.1049Z" fill="#ACB1BA"/>
<path d="M11.6179 6.32971L13.9749 3.97269L15.1535 5.1512L12.7964 7.50822L11.6179 6.32971Z" fill="#ACB1BA"/>
<path d="M53.8984 48.7495C52.5201 48.7495 51.3984 47.6278 51.3984 46.2495C51.3984 44.8711 52.5201 43.7495 53.8984 43.7495C55.2768 43.7495 56.3984 44.8711 56.3984 46.2495C56.3984 47.6278 55.2768 48.7495 53.8984 48.7495ZM53.8984 45.4161C53.4401 45.4161 53.0651 45.7895 53.0651 46.2495C53.0651 46.7095 53.4401 47.0828 53.8984 47.0828C54.3568 47.0828 54.7318 46.7095 54.7318 46.2495C54.7318 45.7895 54.3568 45.4161 53.8984 45.4161Z" fill="#ACB1BA"/>
<path d="M45.4167 48.75H14.5833C12.7417 48.75 11.25 47.2583 11.25 45.4167V14.5833C11.25 12.7417 12.7417 11.25 14.5833 11.25H45.4167C47.2583 11.25 48.75 12.7417 48.75 14.5833V45.4167C48.75 47.2583 47.2583 48.75 45.4167 48.75Z" fill="#F3F3F1"/>
<path d="M30.0001 37.9552L22.5317 42.0835L23.9584 33.3402L17.9167 27.1485L26.2667 25.8719L30.0001 17.9169L33.7334 25.8719L42.0834 27.1485L36.0417 33.3402L37.4684 42.0835L30.0001 37.9552Z" fill="#00C658"/>
<path d="M15 45.4167V14.5833C15 12.7417 16.4917 11.25 18.3333 11.25H14.5833C12.7417 11.25 11.25 12.7417 11.25 14.5833V45.4167C11.25 47.2583 12.7417 48.75 14.5833 48.75H18.3333C16.4917 48.75 15 47.2583 15 45.4167Z" fill="#D5DBE1"/>
<path d="M26.6534 39.8052L27.7084 33.3402L21.6667 27.1485L30.0167 25.8719L31.8751 21.9119L30.0001 17.9169L26.2667 25.8719L17.9167 27.1485L23.9584 33.3402L22.5317 42.0835L26.6534 39.8052Z" fill="#19D86E"/>
<path d="M33.75 37.9549L31.875 38.9916L37.4683 42.0832L37.0967 39.8049L33.75 37.9549Z" fill="#19D86E"/>
<path d="M37.4666 43.3338C37.2582 43.3338 37.0499 43.2822 36.8616 43.1772L29.9999 39.3838L23.1382 43.1772C22.7199 43.4088 22.2032 43.3805 21.8132 43.1055C21.4215 42.8288 21.2232 42.3538 21.2982 41.8822L22.6232 33.7605L17.0215 28.0205C16.6949 27.6855 16.5815 27.1938 16.7315 26.7505C16.8799 26.3055 17.2632 25.9838 17.7282 25.9122L25.4182 24.7355L28.8682 17.3838C29.2782 16.5072 30.7199 16.5072 31.1299 17.3838L34.5799 24.7355L42.2699 25.9122C42.7332 25.9822 43.1182 26.3055 43.2666 26.7505C43.4166 27.1955 43.3032 27.6855 42.9766 28.0205L37.3749 33.7605L38.6999 41.8822C38.7766 42.3538 38.5782 42.8288 38.1849 43.1055C37.9716 43.2572 37.7199 43.3338 37.4666 43.3338ZM29.9999 36.7055C30.2082 36.7055 30.4166 36.7572 30.6049 36.8622L35.8182 39.7438L34.8082 33.5405C34.7449 33.1488 34.8699 32.7505 35.1466 32.4655L39.4899 28.0155L33.5449 27.1072C33.1332 27.0438 32.7799 26.7805 32.6032 26.4038L29.9999 20.8588L27.3966 26.4038C27.2199 26.7805 26.8666 27.0455 26.4549 27.1072L20.5099 28.0155L24.8532 32.4655C25.1299 32.7488 25.2549 33.1488 25.1916 33.5405L24.1816 39.7438L29.3949 36.8622C29.5832 36.7572 29.7916 36.7055 29.9999 36.7055Z" fill="#3C4658"/>
<path d="M45.4167 50.0003H14.5833C12.055 50.0003 10 47.9453 10 45.4169V14.5836C10 12.0553 12.055 10.0003 14.5833 10.0003H45.4167C47.945 10.0003 50 12.0553 50 14.5836V45.4169C50 47.9453 47.945 50.0003 45.4167 50.0003ZM14.5833 12.5003C13.435 12.5003 12.5 13.4353 12.5 14.5836V45.4169C12.5 46.5653 13.435 47.5003 14.5833 47.5003H45.4167C46.565 47.5003 47.5 46.5653 47.5 45.4169V14.5836C47.5 13.4353 46.565 12.5003 45.4167 12.5003H14.5833Z" fill="#3C4658"/>
</svg>
